SplineFontDB: 3.0
FontName: Manjari-Bold
FullName: Manjari Bold
FamilyName: Manjari
Weight: Bold
Copyright: Digitized data copyright (c) 2017, Santhosh Thottingal, Kavya Manohar, Swathanthra Malayalam Computing(http://smc.org.in) with reserved font name "Manjari".
Version: 1.1
ItalicAngle: 0
UnderlinePosition: -600
UnderlineWidth: 100
Ascent: 1434
Descent: 614
InvalidEm: 0
sfntRevision: 0x00010000
LayerCount: 2
Layer: 0 0 "Back" 1
Layer: 1 0 "Fore" 0
XUID: [1021 348 -393509193 1121778]
FSType: 0
OS2Version: 1
OS2_WeightWidthSlopeOnly: 0
OS2_UseTypoMetrics: 1
CreationTime: 1201144287
ModificationTime: 1498398458
PfmFamily: 33
TTFWeight: 700
TTFWidth: 5
LineGap: 0
VLineGap: 0
Panose: 2 0 5 3 0 0 0 0 0 0
OS2TypoAscent: 1500
OS2TypoAOffset: 0
OS2TypoDescent: -900
OS2TypoDOffset: 0
OS2TypoLinegap: 0
OS2WinAscent: 1500
OS2WinAOffset: 0
OS2WinDescent: 900
OS2WinDOffset: 0
HheadAscent: 1500
HheadAOffset: 0
HheadDescent: -900
HheadDOffset: 0
OS2SubXSize: 1331
OS2SubYSize: 1433
OS2SubXOff: 274
OS2SubYOff: 286
OS2SupXSize: 1331
OS2SupYSize: 1433
OS2SupXOff: -944
OS2SupYOff: 983
OS2StrikeYSize: 102
OS2StrikeYPos: 530
OS2Vendor: 'SMC '
OS2CodePages: 00000001.00000000
OS2UnicodeRanges: 80800003.00002000.00000000.00000000
MarkAttachClasses: 1
DEI: 91125
LangName: 1100 "" "" "" "" "" "" "" "" "" "" "" "" "" "" "" "" "" "" "+DS4NHg1NDRwNMA0/"

StartChar: .notdef
Encoding: 65536 -1 0
Width: 692
GlyphClass: 2
Flags: HW
LayerCount: 2
Fore
SplineSet
127 105 m 1
 527 105 l 1
 527 1038 l 1
 127 1038 l 1
 127 105 l 1
20 1 m 1
 20 1144 l 1
 631 1144 l 1
 631 1 l 1
 20 1 l 1
EndSplineSet
EndChar

StartChar: exclam
Encoding: 33 33 4
Width: 352
GlyphClass: 2
Flags: HW
LayerCount: 2
Fore
SplineSet
176 221 m 0
 243 221 297 167 297 100 c 0
 297 33 243 -21 176 -21 c 0
 109 -21 55 33 55 100 c 0
 55 167 109 221 176 221 c 0
170 1360 m 1
 171 1360 l 2
 220 1360 276 1323 276 1267 c 1
 248 416 l 1
 248 368 225 323 171 323 c 0
 117 323 95 368 95 416 c 1
 65 1267 l 1
 65 1323 122 1359 170 1360 c 1
EndSplineSet
EndChar

StartChar: numbersign
Encoding: 35 35 6
Width: 937
GlyphClass: 2
Flags: HW
LayerCount: 2
Fore
SplineSet
467 754 m 1
 415 475 l 1
 608 475 l 1
 657 754 l 1
 467 754 l 1
824 754 m 1
 774 475 l 1
 960 475 l 1
 960 322 l 1
 747 322 l 1
 680 -55 l 1
 514 -55 l 1
 580 322 l 1
 386 322 l 1
 316 -55 l 1
 152 -55 l 1
 223 322 l 1
 43 322 l 1
 43 475 l 1
 252 475 l 1
 304 754 l 1
 113 754 l 1
 113 907 l 1
 332 907 l 1
 398 1256 l 1
 561 1256 l 1
 496 907 l 1
 684 907 l 1
 746 1256 l 1
 913 1256 l 1
 851 907 l 1
 1016 907 l 1
 1016 754 l 1
 824 754 l 1
EndSplineSet
EndChar

StartChar: dollar
Encoding: 36 36 7
Width: 1452
GlyphClass: 2
Flags: HW
LayerCount: 2
Fore
SplineSet
743 -261 m 0
 687 -261 640 -204 640 -135 c 2
 640 -8 l 1
 406 17 207 127 112 309 c 0
 105 321 100 342 100 356 c 0
 100 411 145 456 200 456 c 0
 234 456 274 431 289 401 c 0
 351 281 477 210 640 191 c 1
 640 614 l 1
 386 655 120 746 120 1013 c 0
 120 1282 382 1415 639 1442 c 1
 639 1446 l 2
 639 1510 683 1572 736 1572 c 0
 799 1572 844 1518 844 1446 c 0
 844 1444 844 1442 844 1440 c 0
 1040 1412 1208 1305 1290 1154 c 0
 1297 1142 1302 1119 1302 1105 c 0
 1302 1050 1257 1005 1202 1005 c 0
 1168 1005 1128 1029 1113 1059 c 0
 1061 1154 967 1216 844 1238 c 1
 844 790 l 1
 1089 764 1352 700 1352 421 c 0
 1352 154 1106 20 845 -8 c 1
 845 -135 l 2
 845 -204 799 -261 743 -261 c 0
845 193 m 1
 997 214 1152 281 1152 420 c 0
 1152 559 985 575 845 589 c 1
 845 193 l 1
639 1241 m 1
 486 1221 323 1152 323 1020 c 0
 323 899 484 844 639 816 c 1
 639 1241 l 1
EndSplineSet
EndChar

StartChar: percent
Encoding: 37 37 8
Width: 1584
GlyphClass: 2
Flags: HW
LayerCount: 2
Fore
SplineSet
673 988 m 0
 686 1070 644 1128 588 1163 c 0
 520 1205 437 1182 389 1137 c 0
 386 1130 382 1123 377 1117 c 0
 269 986 404 816 545 851 c 0
 610 867 663 920 673 988 c 0
450 1370 m 1
 632 1404 779 1282 833 1164 c 0
 888 1043 868 918 811 825 c 1
 1248 1423 l 2
 1276 1463 1336 1485 1384 1452 c 0
 1438 1415 1440 1350 1413 1309 c 1
 456 -1 l 2
 454.363088188 -2.63691181183 454.048794405 -2.60160745934 450 -8 c 0
 420 -52 358 -52 324 -29 c 0
 275 4 259 65 293 114 c 1
 778 778 l 2
 776 775 773 773 771 771 c 0
 685 677 529 619 370 685 c 0
 252 733 130 872 151 1038 c 0
 173 1218 275 1331 450 1370 c 1
1317 279 m 0
 1330 361 1288 418 1232 453 c 0
 1164 495 1082 472 1034 427 c 0
 1029 418 1026 413 1021 408 c 0
 913 277 1049 108 1189 142 c 0
 1254 158 1307 211 1317 279 c 0
1094 661 m 1
 1276 695 1424 572 1477 454 c 0
 1544 308 1502 157 1415 62 c 0
 1329 -32 1173 -91 1014 -25 c 0
 896 23 774 163 795 329 c 0
 817 509 919 622 1094 661 c 1
EndSplineSet
EndChar

StartChar: ampersand
Encoding: 38 38 9
Width: 1216
GlyphClass: 2
Flags: HW
LayerCount: 2
Fore
SplineSet
486 630 m 1
 369 569 264 493 264 393 c 0
 264 275 362 185 495 185 c 0
 598 185 691 249 744 311 c 1
 660 415 575 521 486 630 c 1
536 864 m 1
 646 931 693 996 693 1062 c 0
 693 1133 634 1189 560 1189 c 0
 483 1189 420 1138 420 1060 c 0
 420 1004 456 963 536 864 c 1
883 1061 m 0
 883 923 801 812 653 720 c 1
 724 632 785 558 837 494 c 1
 851 544 859 593 861 646 c 0
 862 693 904 735 956 735 c 0
 995 735 1051 703 1051 657 c 0
 1051 540 1026 429 975 325 c 1
 1074 200 1121 140 1128 131 c 0
 1138 117 1141 99 1141 79 c 0
 1141 26 1095 -13 1043 -13 c 0
 1014 -13 987 2 968 27 c 0
 927 83 890 130 863 165 c 1
 775 70 653 -6 494 -6 c 0
 264 -6 76 157 76 379 c 0
 76 580 193 681 369 776 c 1
 310 853 231 949 231 1068 c 0
 231 1241 384 1381 551 1381 c 0
 738 1381 883 1243 883 1061 c 0
EndSplineSet
EndChar

StartChar: quotesingle
Encoding: 39 39 10
Width: 382
GlyphClass: 2
Flags: HW
LayerCount: 2
Fore
SplineSet
185 930 m 0
 129 930 107 977 105 1031 c 1
 75 1351 l 1
 73 1412 137 1450 187 1451 c 0
 240 1452 311 1412 307 1348 c 1
 265 1031 l 1
 261 975 239 930 185 930 c 0
EndSplineSet
EndChar

StartChar: parenleft
Encoding: 40 40 11
Width: 705
GlyphClass: 2
Flags: HW
LayerCount: 2
Fore
SplineSet
631 -276 m 0
 631 -331 589 -380 533 -380 c 0
 509 -380 486 -372 469 -358 c 0
 258 -196 75 91 75 440 c 0
 75 788 253 1076 463 1238 c 0
 480 1252 503 1260 527 1260 c 0
 583 1260 625 1211 625 1157 c 0
 625 1126 610 1098 585 1080 c 1
 420 951 275 717 275 441 c 0
 275 164 424 -72 590 -200 c 1
 617 -219 631 -245 631 -276 c 0
EndSplineSet
EndChar

StartChar: asterisk
Encoding: 42 42 13
Width: 955
GlyphClass: 2
Flags: HW
LayerCount: 2
Fore
SplineSet
-24 1236 m 0
 -24 1286 13 1337 67 1337 c 0
 89 1337 107 1331 122 1322 c 2
 390 1159 l 1
 386 1362 l 1
 386 1378 l 2
 386 1424 441 1459 481 1459 c 0
 533 1459 576 1415 576 1364 c 2
 580 1160 l 1
 834 1323 l 2
 850 1333 868 1339 890 1339 c 0
 933 1339 981 1299 981 1253 c 0
 981 1215 966 1182 936 1163 c 2
 666 990 l 1
 935 827 l 2
 963 810 981 783 981 750 c 0
 981 700 945 650 890 650 c 0
 869 650 851 656 836 665 c 2
 583 818 l 1
 588 549 l 1
 588 533 l 2
 588 486 533 452 493 452 c 0
 441 452 398 496 398 547 c 2
 393 817 l 1
 122 643 l 2
 105 632 86 628 66 628 c 0
 11 628 -25 678 -25 728 c 0
 -25 761 -7 786 20 803 c 2
 307 987 l 1
 23 1160 l 2
 -5 1177 -24 1203 -24 1236 c 0
EndSplineSet
EndChar

StartChar: plus
Encoding: 43 43 14
Width: 1162
GlyphClass: 2
Flags: HW
LayerCount: 2
Fore
SplineSet
574 969 m 1
 576 969 l 2
 631 969 676 924 676 869 c 2
 676 868 l 1
 680 586 l 1
 963 586 l 2
 1018 586 1063 541 1063 486 c 0
 1063 431 1018 386 963 386 c 2
 682 386 l 1
 685 103 l 1
 685 100 l 2
 685 45 640 0 585 0 c 0
 530 0 485 45 485 100 c 2
 482 386 l 1
 200 386 l 2
 145 386 100 431 100 486 c 0
 100 541 145 586 200 586 c 2
 480 586 l 1
 476 866 l 1
 476 869 l 2
 476 923 520 968 574 969 c 1
EndSplineSet
EndChar

StartChar: comma
Encoding: 44 44 15
Width: 505
GlyphClass: 2
Flags: HW
LayerCount: 2
Fore
SplineSet
75 139 m 0
 75 223 145 308 231 308 c 0
 264 308 295 303 321 289 c 0
 431 230 456 114 409 -37 c 0
 374 -151 313 -238 225 -296 c 0
 209 -307 190 -314 172 -314 c 0
 119 -314 77 -268 77 -214 c 0
 77 -182 95 -155 123 -136 c 0
 164 -109 193 -73 212 -28 c 1
 134 -13 75 57 75 139 c 0
EndSplineSet
EndChar

StartChar: hyphen
Encoding: 45 45 16
Width: 1162
GlyphClass: 2
Flags: HW
LayerCount: 2
Fore
SplineSet
200 674 m 6
 963 674 l 6
 1018 674 1063 629 1063 574 c 4
 1063 519 1018 474 963 474 c 6
 200 474 l 6
 145 474 100 519 100 574 c 4
 100 629 145 674 200 674 c 6
EndSplineSet
EndChar

StartChar: period
Encoding: 46 46 17
Width: 489
GlyphClass: 2
Flags: HW
LayerCount: 2
Fore
SplineSet
244 -4 m 0
 153 -4 75 69 75 161 c 0
 75 253 153 325 244 325 c 0
 335 325 414 253 414 161 c 0
 414 69 335 -4 244 -4 c 0
EndSplineSet
EndChar

StartChar: slash
Encoding: 47 47 18
Width: 1011
GlyphClass: 2
Flags: HW
LayerCount: 2
Fore
SplineSet
874 1447 m 0
 934 1420 948 1357 928 1312 c 1
 266 -19 l 1
 245 -71 184 -91 140 -71 c 0
 87 -47 59 10 85 65 c 1
 747 1396 l 1
 770 1439 822 1471 874 1447 c 0
EndSplineSet
EndChar

StartChar: zero
Encoding: 48 48 19
Width: 1200
GlyphClass: 2
Flags: HW
LayerCount: 2
Fore
SplineSet
600.5 175 m 0
 838.5 175 934.5 418 934.5 696 c 0
 934.5 956 835.5 1185 603.5 1185 c 0
 366.5 1185 265.5 953 265.5 682 c 0
 265.5 409 363.5 175 600.5 175 c 0
596.5 -25 m 0
 222.5 -25 65.5 328 65.5 680 c 0
 65.5 1038 225.5 1379 597.5 1385 c 1
 614.5 1385 l 1
 979.5 1377 1134.5 1036 1134.5 688 c 0
 1134.5 321 975.5 -25 596.5 -25 c 0
EndSplineSet
EndChar

StartChar: one
Encoding: 49 49 20
Width: 1200
GlyphClass: 2
Flags: HW
LayerCount: 2
Fore
SplineSet
415 985 m 5
 411 985 l 5
 404 984 394 983 380 983 c 4
 335 983 292 1033 292 1076 c 4
 292 1118 315 1171 364 1180 c 4
 415 1190 470 1237 521 1331 c 4
 539 1365 568 1387 604 1387 c 4
 661 1387 712 1351 712 1292 c 6
 711 186 l 1
 830 186 l 2
 877 186 911 131 911 91 c 0
 911 39 868 -4 816 -4 c 2
 384 -4 l 2
 332 -4 289 39 289 91 c 0
 289 131 323 186 370 186 c 2
 511 186 l 1
 511 1025 l 5
 482 1008 451 994 415 985 c 5
EndSplineSet
EndChar

StartChar: two
Encoding: 50 50 21
Width: 1200
GlyphClass: 2
Flags: HW
LayerCount: 2
Fore
SplineSet
214 -3 m 2
 159 -3 114 42 114 97 c 0
 114 113 118 131 126 145 c 0
 196 269 286 380 394 474 c 0
 561 620 817 708 817 957 c 0
 817 1102 709 1215 569 1215 c 0
 453 1215 362 1128 342 1035 c 0
 332 992 290 955 243 955 c 0
 188 955 143 1000 143 1053 c 0
 143 1061 144 1068 145 1075 c 0
 183 1256 346 1415 571 1415 c 0
 830 1415 1017 1215 1017 961 c 0
 1017 610 700 477 528 328 c 0
 483 288 438 242 401 197 c 1
 986 197 l 2
 1041 197 1086 152 1086 97 c 0
 1086 42 1041 -3 986 -3 c 2
 214 -3 l 2
EndSplineSet
EndChar

StartChar: three
Encoding: 51 51 22
Width: 1200
GlyphClass: 2
Flags: HW
LayerCount: 2
Fore
SplineSet
813 990 m 0
 813 1090 716 1177 603 1177 c 0
 514 1177 429 1117 408 1061 c 0
 389 1011 359 980 298 980 c 0
 254 980 207 1026 207 1069 c 0
 207 1087 211 1101 214 1111 c 0
 268 1255 409 1376 603 1376 c 0
 825 1376 1014 1209 1014 982 c 0
 1014 866 957 774 893 712 c 1
 986 648 1045 548 1045 419 c 0
 1045 164 826 -17 579 -17 c 0
 400 -17 255 83 174 195 c 0
 162 212 155 233 155 254 c 0
 155 308 207 345 260 345 c 0
 293 345 319 329 337 305 c 0
 383 245 473 184 573 184 c 0
 720 184 845 286 845 415 c 0
 845 550 751 591 584 592 c 0
 532 592 488 633 488 691 c 0
 488 764 549 797 601 797 c 0
 723 797 813 856 813 990 c 0
EndSplineSet
EndChar

StartChar: four
Encoding: 52 52 23
Width: 1200
GlyphClass: 2
Flags: HW
LayerCount: 2
Fore
SplineSet
676.5 573 m 1
 674.5 989 l 1
 330.5 575 l 1
 676.5 573 l 1
877.5 74 m 2
 877.5 21 832.5 -21 777.5 -21 c 0
 722.5 -21 677.5 21 677.5 74 c 2
 677.5 75 l 1
 676.5 371 l 1
 123.5 373 l 2
 70.5 373 23.5 417 23.5 470 c 0
 23.5 493 29.5 515 44.5 534 c 2
 695.5 1322 l 2
 714.5 1346 741.5 1359 771.5 1359 c 0
 827.5 1359 873.5 1317 873.5 1262 c 2
 876.5 573 l 1
 1075.5 572 l 1
 1076.5 572 l 2
 1131.5 572 1176.5 528 1176.5 472 c 0
 1176.5 417 1132.5 370 1076.5 370 c 2
 1074.5 370 l 1
 876.5 371 l 1
 877.5 75 l 1
 877.5 74 l 2
EndSplineSet
EndChar

StartChar: five
Encoding: 53 53 24
Width: 1200
GlyphClass: 2
Flags: HW
LayerCount: 2
Fore
SplineSet
261.5 590 m 0
 215.5 590 157.5 622 157.5 673 c 0
 157.5 685 159.5 696 160.5 701 c 2
 264.5 1293 l 2
 272.5 1342 314.5 1377 362.5 1377 c 2
 974.5 1377 l 2
 1023.5 1377 1074.5 1336 1074.5 1285 c 0
 1074.5 1226 1034.5 1177 974.5 1177 c 2
 446.5 1177 l 1
 400.5 918 l 1
 463.5 945 524.5 957 590.5 957 c 0
 871.5 957 1092.5 747 1092.5 469 c 0
 1092.5 188 866.5 -25 581.5 -25 c 0
 363.5 -25 193.5 105 117.5 258 c 0
 110.5 273 107.5 289 107.5 307 c 0
 107.5 352 154.5 395 201.5 395 c 0
 243.5 395 278.5 377 297.5 341 c 0
 345.5 250 444.5 175 582.5 175 c 0
 757.5 175 892.5 301 892.5 467 c 0
 892.5 632 763.5 755 577.5 755 c 0
 483.5 755 382.5 689 340.5 631 c 0
 322.5 605 294.5 590 261.5 590 c 0
EndSplineSet
EndChar

StartChar: six
Encoding: 54 54 25
Width: 1200
GlyphClass: 2
Flags: HW
LayerCount: 2
Fore
SplineSet
645.5 181 m 0
 809.5 181 923.5 300 923.5 460 c 0
 923.5 609 792.5 739 635.5 739 c 0
 476.5 739 348.5 608 348.5 457 c 0
 348.5 305 494.5 181 645.5 181 c 0
641.5 -18 m 0
 258.5 -18 76.5 353 76.5 713 c 0
 76.5 1067 270.5 1411 645.5 1411 c 0
 836.5 1411 981.5 1305 1056.5 1179 c 0
 1066.5 1164 1070.5 1144 1070.5 1124 c 0
 1070.5 1080 1027.5 1031 979.5 1031 c 0
 937.5 1031 902.5 1048 882.5 1080 c 0
 839.5 1151 754.5 1212 645.5 1212 c 0
 417.5 1212 301.5 1015 280.5 783 c 1
 361.5 868 488.5 937 623.5 937 c 0
 907.5 937 1123.5 728 1123.5 450 c 0
 1123.5 201 924.5 -18 641.5 -18 c 0
EndSplineSet
EndChar

StartChar: seven
Encoding: 55 55 26
Width: 1200
GlyphClass: 2
Flags: HW
LayerCount: 2
Fore
SplineSet
1011.5 1380 m 2
 1062.5 1380 1111.5 1341 1111.5 1284 c 0
 1111.5 1268 1107.5 1253 1100.5 1239 c 0
 899.5 853 731.5 454 594.5 44 c 1
 580.5 -2 541.5 -25 491.5 -25 c 0
 447.5 -25 399.5 18 399.5 62 c 0
 399.5 76 400.5 91 405.5 102 c 1
 529.5 472 677.5 832 851.5 1180 c 1
 188.5 1180 l 6
 133.5 1180 88.5 1225 88.5 1280 c 4
 88.5 1335 133.5 1380 188.5 1380 c 6
 1011.5 1380 l 2
EndSplineSet
EndChar

StartChar: eight
Encoding: 56 56 27
Width: 1200
GlyphClass: 2
Flags: HW
LayerCount: 2
Fore
SplineSet
858.5 386 m 0
 858.5 502 734.5 590 597.5 590 c 0
 462.5 590 339.5 509 339.5 386 c 0
 339.5 267 460.5 181 599.5 181 c 0
 738.5 181 858.5 267 858.5 386 c 0
383.5 996 m 0
 383.5 891 483.5 807 600.5 807 c 0
 715.5 807 815.5 881 815.5 995 c 0
 815.5 1097 709.5 1181 603.5 1181 c 0
 484.5 1181 383.5 1101 383.5 996 c 0
1015.5 984 m 0
 1015.5 871 968.5 779 877.5 707 c 1
 977.5 640 1060.5 528 1060.5 382 c 0
 1060.5 140 835.5 -19 599.5 -19 c 0
 361.5 -19 139.5 138 139.5 384 c 0
 139.5 533 222.5 643 320.5 708 c 1
 239.5 774 184.5 873 184.5 999 c 0
 184.5 1214 381.5 1380 597.5 1380 c 0
 821.5 1380 1015.5 1212 1015.5 984 c 0
EndSplineSet
EndChar

StartChar: semicolon
Encoding: 59 59 30
Width: 425
GlyphClass: 2
Flags: HW
LayerCount: 2
Fore
SplineSet
221 306 m 0
 352 306 421 205 421 95 c 0
 421 55 414 11 399 -37 c 0
 364 -150 303 -239 215 -297 c 0
 198 -308 179 -314 161 -314 c 0
 108 -314 67 -267 67 -214 c 0
 67 -182 85 -156 113 -137 c 0
 153 -110 182 -73 201 -29 c 1
 122 -13 65 55 65 137 c 0
 65 221 135 306 221 306 c 0
244 574 m 0
 153 574 75 646 75 738 c 0
 75 830 153 905 244 905 c 0
 335 905 414 830 414 738 c 0
 414 646 335 574 244 574 c 0
EndSplineSet
EndChar

StartChar: less
Encoding: 60 60 31
Width: 1227
GlyphClass: 2
Flags: HW
LayerCount: 2
Fore
SplineSet
1021 963 m 2
 1032 968 1046 970 1058 970 c 0
 1110 970 1153 927 1153 875 c 0
 1153 838 1127 799 1092 786 c 2
 423 521 l 1
 1093 244 l 2
 1127 231 1153 194 1153 156 c 0
 1153 104 1110 61 1058 61 c 0
 1046 61 1032 63 1020 68 c 2
 133 435 l 2
 99 450 75 487 75 523 c 0
 75 560 100 598 135 611 c 2
 1021 963 l 2
EndSplineSet
EndChar

StartChar: equal
Encoding: 61 61 32
Width: 1109
GlyphClass: 2
Flags: HW
LayerCount: 2
Fore
SplineSet
75 702 m 4
 75 742 110 797 156 797 c 4
 163 797 168 797 175 796 c 5
 956 796 l 6
 1004 796 1035 739 1035 702 c 4
 1035 662 1002 604 954 604 c 6
 156 604 l 6
 108 604 75 663 75 702 c 4
75 378 m 0
 75 409 100 476 148 476 c 1
 171 475 l 1
 939 475 l 1
 954 476 l 1
 1002 476 1035 417 1035 378 c 0
 1035 338 1000 283 954 283 c 2
 156 283 l 2
 110 283 75 338 75 378 c 0
EndSplineSet
EndChar

StartChar: question
Encoding: 63 63 34
Width: 949
GlyphClass: 2
Flags: HW
LayerCount: 2
Fore
SplineSet
75 958 m 0
 75 1172 253 1312 458 1312 c 0
 650 1312 802 1210 855 1058 c 0
 868 1022 874 986 874 949 c 0
 874 756 730 647 638 568 c 0
 581 519 540 487 540 413 c 0
 540 400 546 382 546 359 c 0
 546 310 506 271 456 271 c 0
 372 271 360 359 360 414 c 0
 360 647 590 728 661 843 c 0
 681 876 694 906 694 949 c 0
 694 1063 589 1132 460 1132 c 0
 344 1132 255 1066 255 957 c 0
 255 951 256 943 256 933 c 0
 256 884 216 846 166 846 c 0
 98 846 75 905 75 958 c 0
474 221 m 0
 541 221 595 167 595 100 c 0
 595 33 541 -21 474 -21 c 0
 407 -21 353 33 353 100 c 0
 353 167 407 221 474 221 c 0
EndSplineSet
EndChar

StartChar: at
Encoding: 64 64 35
Width: 1783
GlyphClass: 2
Flags: HW
LayerCount: 2
Fore
SplineSet
858 707 m 0
 739 707 640 604 640 483 c 0
 640 363 728 257 858 257 c 0
 984 257 1077 355 1079 480 c 1
 1078 606 981 707 858 707 c 0
866 56 m 0
 624 56 440 249 440 491 c 0
 440 708 631 909 846 909 c 0
 935 909 1015 886 1082 843 c 1
 1096 883 1133 911 1176 911 c 0
 1231 911 1276 866 1276 811 c 2
 1276 321 l 2
 1276 286 1320 252 1369 252 c 0
 1462 252 1506 357 1506 462 c 0
 1506 804 1210 1084 900 1084 c 0
 537 1084 273 793 273 480 c 0
 273 148 519 -137 869 -137 c 0
 940 -137 1012 -123 1088 -97 c 0
 1112 -89 1133 -83 1153 -83 c 0
 1206 -83 1233 -123 1233 -176 c 0
 1233 -228 1205 -268 1157 -286 c 0
 1060 -323 964 -341 869 -341 c 0
 407 -341 74 44 74 477 c 0
 74 884 415 1292 900 1292 c 0
 1304 1292 1658 942 1704 537 c 0
 1707 511 1708 486 1708 463 c 0
 1708 255 1590 49 1369 49 c 0
 1271 49 1192 90 1136 162 c 1
 1068 102 976 56 866 56 c 0
EndSplineSet
EndChar

StartChar: braceleft
Encoding: 123 123 36
Width: 718
GlyphClass: 2
Flags: HW
LayerCount: 2
Fore
SplineSet
427 -227 m 6
 427 -295 431 -357 489 -357 c 4
 498 -357 507 -356 517 -356 c 4
 572 -356 617 -401 617 -456 c 4
 617 -522 561 -558 489 -558 c 4
 368 -558 280 -471 248 -383 c 4
 228 -329 227 -278 227 -237 c 6
 227 -226 l 5
 229 186 l 6
 229 262 220 307 150 307 c 4
 95 307 50 352 50 407 c 4
 50 459 92 503 144 507 c 5
 201 510 222 554 223 620 c 6
 229 1084 l 6
 230 1189 257 1274 324 1330 c 4
 367 1366 419 1387 476 1387 c 4
 551 1387 618 1352 618 1281 c 4
 618 1226 573 1181 518 1181 c 4
 504 1181 490 1185 477 1185 c 4
 432 1185 430 1134 429 1081 c 6
 423 617 l 6
 422 537 401 467 361 416 c 5
 409 359 429 283 429 192 c 6
 429 185 l 5
 427 -227 l 6
EndSplineSet
EndChar

StartChar: bar
Encoding: 124 124 37
Width: 350
GlyphClass: 2
Flags: HW
LayerCount: 2
Fore
SplineSet
275 -295 m 2
 275 -341 236 -395 186 -395 c 0
 119 -395 75 -360 75 -294 c 2
 75 1211 l 2
 75 1265 118 1311 174 1311 c 2
 175 1311 l 2
 232 1311 275 1265 275 1210 c 2
 275 -295 l 2
EndSplineSet
EndChar

StartChar: asciitilde
Encoding: 126 126 39
Width: 822
GlyphClass: 2
Flags: HW
LayerCount: 2
Fore
SplineSet
623 1309 m 4
 623 1317 620 1326 620 1334 c 4
 620 1389 665 1434 720 1434 c 6
 721 1434 l 6
 787 1434 823 1378 823 1306 c 4
 823 1172 709 1060 577 1060 c 4
 437 1060 376 1158 294 1211 c 4
 277 1222 265 1228 251 1228 c 4
 222 1228 200 1206 200 1178 c 4
 200 1173 201 1167 201 1162 c 4
 201 1107 156 1062 101 1062 c 4
 39 1062 0 1113 -0 1180 c 4
 0 1313 113 1428 248 1428 c 4
 390 1428 450 1329 533 1276 c 4
 550 1265 561 1260 574 1260 c 4
 602 1260 623 1281 623 1309 c 4
EndSplineSet
EndChar

StartChar: anuswara
Encoding: 3330 3330 41
Width: 875
GlyphClass: 2
Flags: HW
LayerCount: 2
Fore
SplineSet
607 339 m 4
 607 426 532 506 440 506 c 4
 346 506 269 424 269 335 c 4
 269 247 347 168 437 168 c 4
 535 168 607 244 607 339 c 4
443 697 m 4
 643 697 796 531 796 338 c 4
 796 139 639 -23 438 -23 c 4
 247 -23 80 129 80 321 c 4
 80 531 224 697 443 697 c 4
EndSplineSet
EndChar

StartChar: ml_a
Encoding: 3333 3333 43
Width: 2704
GlyphClass: 2
Flags: HW
LayerCount: 2
Fore
SplineSet
75 499 m 0
 75 836 365 1097 700 1097 c 0
 771 1097 843 1085 911 1059 c 1
 975 1080 1042 1092 1109 1092 c 0
 1310 1092 1459 1002 1548 880 c 1
 1635 1005 1779 1093 1977 1093 c 0
 2328 1093 2629 817 2629 467 c 0
 2629 214 2447 -23 2191 -23 c 0
 1960 -23 1790 162 1790 388 c 0
 1790 629 1971 812 2207 812 c 0
 2219 812 2231 811 2243 810 c 1
 2167 862 2081 893 1978 893 c 0
 1757 893 1650 749 1650 531 c 2
 1651 75 l 1
 1650 20 1606 -24 1551 -24 c 0
 1497 -24 1452 20 1451 74 c 2
 1450 531 l 2
 1450 744 1342 878 1136 891 c 1
 1175 838 1210 769 1210 688 c 0
 1210 630 1195 584 1167 540 c 1
 1232 484 1274 396 1274 306 c 0
 1274 115 1111 -23 924 -23 c 0
 658 -23 488 213 488 468 c 4
 488 645 553 783 657 895 c 1
 457 875 275 713 275 498 c 0
 275 339 376 218 492 167 c 0
 526 153 553 112 553 75 c 0
 553 20 508 -25 453 -25 c 0
 441 -25 422 -21 411 -16 c 0
 230 64 75 251 75 499 c 0
963 415 m 0
 957 415 951 414 944 414 c 0
 889 414 844 459 844 514 c 0
 844 567 886 610 939 614 c 0
 977 616 1010 648 1010 687 c 0
 1010 749 949 809 905 839 c 1
 781 771 688 632 688 469 c 0
 688 321 775 177 924 177 c 0
 1001 177 1074 229 1074 303 c 0
 1074 365 1025 415 963 415 c 0
2412 403 m 0
 2412 523 2316 612 2206 612 c 0
 2085 612 1991 514 1991 390 c 0
 1991 272 2073 177 2191 177 c 0
 2301 177 2412 275 2412 403 c 0
EndSplineSet
EndChar

StartChar: ml_aa
Encoding: 3334 3334 44
Width: 2929
GlyphClass: 2
Flags: HW
LayerCount: 2
Fore
SplineSet
75 489 m 0
 75 827 364 1091 701 1091 c 0
 769 1091 838 1079 904 1055 c 1
 969 1078 1037 1090 1106 1090 c 0
 1309 1090 1459 999 1548 875 c 1
 1635 1000 1780 1095 1978 1095 c 0
 2254 1095 2481 924 2577 708 c 1
 2730 614 2855 444 2855 212 c 0
 2855 -126 2598 -374 2271 -374 c 0
 2121 -374 1974 -316 1864 -211 c 0
 1846 -195 1832 -162 1832 -138 c 0
 1832 -83 1877 -38 1932 -38 c 0
 1955 -38 1986 -51 2002 -67 c 0
 2073 -135 2175 -173 2275 -173 c 0
 2487 -173 2655 -7 2655 212 c 0
 2655 274 2642 322 2621 368 c 1
 2585 159 2415 -30 2185 -30 c 0
 1978 -30 1789 140 1789 366 c 0
 1789 629 2009 787 2262 793 c 5
 2183 853 2089 895 1979 895 c 0
 1757 895 1655 744 1650 524 c 1
 1651 76 l 1
 1650 21 1606 -23 1551 -23 c 0
 1497 -23 1452 22 1451 76 c 2
 1450 525 l 1
 1444 741 1341 876 1133 889 c 1
 1174 835 1209 764 1209 681 c 0
 1209 624 1195 578 1168 535 c 1
 1233 480 1275 393 1275 304 c 0
 1275 114 1113 -21 927 -21 c 0
 659 -21 489 215 489 470 c 0
 489 641 549 777 650 888 c 1
 452 865 275 703 275 489 c 0
 275 335 368 217 475 162 c 0
 506 147 531 106 531 72 c 0
 531 17 486 -28 431 -28 c 0
 417 -28 395 -22 383 -16 c 0
 217 70 75 250 75 489 c 0
967 408 m 0
 959 408 952 407 944 407 c 0
 889 407 844 452 844 507 c 0
 844 563 889 604 947 608 c 0
 981 614 1009 642 1009 680 c 0
 1009 744 945 805 900 835 c 1
 779 767 689 631 689 472 c 0
 689 324 776 179 927 179 c 0
 1002 179 1074 229 1074 301 c 0
 1074 362 1027 408 967 408 c 0
2185 170 m 0
 2329 170 2429 315 2429 464 c 0
 2429 498 2424 532 2415 566 c 1
 2372 583 2322 593 2274 593 c 0
 2126 593 1990 513 1990 368 c 4
 1990 254 2081 170 2185 170 c 0
EndSplineSet
EndChar

StartChar: ml_i
Encoding: 3335 3335 45
Width: 1984
GlyphClass: 2
Flags: HW
LayerCount: 2
Fore
SplineSet
1027 919 m 1
 1099 1017 1220 1095 1380 1095 c 0
 1686 1095 1907 825 1907 521 c 0
 1907 137 1624 -30 1240 -32 c 2
 477 -35 l 2
 415 -35 275 -35 275 -88 c 0
 275 -148 394 -148 470 -148 c 2
 1808 -149 l 1
 1809 -149 l 2
 1864 -149 1909 -194 1909 -249 c 0
 1909 -304 1864 -349 1809 -349 c 2
 1808 -349 l 1
 444 -348 l 1
 425 -348 l 2
 255 -348 75 -269 75 -89 c 0
 75 113 277 166 472 166 c 0
 506 166 539 165 570 165 c 2
 575 165 l 1
 1239 168 l 2
 1511 169 1707 254 1707 522 c 0
 1707 716 1571 895 1381 895 c 0
 1214 895 1132 771 1132 608 c 2
 1133 288 l 1
 1132 233 1088 189 1033 189 c 0
 979 189 934 233 933 287 c 2
 932 610 l 2
 931 786 823 892 640 892 c 0
 567 892 493 870 436 830 c 1
 620 828 767 684 767 499 c 0
 767 321 623 175 445 175 c 0
 245 175 91 345 91 544 c 0
 91 854 324 1092 638 1092 c 0
 812 1092 944 1021 1027 919 c 1
567 498 m 0
 567 571 509 630 436 630 c 0
 362 630 296 570 298 500 c 28
 300 421 362 375 444 375 c 0
 511 375 567 431 567 498 c 0
EndSplineSet
EndChar

StartChar: ml_u
Encoding: 3337 3337 47
Width: 1384
GlyphClass: 2
Flags: HW
LayerCount: 2
Fore
SplineSet
421 216 m 0
 211 216 82 402 82 598 c 0
 82 902 347 1098 636 1098 c 0
 983 1098 1282 834 1282 487 c 0
 1282 156 1035 -29 700 -29 c 0
 680 -29 660 -28 641 -28 c 2
 536 -26 l 1
 487 -26 l 2
 400 -26 275 -35 275 -112 c 0
 275 -188 427 -185 517 -185 c 2
 1208 -187 l 1
 1209 -187 l 2
 1264 -187 1309 -232 1309 -287 c 0
 1309 -342 1264 -387 1209 -387 c 2
 1207 -387 l 1
 516 -385 l 1
 483 -385 l 2
 281 -385 75 -320 75 -110 c 0
 75 90 281 175 473 175 c 0
 497 175 519 174 540 174 c 2
 645 172 l 2
 657 172 669 171 681 171 c 0
 911 171 1080 257 1080 484 c 0
 1080 718 876 898 639 898 c 0
 584 898 530 888 481 868 c 1
 628 834 739 702 739 542 c 0
 739 368 597 216 421 216 c 0
419 416 m 0
 486 416 539 475 539 539 c 0
 539 608 484 677 410 677 c 0
 339 677 283 622 285 553 c 24
 288 478 346 416 419 416 c 0
EndSplineSet
EndChar

StartChar: ml_r
Encoding: 3339 3339 49
Width: 1688
GlyphClass: 2
Flags: HW
LayerCount: 2
Fore
SplineSet
334 267 m 1
 202 353 75 508 75 712 c 0
 75 902 203 1094 412 1094 c 0
 585 1094 721 955 721 790 c 0
 721 617 584 479 410 479 c 0
 402 479 394 479 385 480 c 1
 485 387 677 340 850 340 c 0
 1034 340 1169 376 1284 470 c 1
 1112 476 980 608 980 783 c 0
 980 952 1109 1093 1284 1093 c 0
 1494 1093 1614 906 1614 716 c 0
 1614 505 1482 355 1347 270 c 1
 1466 211 1580 89 1580 -77 c 0
 1580 -435 1203 -497 851 -497 c 0
 498 -497 116 -432 116 -72 c 0
 116 90 220 206 334 267 c 1
407 678 m 0
 469 678 521 728 521 790 c 0
 521 847 474 894 416 894 c 0
 359 894 297 850 297 790 c 0
 297 729 347 678 407 678 c 0
1180 783 m 0
 1180 721 1230 670 1294 670 c 0
 1356 670 1402 726 1409 782 c 1
 1396 839 1355 893 1289 893 c 0
 1225 893 1180 842 1180 783 c 0
846 -324 m 0
 1073 -324 1380 -298 1380 -77 c 0
 1380 175 1111 178 850 178 c 0
 668 178 316 103 316 -71 c 0
 316 -290 619 -324 846 -324 c 0
EndSplineSet
EndChar

StartChar: ml_l
Encoding: 3340 3340 50
Width: 2096
GlyphClass: 2
Flags: HW
LayerCount: 2
Fore
SplineSet
1040 884 m 1
 1120 998 1262 1090 1444 1090 c 0
 1770 1090 2021 802 2021 479 c 0
 2021 218 1862 -17 1594 -17 c 0
 1386 -17 1231 140 1231 348 c 0
 1231 563 1398 721 1606 721 c 0
 1663 721 1719 708 1770 683 c 1
 1711 795 1584 890 1443 890 c 0
 1213 890 1141 744 1139 508 c 2
 1136 80 l 2
 1135 26 1090 -18 1036 -18 c 0
 981 -18 937 26 936 81 c 1
 937 509 l 2
 937 742 870 888 643 888 c 0
 504 888 378 792 322 680 c 1
 375 706 432 720 491 720 c 0
 700 720 866 561 866 346 c 0
 866 137 711 -19 503 -19 c 0
 234 -19 75 219 75 480 c 0
 75 800 320 1088 642 1088 c 0
 821 1088 961 997 1040 884 c 1
1431 348 m 0
 1431 254 1500 183 1593 183 c 0
 1686 183 1781 249 1781 347 c 0
 1781 447 1706 521 1605 521 c 0
 1510 521 1431 446 1431 348 c 0
666 347 m 0
 666 445 588 520 492 520 c 0
 391 520 315 446 315 345 c 0
 315 247 411 181 504 181 c 0
 597 181 666 253 666 347 c 0
EndSplineSet
EndChar

StartChar: ml_e
Encoding: 3342 3342 51
Width: 2252
GlyphClass: 2
Flags: HW
LayerCount: 2
Fore
SplineSet
1171 2 m 1
 1183 -155 1231 -267 1342 -267 c 0
 1455 -267 1491 -159 1497 -2 c 1
 1171 2 l 1
460 546 m 0
 349 546 260 456 260 357 c 0
 260 272 322 205 392 181 c 0
 427 169 456 131 456 87 c 0
 456 43 415 -3 369 -3 c 0
 355 -3 339 -2 327 3 c 0
 189 51 71 185 71 357 c 0
 71 569 243 737 460 737 c 0
 677 737 846 560 846 360 c 0
 846 304 831 245 803 191 c 1
 979 194 l 1
 980 308 l 1
 980 704 1127 1094 1541 1094 c 0
 1927 1094 2177 710 2177 310 c 0
 2177 1 2041 -260 1874 -426 c 0
 1855 -445 1832 -454 1806 -454 c 0
 1754 -454 1711 -411 1711 -359 c 0
 1711 -333 1720 -310 1739 -291 c 0
 1872 -158 1989 63 1989 308 c 0
 1989 608 1828 904 1550 904 c 0
 1258 904 1169 626 1169 307 c 2
 1169 191 l 1
 1499 188 l 1
 1502 681 l 2
 1502 732 1545 776 1597 776 c 0
 1649 776 1692 738 1692 680 c 2
 1687 8 l 2
 1685 -245 1590 -457 1348 -457 c 0
 1102 -457 994 -235 981 4 c 1
 574 4 l 2
 526 4 479 45 479 94 c 0
 479 135 497 169 533 185 c 1
 597 211 656 275 656 356 c 0
 656 463 569 546 460 546 c 0
EndSplineSet
EndChar

StartChar: ml_ee
Encoding: 3343 3343 52
Width: 2257
GlyphClass: 2
Flags: HW
LayerCount: 2
Fore
SplineSet
1208 -5 m 1
 1221 -127 1278 -207 1376 -207 c 0
 1464 -207 1506 -137 1506 -14 c 2
 1506 -6 l 1
 1208 -5 l 1
452 92 m 0
 452 41 411 -4 357 -4 c 0
 344 -4 332 0 321 4 c 0
 191 52 75 183 75 348 c 0
 75 558 247 721 468 721 c 0
 683 721 855 556 855 348 c 0
 855 292 839 237 809 186 c 1
 1015 185 l 1
 1015 431 l 2
 1015 810 1189 1090 1595 1090 c 0
 1885 1090 2130 910 2130 641 c 0
 2130 554 2083 383 2027 323 c 1
 2120 251 2183 132 2183 -8 c 0
 2183 -218 2001 -401 1791 -401 c 0
 1781 -401 1773 -400 1767 -400 c 0
 1707 -399 1678 -349 1678 -305 c 0
 1678 -260 1708 -210 1770 -210 c 0
 1900 -210 1993 -135 1993 0 c 0
 1993 109 1912 196 1818 209 c 0
 1766 216 1737 261 1737 304 c 0
 1737 342 1758 379 1800 395 c 1
 1876 419 1939 568 1939 652 c 0
 1939 807 1778 899 1601 899 c 0
 1313 899 1205 722 1205 428 c 2
 1205 185 l 1
 1503 184 l 1
 1507 705 l 2
 1507 761 1557 796 1604 796 c 0
 1661 796 1698 749 1698 695 c 0
 1697 613 1695 350 1695 206 c 0
 1695 124 1697 72 1697 0 c 0
 1697 -236 1599 -395 1374 -395 c 0
 1154 -395 1035 -214 1018 -5 c 1
 570 -3 l 2
 510 -3 477 47 477 93 c 0
 477 127 495 164 536 180 c 1
 599 202 663 263 663 345 c 0
 663 447 577 528 466 528 c 0
 352 528 264 440 264 347 c 0
 264 267 323 204 391 180 c 0
 422 168 452 135 452 92 c 0
EndSplineSet
EndChar

StartChar: ml_n
Encoding: 3346 3346 54
Width: 1376
GlyphClass: 2
Flags: HW
LayerCount: 2
Fore
SplineSet
308 612 m 1
 357 636 409 650 466 650 c 0
 664 650 818 496 818 299 c 0
 818 102 668 -48 472 -48 c 0
 213 -48 75 195 75 449 c 0
 75 830 382 1091 756 1091 c 0
 991 1091 1216 950 1216 705 c 0
 1216 642 1198 581 1164 528 c 1
 1246 471 1301 371 1301 266 c 0
 1301 99 1166 -52 983 -52 c 0
 899 -52 793 -20 793 67 c 0
 793 122 838 167 893 167 c 0
 924 167 950 149 982 149 c 0
 1051 149 1101 204 1101 266 c 0
 1101 331 1048 384 981 384 c 0
 970 384 959 381 948 381 c 0
 893 381 848 426 848 481 c 0
 848 522 880 565 920 577 c 0
 971 592 1015 641 1015 706 c 0
 1015 832 881 891 754 891 c 0
 540 891 375 767 308 612 c 1
466 450 m 4
 381 450 314 384 314 297 c 4
 314 216 395 152 473 152 c 4
 557 152 618 216 618 300 c 4
 618 384 550 450 466 450 c 4
EndSplineSet
EndChar

StartChar: k1
Encoding: 3349 3349 57
Width: 1905
GlyphClass: 2
Flags: HW
LayerCount: 2
Back
SplineSet
937.969726562 1081.56054688 m 6
 937.971679688 1081.56054688 l 6
 1007.88085938 1082.40136719 1075.17871094 1064.09179688 1134.39746094 1032.20898438 c 4
 1193.41113281 1000.43554688 1243.00683594 956.068359375 1282.13769531 905.00390625 c 4
 1328.30273438 844.760742188 1358.72363281 777.157226562 1377.34082031 707.63671875 c 5
 1400.33984375 706.381835938 1424.22460938 704.119140625 1448.97753906 699.853515625 c 4
 1504.86132812 690.22265625 1561.66699219 670.905273438 1613.41503906 637.083984375 c 4
 1665.29199219 603.177734375 1708.88867188 556.657226562 1738.43847656 500.337890625 c 4
 1767.96972656 444.053710938 1781.9140625 381.041015625 1778.98925781 317.62890625 c 4
 1774.4765625 219.78515625 1730.26464844 128.108398438 1656.50878906 63.658203125 c 4
 1582.75390625 -0.79296875 1485.97949219 -32.31640625 1388.41308594 -23.671875 c 4
 1337.32324219 -19.853515625 1295.85839844 24.8271484375 1295.85839844 76.0595703125 c 4
 1295.85839844 131.264648438 1340.66308594 176.069335938 1395.86914062 176.069335938 c 4
 1398.69042969 176.069335938 1403.2578125 175.8359375 1406.06347656 175.548828125 c 4
 1447.35253906 171.890625 1493.6953125 186.987304688 1524.90722656 214.26171875 c 4
 1556.12011719 241.536132812 1577.29296875 285.4375 1579.20214844 326.84375 c 4
 1580.46875 354.290039062 1574.06347656 383.157226562 1561.33496094 407.416015625 c 4
 1548.62597656 431.637695312 1528.25683594 453.8125 1503.99707031 469.66796875 c 4
 1479.609375 485.607421875 1448.76171875 496.943359375 1415.01074219 502.759765625 c 4
 1410.53027344 503.53125 1405.93164062 504.200195312 1401.24511719 504.80078125 c 5
 1399.15722656 392.64453125 1371.76074219 277.296875 1305.00292969 177.71484375 c 4
 1265.8125 119.252929688 1213.94824219 68.052734375 1150.70800781 31.240234375 c 4
 1087.23046875 -5.7119140625 1013.96679688 -27.01171875 937.766601562 -26.07421875 c 4
 862.4921875 -25.1494140625 790.625976562 -2.6005859375 728.596679688 35 c 4
 695.137695312 55.2822265625 665.126953125 79.716796875 638.489257812 106.99609375 c 5
 631.80078125 98.40625 624.780273438 90.0283203125 617.231445312 82.029296875 c 4
 544.857421875 5.3271484375 441.646484375 -34.068359375 336.571289062 -25.09765625 c 4
 249.788085938 -17.6884765625 168.889648438 22.1533203125 110.409179688 87.40234375 c 4
 51.8466796875 152.7421875 20.689453125 238.163085938 24.3212890625 326.3515625 c 4
 27.30078125 398.681640625 53.3427734375 466.009765625 94.2392578125 521.66796875 c 4
 134.913085938 577.021484375 188.380859375 618.541992188 246.272460938 647.1796875 c 4
 334.157226562 690.653320312 424.795898438 701.920898438 508.397460938 705.01953125 c 5
 526.432617188 773.893554688 555.975585938 841.024414062 600.987304688 901.154296875 c 4
 639.032226562 951.974609375 687.333007812 996.438476562 745.030273438 1028.8125 c 4
 802.924804688 1061.29589844 868.944335938 1080.72949219 937.969726562 1081.56054688 c 6
940.375976562 881.576171875 m 4
 907.952148438 881.185546875 873.482421875 871.5546875 842.895507812 854.392578125 c 4
 812.112304688 837.119140625 783.852539062 811.698242188 761.094726562 781.298828125 c 4
 744.466796875 759.084960938 730.66796875 733.946289062 719.567382812 706.814453125 c 5
 1165.99316406 708.552734375 l 5
 1154.58789062 735.858398438 1140.42675781 761.116210938 1123.38671875 783.353515625 c 4
 1100.0234375 813.83984375 1071.03515625 839.177734375 1039.58300781 856.111328125 c 4
 1008.33691406 872.93359375 973.204101562 881.970703125 940.375976562 881.576171875 c 4
1201.22753906 508.689453125 m 5
 685.374023438 506.6796875 l 5
 686.331054688 467.610351562 691.504882812 429.28515625 701.184570312 393.3359375 c 4
 703.259765625 388.255859375 705.783203125 379.759765625 706.817382812 374.37109375 c 4
 716.458984375 344.415039062 729.328125 316.375 745.690429688 291.35546875 c 4
 768.68359375 256.19921875 798.724609375 226.364257812 832.268554688 206.03125 c 4
 865.583984375 185.8359375 904.014648438 174.356445312 940.223632812 173.912109375 c 4
 976.864257812 173.4609375 1016.04003906 184.266601562 1050.08886719 204.087890625 c 4
 1084.37695312 224.046875 1115.23046875 253.805664062 1138.87597656 289.080078125 c 4
 1179.30859375 349.393554688 1199.48242188 427.571289062 1201.22753906 508.689453125 c 5
485.356445312 502.7421875 m 5
 427.901367188 498.255859375 376.588867188 488.51171875 334.948242188 467.9140625 c 4
 302.448242188 451.836914062 274.448242188 429.153320312 255.407226562 403.240234375 c 4
 236.58984375 377.629882812 225.321289062 346.552734375 224.149414062 318.12109375 c 4
 222.755859375 284.272460938 236.384765625 246.501953125 259.340820312 220.888671875 c 4
 282.379882812 195.182617188 318.670898438 177.158203125 353.583007812 174.177734375 c 4
 395.19140625 170.625 443.10546875 188.9140625 471.764648438 219.287109375 c 4
 498.20703125 247.310546875 513.384765625 291.08984375 510.899414062 330.16015625 c 5
 494.442382812 386.844726562 486.556640625 445.196289062 485.356445312 502.7421875 c 5
EndSplineSet
Fore
SplineSet
418 -16 m 0
 230 -16 75 136 75 324 c 0
 75 585 315 708 559 717 c 1
 608 907 755 1096 994 1096 c 0
 1233 1096 1379 909 1429 720 c 1
 1648 708 1830 577 1830 345 c 0
 1830 148 1668 -17 1468 -17 c 0
 1399 -17 1347 19 1347 84 c 0
 1347 152 1400 183 1467 183 c 0
 1557 183 1630 257 1630 345 c 0
 1630 450 1547 505 1452 517 c 1
 1447 248 1282 -16 994 -16 c 0
 868 -16 759 46 690 117 c 1
 627 36 525 -16 418 -16 c 0
1218 721 m 1
 1183 807 1108 896 993 896 c 0
 878 896 805 805 770 719 c 1
 1218 721 l 1
1252 521 m 1
 736 519 l 1
 740 351 825 184 993 184 c 0
 1163 184 1249 356 1252 521 c 1
415 184 m 0
 496 184 562 249 562 332 c 0
 562 394 537 454 536 515 c 1
 409 505 275 456 275 325 c 0
 275 248 338 184 415 184 c 0
EndSplineSet
EndChar

StartChar: k2
Encoding: 3350 3350 58
Width: 1736
GlyphClass: 2
Flags: HW
LayerCount: 2
Fore
SplineSet
1461 1001 m 2
 1461 1056 1506 1101 1561 1101 c 0
 1616 1101 1661 1056 1661 1001 c 2
 1661 999 l 1
 1657 100 l 6
 1657 45 1612 0 1557 0 c 6
 908 1 l 6
 853 1 808 48 808 103 c 0
 808 134 829 172 856 188 c 0
 957 249 1039 358 1039 512 c 0
 1039 725 873 894 663 894 c 0
 472 894 338 762 293 610 c 1
 342 642 413 666 482 666 c 0
 672 666 826 512 826 323 c 0
 826 138 675 -15 490 -15 c 0
 231 -15 75 234 75 491 c 0
 75 821 323 1094 662 1094 c 0
 984 1094 1239 839 1239 512 c 0
 1239 397 1199 280 1149 201 c 5
 1458 200 l 5
 1461 1000 l 1
 1461 1001 l 2
626 323 m 0
 626 401 561 466 482 466 c 0
 399 466 335 403 335 320 c 0
 335 239 422 185 490 185 c 0
 564 185 626 249 626 323 c 0
EndSplineSet
EndChar

StartChar: k3
Encoding: 3351 3351 59
Width: 1829
GlyphClass: 2
Flags: HW
LayerCount: 2
Fore
SplineSet
582 -15 m 4
 294 -15 75 238 75 526 c 4
 75 795 248 999 449 1080 c 4
 460 1084 476 1088 488 1088 c 4
 543 1088 588 1043 588 988 c 4
 588 950 559 909 524 895 c 4
 391 841 275 705 275 526 c 4
 275 347 406 185 581 185 c 4
 752 185 801 311 801 486 c 6
 801 586 l 6
 801 880 947 1094 1238 1094 c 4
 1528 1094 1754 831 1754 546 c 4
 1754 286 1539 -19 1281 -19 c 4
 1226 -19 1181 26 1181 81 c 4
 1181 126 1216 170 1260 179 c 4
 1417 215 1554 359 1554 546 c 4
 1554 726 1417 894 1236 894 c 4
 1059 894 1001 764 1001 582 c 6
 1001 482 l 6
 1001 197 866 -15 582 -15 c 4
EndSplineSet
EndChar

StartChar: k4
Encoding: 3352 3352 60
Width: 2352
GlyphClass: 2
Flags: HW
LayerCount: 2
Fore
SplineSet
467 867 m 0
 360 867 275 782 275 675 c 0
 275 588 329 523 391 496 c 0
 425 482 452 441 452 404 c 0
 452 349 407 304 352 304 c 0
 340 304 321 308 310 313 c 0
 184 369 75 499 75 674 c 0
 75 896 247 1068 469 1068 c 0
 692 1068 863 895 863 674 c 4
 863 613 848 553 821 498 c 1
 980 499 l 1
 981 596 l 1
 982 919 1133 1097 1454 1097 c 2
 1455 1097 l 2
 1770 1097 1932 893 1932 574 c 2
 1932 552 l 1
 1928 403 l 2
 1927 349 1883 305 1829 305 c 2
 1180 300 l 1
 1180 202 l 1
 2077 202 l 1
 2078 991 l 1
 2078 993 l 2
 2078 1048 2123 1093 2178 1093 c 0
 2233 1093 2278 1048 2278 993 c 2
 2278 991 l 1
 2277 102 l 2
 2277 47 2232 2 2177 2 c 2
 1080 2 l 2
 1025 2 980 47 980 102 c 2
 980 299 l 1
 566 296 l 1
 565 296 l 2
 510 296 465 341 465 396 c 0
 465 435 495 478 532 491 c 0
 602 515 662 581 662 675 c 0
 662 784 577 867 467 867 c 0
1181 596 m 1
 1180 500 l 1
 1731 504 l 1
 1732 556 l 1
 1732 576 l 2
 1732 778 1657 897 1455 897 c 0
 1248 897 1181 807 1181 596 c 1
EndSplineSet
EndChar

StartChar: ng
Encoding: 3353 3353 61
Width: 2056
GlyphClass: 2
Flags: HW
LayerCount: 2
Fore
SplineSet
658 1091 m 0
 845 1091 994 993 1076 873 c 1
 1162 998 1309 1091 1507 1091 c 0
 1731 1091 1981 903 1981 694 c 4
 1981 626 1940 555 1877 488 c 1
 1925 442 1980 367 1980 281 c 0
 1980 104 1825 -20 1650 -20 c 0
 1553 -20 1406 16 1406 118 c 0
 1406 173 1451 218 1506 218 c 0
 1521 218 1542 212 1555 205 c 0
 1582 190 1618 181 1652 181 c 0
 1719 181 1779 222 1779 283 c 0
 1779 365 1690 379 1599 380 c 2
 1540 381 l 2
 1485 382 1441 426 1441 481 c 0
 1441 534 1484 578 1536 581 c 2
 1605 584 l 2
 1698 588 1781 617 1781 709 c 0
 1781 837 1631 896 1504 896 c 0
 1254 896 1178 722 1178 469 c 1
 1180 77 l 1
 1180 76 l 2
 1180 21 1135 -23 1080 -23 c 0
 1026 -23 981 21 980 75 c 2
 977 486 l 2
 975 732 901 890 659 890 c 0
 520 890 396 803 334 697 c 1
 389 722 443 734 495 734 c 0
 696 734 872 568 872 353 c 0
 872 142 709 -13 502 -13 c 0
 237 -13 75 221 75 479 c 0
 75 805 330 1091 658 1091 c 0
672 352 m 0
 672 454 595 532 495 532 c 0
 399 532 314 458 314 358 c 0
 314 258 404 186 501 186 c 0
 595 186 672 255 672 352 c 0
EndSplineSet
EndChar

StartChar: ch1
Encoding: 3354 3354 62
Width: 1559
GlyphClass: 2
Flags: HW
LayerCount: 2
Fore
SplineSet
1284 995 m 2
 1284 1050 1329 1095 1384 1095 c 0
 1439 1095 1484 1050 1484 995 c 2
 1484 102 l 2
 1484 47 1439 2 1384 2 c 0
 973 1 561 1 150 0 c 0
 95 0 50 45 50 100 c 0
 50 154 95 200 151 200 c 26
 710 202 l 2
 812 202 898 302 898 414 c 0
 898 517 820 608 717 608 c 0
 632 608 561 539 561 448 c 0
 561 408 584 378 584 341 c 0
 584 286 539 241 484 241 c 0
 392 241 360 362 360 449 c 0
 360 656 525 808 720 808 c 0
 931 808 1098 623 1098 415 c 0
 1098 333 1077 266 1039 203 c 1
 1284 202 l 1
 1284 995 l 2
EndSplineSet
EndChar

StartChar: ch2
Encoding: 3355 3355 63
Width: 2515
GlyphClass: 2
Flags: HW
LayerCount: 2
Fore
SplineSet
1213 485 m 0
 1213 818 1482 1095 1818 1095 c 0
 2164 1095 2441 817 2441 468 c 0
 2441 218 2270 -8 2013 -8 c 0
 1766 -8 1597 205 1597 447 c 0
 1597 635 1706 807 1847 894 c 1
 1836 895 1826 895 1816 895 c 0
 1590 895 1413 706 1413 487 c 0
 1413 371 1466 251 1553 174 c 0
 1572 158 1587 124 1587 99 c 0
 1587 44 1542 -1 1487 -1 c 2
 1486 -1 l 1
 150 0 l 2
 95 0 50 48 50 103 c 0
 50 158 95 203 150 203 c 2
 686 203 l 2
 801 203 898 288 898 420 c 0
 898 521 819 613 720 613 c 0
 638 613 560 543 560 454 c 0
 560 418 584 382 584 346 c 0
 584 291 539 246 484 246 c 0
 392 246 360 367 360 454 c 0
 360 662 523 813 719 813 c 0
 931 813 1097 629 1097 420 c 0
 1097 344 1077 268 1035 201 c 1
 1284 200 l 1
 1236 292 1213 390 1213 485 c 0
2012 192 m 0
 2152 192 2241 328 2241 465 c 0
 2241 586 2178 705 2112 772 c 1
 1939 765 1798 622 1798 444 c 0
 1798 317 1884 192 2012 192 c 0
EndSplineSet
EndChar

StartChar: ch3
Encoding: 3356 3356 64
Width: 1540
GlyphClass: 2
Flags: HW
LayerCount: 2
Fore
SplineSet
786 964 m 1
 847 1032 938 1095 1049 1095 c 0
 1280 1095 1455 907 1455 679 c 0
 1455 573 1413 474 1349 397 c 1
 1411 356 1465 277 1465 185 c 0
 1465 45 1354 -67 1213 -67 c 0
 1078 -67 973 45 962 172 c 1
 799 82 617 -64 374 -64 c 0
 226 -64 84 27 84 183 c 0
 84 338 219 418 370 418 c 0
 521 418 673 383 809 383 c 0
 1026 383 1255 473 1255 679 c 0
 1255 795 1166 899 1048 899 c 0
 922 899 886 822 884 693 c 2
 882 537 l 1
 880 483 841 440 787 440 c 0
 732 440 692 485 692 540 c 2
 693 708 l 2
 694 845 623 896 517 895 c 1
 598 868 619 776 619 691 c 0
 619 538 511 437 359 437 c 0
 195 437 75 557 75 715 c 0
 75 942 260 1095 483 1095 c 0
 607 1095 719 1032 786 964 c 1
439 700 m 0
 439 745 382 790 337 790 c 0
 305 790 249 741 249 706 c 0
 249 655 303 619 353 619 c 0
 391 619 439 660 439 700 c 0
1279 186 m 0
 1279 222 1244 254 1210 254 c 0
 1183 254 1144 216 1144 186 c 0
 1144 155 1180 121 1210 121 c 0
 1239 121 1279 158 1279 186 c 0
717 228 m 1
 378 243 l 1
 346 243 281 226 281 186 c 0
 281 130 336 112 378 112 c 0
 462 112 646 192 717 228 c 1
EndSplineSet
EndChar

StartChar: ch4
Encoding: 3357 3357 65
Width: 3131
GlyphClass: 2
Flags: HW
LayerCount: 2
Back
SplineSet
1959.50488281 1434 m 4
 2013.23828125 1434 2057.50878906 1389.8203125 2059.4453125 1337.70507812 c 5
 2059.4453125 1337.6328125 l 5
 2062.74707031 1196.54296875 2066.04394531 1055.44726562 2069.34375 914.35546875 c 4
 2070.14648438 880.0625 2071.14160156 843.954101562 2070.62597656 806.685546875 c 5
 2080.78125 742.41015625 2108.96484375 680.078125 2151.26367188 632.30859375 c 4
 2213.13769531 562.434570312 2309.58398438 518.71875 2402.9140625 518.244140625 c 4
 2495.41503906 517.774414062 2591.46289062 559.453125 2655.24707031 627.33984375 c 4
 2795.70117188 776.830078125 2773.25488281 1016.57226562 2627.26367188 1144.10546875 c 4
 2554.87402344 1207.34375 2452.37304688 1240.68945312 2356.63085938 1232.1484375 c 4
 2353.79882812 1231.85546875 2349.18847656 1231.61816406 2346.34082031 1231.61816406 c 4
 2291.13476562 1231.61816406 2246.33105469 1276.421875 2246.33105469 1331.62792969 c 4
 2246.33105469 1382.84765625 2287.78417969 1427.52636719 2338.859375 1431.35742188 c 4
 2490.91015625 1444.921875 2643.87695312 1395.15722656 2758.84277344 1294.7265625 c 4
 2873.80761719 1194.29589844 2943.671875 1049.40234375 2950.65625 896.908203125 c 4
 2957.49121094 747.73828125 2903.69921875 599.6953125 2801.00195312 490.392578125 c 5
 2801.00195312 490.392578125 l 5
 2698.18554688 380.962890625 2552.69726562 317.481445312 2401.89648438 318.248046875 c 4
 2248.78125 319.026367188 2101.27441406 386.2890625 2000.39257812 501.076171875 c 5
 1951.91894531 415.969726562 1868.82226562 341.563476562 1759.62695312 323.146484375 c 4
 1608.48535156 297.654296875 1488.55859375 386.981445312 1429.1796875 477.4765625 c 4
 1372.84375 563.3359375 1355.68847656 665.139648438 1348.46484375 785.453125 c 6
 1343.77148438 863.646484375 l 6
 1331.29199219 1071.59179688 1264.36230469 1200.79296875 1071.359375 1226.30078125 c 4
 1051.51171875 1228.92382812 1031.34863281 1229.88671875 1011.1171875 1229.42578125 c 5
 1109.11914062 1122.34570312 1169.64648438 982.986328125 1181.046875 837.28125 c 4
 1190.00683594 722.78125 1169.19628906 599.779296875 1099.18554688 496.111328125 c 4
 1035.85644531 402.336914062 920.551757812 313.96484375 770.1015625 317.65625 c 4
 621.901367188 321.29296875 509.302734375 414.001953125 449.61328125 512.775390625 c 4
 384.791992188 620.043945312 370.159179688 744.108398438 384.609375 858.162109375 c 4
 402.228515625 997.220703125 463.8359375 1128.8828125 560.091796875 1230.8515625 c 5
 404.913085938 1231.72363281 286.793945312 1147.39648438 225.171875 1045.10546875 c 4
 152.552734375 924.560546875 152.83984375 769.442382812 225.61328125 649.244140625 c 4
 261.301757812 590.30078125 314.266601562 540.489257812 375.287109375 508.482421875 c 4
 405.532226562 493.150390625 430.078125 453.1875 430.078125 419.279296875 c 4
 430.078125 364.073242188 385.274414062 319.26953125 330.068359375 319.26953125 c 4
 316.061523438 319.26953125 294.700195312 324.689453125 282.38671875 331.3671875 c 4
 114.383789062 419.487304688 -29.4697265625 605.764648438 -29.73828125 846.890625 c 4
 -30.0048828125 1088.02832031 113.715820312 1274.75976562 281.240234375 1363.10546875 c 4
 436.611328125 1445.04101562 624.077148438 1452.49121094 787.9375 1385.4609375 c 5
 954.094726562 1451.26464844 1143.74804688 1441.54882812 1284.29296875 1365.21484375 c 4
 1398.54394531 1303.16308594 1486.75683594 1189.94238281 1520.77734375 1052.63085938 c 4
 1536.39746094 989.590820312 1540.1640625 929.747070312 1543.41210938 875.62890625 c 6
 1548.10546875 797.435546875 l 6
 1555.40234375 675.880859375 1572.84277344 573.780273438 1656.4765625 531.875 c 4
 1754.22851562 482.897460938 1823.88574219 575.063476562 1848.47070312 650.107421875 c 4
 1862.69238281 693.513671875 1868.13476562 743.20703125 1869.76757812 797.39453125 c 5
 1865.5703125 834.76953125 1865.27539062 872.676757812 1869.06835938 910.51171875 c 5
 1859.49804688 1333.03125 l 5
 1859.49804688 1333.10351562 l 6
 1859.49609375 1333.34863281 1859.49414062 1333.74511719 1859.49414062 1333.99023438 c 4
 1859.49414062 1389.1953125 1904.29882812 1434 1959.50488281 1434 c 4
786.334960938 1160.69921875 m 5
 678.139648438 1091.78027344 599.833984375 965.674804688 583.025390625 833.0234375 c 4
 567.353515625 709.32421875 609.634765625 595.481445312 689.051757812 544.857421875 c 4
 742.388671875 510.85546875 805.0390625 508.095703125 861.947265625 540.4765625 c 4
 944.8203125 587.630859375 991.235351562 699.28125 981.659179688 821.677734375 c 4
 971.208007812 955.243164062 895.782226562 1086.89746094 786.334960938 1160.69921875 c 5
EndSplineSet
Fore
SplineSet
1116 893 m 1
 1224 776 1288 628 1288 451 c 0
 1288 212 1136 -19 884 -19 c 0
 636 -19 484 203 484 442 c 0
 484 631 554 776 665 894 c 1
 664 894 663 894 662 894 c 0
 442 894 276 729 276 511 c 0
 276 353 370 230 480 172 c 0
 510 157 535 117 535 83 c 0
 535 28 490 -17 435 -17 c 0
 421 -17 399 -12 387 -5 c 0
 219 83 75 269 75 511 c 0
 75 842 330 1094 662 1094 c 0
 740 1094 819 1079 893 1049 c 1
 967 1078 1046 1092 1123 1092 c 0
 1464 1092 1628 866 1648 539 c 2
 1653 461 l 2
 1661 331 1684 181 1815 181 c 0
 1934 181 1973 337 1970 461 c 1
 1970 997 l 2
 1970 1052 2009 1097 2064 1097 c 0
 2118 1097 2162 1053 2164 1001 c 2
 2175 470 l 2
 2178 308 2340 182 2509 182 c 0
 2698 182 2854 344 2854 532 c 0
 2854 728 2696 897 2491 897 c 0
 2477 897 2464 895 2451 895 c 0
 2396 895 2351 940 2351 995 c 0
 2351 1070 2414 1097 2493 1097 c 0
 2804 1097 3056 841 3056 535 c 0
 3056 234 2807 -18 2509 -18 c 0
 2354 -18 2206 49 2105 164 c 1
 2051 69 1954 -18 1812 -18 c 0
 1560 -18 1467 212 1453 449 c 1
 1449 527 l 1
 1436 753 1355 893 1116 893 c 1
891 824 m 1
 773 749 685 610 685 446 c 0
 685 316 752 181 884 181 c 0
 1019 181 1088 321 1088 453 c 0
 1088 607 1007 746 891 824 c 1
EndSplineSet
EndChar

StartChar: nj
Encoding: 3358 3358 66
Width: 2527
GlyphClass: 2
Flags: HW
LayerCount: 2
Fore
SplineSet
1044 901 m 1
 1123 1013 1255 1095 1433 1095 c 0
 1520 1095 1591 1078 1663 1047 c 1
 1734 1078 1810 1095 1889 1095 c 0
 2208 1095 2453 822 2453 505 c 0
 2453 305 2357 118 2200 0 c 0
 2185 -11 2158 -21 2139 -21 c 0
 2084 -21 2039 24 2039 79 c 0
 2039 107 2057 143 2080 160 c 0
 2185 238 2253 372 2253 505 c 0
 2253 711 2097 895 1892 895 c 0
 1887 895 1882 895 1877 895 c 1
 1989 772 2057 622 2057 428 c 0
 2057 196 1911 -24 1671 -24 c 0
 1425 -24 1285 202 1285 437 c 0
 1285 618 1345 770 1455 894 c 1
 1446 895 1436 895 1427 895 c 0
 1217 895 1150 739 1150 523 c 2
 1151 77 l 1
 1150 22 1106 -22 1051 -22 c 0
 997 -22 952 22 951 76 c 2
 949 516 l 2
 948 740 863 891 644 891 c 0
 476 891 359 779 308 655 c 1
 362 686 419 704 489 704 c 0
 688 704 849 542 849 345 c 0
 849 149 688 -11 495 -11 c 0
 222 -11 75 230 75 488 c 0
 75 823 311 1091 645 1091 c 0
 821 1091 961 1008 1044 901 c 1
1857 430 m 0
 1857 599 1775 738 1665 817 c 1
 1558 738 1486 597 1486 439 c 0
 1486 312 1545 176 1671 176 c 0
 1796 176 1857 305 1857 430 c 0
649 346 m 0
 649 433 576 504 487 504 c 0
 400 504 328 431 328 344 c 0
 328 253 405 189 495 189 c 0
 580 189 649 260 649 346 c 0
EndSplineSet
EndChar

StartChar: t1
Encoding: 3359 3359 67
Width: 1134
GlyphClass: 2
Flags: HW
HStem: -22 192<367.176 800.23> 453 193<327.829 820.376> 904 192<346.963 741.963>
VStem: 88 190<690.368 843.877> 871 189<231.928 404.388>
LayerCount: 2
Fore
SplineSet
1060 318 m 0
 1060 75 815 -22 589 -22 c 0
 388 -22 224 43 102 174 c 1
 84 191 75 215 75 240 c 0
 75 294 119 333 171 333 c 0
 198 333 222 322 240 303 c 0
 325 215 439 170 590 170 c 0
 744 170 871 217 871 320 c 0
 871 425 752 453 574 453 c 4
 296 454 88 536 88 772 c 0
 88 975 309 1096 549 1096 c 0
 741 1096 892 1029 996 892 c 0
 1009 874 1016 854 1016 831 c 0
 1016 778 969 740 918 740 c 0
 890 740 864 752 845 776 c 0
 779 860 682 904 543 904 c 0
 401 904 278 847 278 770 c 0
 278 671 405 648 561 646 c 4
 838 642 1060 566 1060 318 c 0
EndSplineSet
EndChar

StartChar: t2
Encoding: 3360 3360 68
Width: 1265
GlyphClass: 2
Flags: HW
LayerCount: 2
Fore
SplineSet
633 1095 m 0
 938 1095 1191 842 1191 538 c 0
 1191 234 937 -19 633 -19 c 0
 329 -19 75 233 75 538 c 0
 75 844 328 1095 633 1095 c 0
632 895 m 0
 438 895 275 733 275 539 c 0
 275 344 438 181 632 181 c 0
 827 181 991 344 991 539 c 0
 991 733 827 895 632 895 c 0
EndSplineSet
EndChar

StartChar: t4
Encoding: 3362 3362 70
Width: 2613
GlyphClass: 2
Flags: HW
LayerCount: 2
Fore
SplineSet
1720 708 m 4
 1720 918 1889 1094 2107 1094 c 4
 2377 1094 2538 861 2538 599 c 4
 2538 216 2252 -26 1868 -26 c 4
 1706 -26 1586 33 1504 131 c 5
 1447 52 1347 -21 1221 -21 c 4
 998 -21 864 181 864 389 c 4
 864 480 883 553 883 610 c 4
 883 763 750 887 594 887 c 4
 416 887 275 729 275 546 c 4
 275 350 427 198 605 178 c 4
 655 173 695 129 695 79 c 4
 695 24 650 -21 595 -21 c 6
 582 -21 l 5
 307 11 75 244 75 547 c 4
 75 840 306 1087 595 1087 c 4
 865 1087 1083 871 1083 602 c 4
 1083 514 1064 443 1064 387 c 4
 1064 286 1118 179 1220 179 c 4
 1372 179 1396 358 1398 516 c 6
 1404 996 l 6
 1405 1050 1450 1094 1504 1094 c 4
 1559 1094 1604 1049 1604 994 c 6
 1598 506 l 5
 1598 310 1673 174 1868 174 c 4
 2053 174 2202 251 2275 367 c 5
 2222 340 2169 325 2102 325 c 4
 1894 325 1720 500 1720 708 c 4
2103 525 m 4
 2201 525 2282 608 2282 706 c 4
 2282 840 2193 892 2087 893 c 28
 1991 894 1920 805 1920 710 c 4
 1920 609 2002 525 2103 525 c 4
EndSplineSet
EndChar

StartChar: nh
Encoding: 3363 3363 71
Width: 2774
GlyphClass: 2
Flags: HW
LayerCount: 2
Fore
SplineSet
647 1098 m 0
 829 1098 973 1003 1055 889 c 1
 1120 993 1241 1093 1401 1093 c 0
 1560 1093 1679 995 1744 890 c 1
 1826 1003 1962 1091 2145 1091 c 0
 2449 1091 2699 844 2699 536 c 0
 2699 231 2453 -18 2144 -18 c 0
 2122 -18 2099 -17 2077 -14 c 0
 2028 -9 1988 35 1988 85 c 0
 1988 140 2033 185 2088 185 c 0
 2106 185 2124 182 2142 182 c 0
 2340 182 2499 340 2499 534 c 0
 2499 732 2340 891 2146 891 c 0
 1906 891 1836 704 1837 458 c 2
 1839 79 l 2
 1839 24 1794 -20 1739 -20 c 0
 1685 -20 1640 24 1639 78 c 2
 1636 453 l 2
 1634 657 1601 893 1402 893 c 0
 1215 893 1163 689 1164 496 c 2
 1167 79 l 2
 1167 24 1122 -20 1067 -20 c 0
 1013 -20 968 24 967 78 c 2
 964 495 l 2
 963 719 872 898 648 898 c 0
 471 898 297 716 291 560 c 1
 347 636 422 668 496 668 c 0
 687 668 839 518 839 325 c 0
 839 130 691 -15 496 -15 c 0
 229 -15 75 215 75 477 c 0
 75 804 319 1098 647 1098 c 0
498 468 m 0
 417 468 353 406 353 325 c 0
 353 242 410 185 495 185 c 0
 578 185 639 244 639 327 c 0
 639 405 576 468 498 468 c 0
EndSplineSet
EndChar

StartChar: th1
Encoding: 3364 3364 72
Width: 1803
GlyphClass: 2
Flags: HW
LayerCount: 2
Fore
SplineSet
898 1042 m 1
 976 1076 1059 1094 1145 1094 c 0
 1472 1094 1728 852 1728 520 c 0
 1728 258 1565 70 1374 -9 c 0
 1364 -13 1346 -17 1335 -17 c 0
 1280 -17 1235 28 1235 83 c 0
 1235 121 1263 162 1298 176 c 0
 1422 227 1528 349 1528 519 c 0
 1528 737 1361 894 1147 894 c 0
 1135 894 1122 893 1110 892 c 1
 1216 780 1293 627 1293 433 c 0
 1293 199 1144 -18 903 -18 c 0
 658 -18 509 203 509 438 c 0
 509 627 583 779 686 891 c 1
 675 892 664 892 653 892 c 0
 440 892 275 737 275 521 c 0
 275 348 384 225 513 176 c 0
 549 163 579 121 579 82 c 0
 579 27 534 -18 479 -18 c 0
 469 -18 453 -15 443 -11 c 0
 244 64 75 255 75 521 c 0
 75 852 328 1092 654 1092 c 0
 738 1092 821 1075 898 1042 c 1
899 813 m 1
 795 738 709 606 709 440 c 0
 709 312 775 182 903 182 c 0
 1028 182 1092 309 1092 435 c 0
 1092 606 1005 737 899 813 c 1
EndSplineSet
EndChar

StartChar: th2
Encoding: 3365 3365 73
Width: 1609
GlyphClass: 2
Flags: HW
LayerCount: 2
Fore
SplineSet
175 1101 m 4
 231 1101 275 1056 275 1000 c 2
 280 201 l 1
 546 201 l 1
 544 496 l 2
 541 848 690 1098 1040 1098 c 0
 1379 1098 1534 850 1534 507 c 2
 1533 100 l 2
 1533 45 1488 0 1433 0 c 2
 180 1 l 2
 125 1 80 45 80 100 c 2
 75 999 l 2
 75 1054 118 1101 175 1101 c 4
1041 898 m 0
 809 898 742 735 744 498 c 2
 746 200 l 1
 1333 200 l 1
 1334 508 l 2
 1334 736 1264 898 1041 898 c 0
EndSplineSet
EndChar

StartChar: th3
Encoding: 3366 3366 74
Width: 1215
GlyphClass: 2
Flags: HW
LayerCount: 2
Fore
SplineSet
686 897 m 0
 437 897 277 668 277 439 c 0
 277 337 308 232 377 142 c 0
 389 127 399 99 399 80 c 0
 399 25 354 -20 299 -20 c 0
 271 -20 235 -2 218 20 c 0
 125 142 76 293 76 444 c 0
 76 801 336 1098 690 1098 c 0
 906 1098 1107 955 1107 729 c 0
 1107 653 1082 579 1033 520 c 1
 1093 472 1141 391 1141 291 c 0
 1141 115 989 -26 818 -26 c 0
 740 -26 590 15 590 115 c 0
 590 170 635 215 690 215 c 0
 707 215 733 208 747 198 c 0
 769 183 794 176 818 176 c 0
 882 176 941 225 941 290 c 0
 941 380 869 395 774 395 c 0
 699 395 644 421 644 495 c 0
 644 542 681 589 728 593 c 0
 844 602 906 629 906 731 c 0
 906 839 794 897 686 897 c 0
EndSplineSet
EndChar

StartChar: th4
Encoding: 3367 3367 75
Width: 1920
GlyphClass: 2
Flags: HW
LayerCount: 2
Fore
SplineSet
1328 -21 m 4
 1165 -21 1028 65 953 168 c 5
 878 64 747 -22 579 -22 c 4
 287 -22 75 224 75 507 c 4
 75 805 315 1089 607 1089 c 4
 662 1089 707 1044 707 989 c 4
 707 939 667 894 617 889 c 4
 433 867 276 716 276 510 c 4
 276 332 397 178 579 178 c 4
 797 178 851 320 852 540 c 6
 854 990 l 6
 855 1044 900 1089 954 1089 c 4
 1009 1089 1053 1045 1054 990 c 5
 1054 533 l 6
 1054 316 1113 180 1327 180 c 4
 1502 180 1645 335 1645 512 c 4
 1645 716 1482 887 1275 889 c 4
 1220 889 1175 934 1175 989 c 4
 1175 1044 1220 1089 1275 1089 c 4
 1589 1089 1846 836 1846 517 c 4
 1846 224 1612 -21 1328 -21 c 4
EndSplineSet
EndChar

StartChar: n1
Encoding: 3368 3368 76
Width: 1920
GlyphClass: 2
Flags: HW
LayerCount: 2
Fore
SplineSet
593 1093 m 4
 756 1093 892 1007 967 904 c 5
 1042 1008 1173 1094 1341 1094 c 4
 1633 1094 1846 848 1846 565 c 4
 1846 267 1606 -17 1314 -17 c 4
 1259 -17 1214 28 1214 83 c 4
 1214 133 1253 178 1303 183 c 4
 1487 205 1645 356 1645 562 c 4
 1645 740 1524 894 1342 894 c 4
 1124 894 1070 752 1069 532 c 6
 1067 82 l 6
 1066 28 1021 -17 967 -17 c 4
 912 -17 868 27 867 82 c 6
 866 539 l 6
 866 756 807 892 593 892 c 4
 418 892 276 737 276 560 c 4
 276 356 438 185 645 183 c 5
 646 183 l 6
 701 183 746 138 746 83 c 4
 746 28 701 -17 646 -17 c 4
 332 -17 75 236 75 555 c 4
 75 848 309 1093 593 1093 c 4
EndSplineSet
EndChar

StartChar: p1
Encoding: 3370 3370 77
Width: 1681
GlyphClass: 2
Flags: HW
LayerCount: 2
Fore
SplineSet
1405 996 m 2
 1405 1051 1450 1096 1505 1096 c 0
 1560 1096 1605 1051 1605 996 c 2
 1605 994 l 1
 1606 101 l 2
 1606 46 1561 0 1506 0 c 2
 578 5 l 2
 523 5 478 50 478 105 c 0
 478 141 505 182 538 197 c 0
 598 224 649 284 649 369 c 0
 649 473 565 555 462 555 c 0
 360 555 275 473 275 369 c 0
 275 280 332 216 398 192 c 0
 435 179 465 136 465 97 c 0
 465 42 420 -3 365 -3 c 0
 355 -3 339 0 330 4 c 0
 194 54 75 187 75 368 c 0
 75 585 248 755 462 755 c 0
 677 755 849 586 849 368 c 0
 849 312 837 256 813 204 c 1
 1406 201 l 1
 1405 994 l 1
 1405 996 l 2
EndSplineSet
EndChar

StartChar: p2
Encoding: 3371 3371 78
Width: 2198
GlyphClass: 2
Flags: HW
LayerCount: 2
Fore
SplineSet
2020 1 m 2
 585 4 l 2
 530 5 486 49 486 104 c 0
 486 139 512 180 544 195 c 0
 601 221 654 285 654 366 c 0
 654 472 570 556 465 556 c 0
 359 556 275 466 275 366 c 0
 275 280 336 211 404 188 c 0
 442 176 473 132 473 92 c 0
 473 37 428 -8 373 -8 c 0
 363 -8 348 -5 339 -2 c 0
 200 45 75 186 75 365 c 0
 75 583 249 756 465 756 c 0
 680 756 854 585 854 367 c 0
 854 311 842 255 818 203 c 1
 1037 202 l 1
 1038 451 l 1
 1038 825 1206 1093 1576 1093 c 0
 1935 1093 2123 839 2123 477 c 9
 2120 101 l 18
 2120 46 2075 1 2020 1 c 2
1577 893 m 0
 1321 893 1238 713 1238 451 c 1
 1237 201 l 1
 1921 201 l 1
 1923 460 l 1
 1923 717 1830 893 1577 893 c 0
EndSplineSet
EndChar

StartChar: p3
Encoding: 3372 3372 79
Width: 2558
GlyphClass: 2
Flags: HW
LayerCount: 2
Fore
SplineSet
685 1095 m 0
 880 1095 1029 998 1113 875 c 1
 1192 992 1331 1090 1517 1090 c 0
 1807 1090 2039 839 2039 551 c 0
 2039 407 1990 288 1907 188 c 1
 2283 187 l 1
 2283 995 l 2
 2283 1050 2328 1095 2383 1095 c 0
 2438 1095 2483 1050 2483 995 c 2
 2483 86 l 2
 2483 31 2438 -14 2383 -14 c 2
 2382 -14 l 1
 1539 -11 l 2
 1484 -11 1440 34 1440 89 c 0
 1440 137 1478 181 1525 188 c 0
 1693 213 1839 359 1839 549 c 0
 1839 732 1697 889 1515 889 c 0
 1283 889 1215 695 1215 457 c 0
 1215 333.333333333 1215 209.666666667 1215 86 c 0
 1214 31 1170 -12 1115 -12 c 0
 1061 -12 1016 32 1015 86 c 2
 1014 457 l 2
 1013 710 934 895 686 895 c 0
 528 895 397 794 333 680 c 1
 379 700 429 711 479 711 c 0
 682 711 842 553 842 350 c 0
 842 150 695 -3 490 -3 c 0
 235 -3 75 213 75 464 c 0
 75 809 342 1095 685 1095 c 0
642 347 m 0
 642 439 572 511 481 511 c 0
 386 511 317 442 317 348 c 0
 317 254 402 197 489 197 c 0
 576 197 642 261 642 347 c 0
EndSplineSet
EndChar

StartChar: p4
Encoding: 3373 3373 80
Width: 1344
GlyphClass: 2
Flags: HW
LayerCount: 2
Fore
SplineSet
737 768 m 0
 857 768 913 721 1005 721 c 0
 1040 721 1069 732 1069 765 c 0
 1069 874 879 899 768 899 c 0
 503 899 275 734 275 473 c 0
 275 351 331 235 417 162 c 0
 437 145 454 110 454 84 c 0
 454 29 409 -16 354 -16 c 0
 333 -16 304 -5 288 9 c 0
 158 119 75 292 75 474 c 0
 75 845 389 1100 762 1100 c 0
 1005 1100 1269 1013 1269 765 c 0
 1269 618 1147 522 1003 522 c 0
 912 522 786 568 733 568 c 0
 701 568 654 551 654 523 c 0
 654 477 724 466 770 466 c 0
 828 466 891 477 950 477 c 0
 1105 477 1265 394 1265 229 c 0
 1265 49 1091 -16 923 -16 c 0
 806 -16 690 -10 574 2 c 0
 524 7 483 51 483 101 c 0
 483 155 527 201 583 201 c 0
 694 201 806 184 918 184 c 2
 919 184 l 2
 978 184 1065 184 1065 229 c 0
 1065 267 988 278 950 278 c 0
 895 278 833 267 771 267 c 0
 611 267 454 359 454 523 c 0
 454 675 596 768 737 768 c 0
EndSplineSet
EndChar

StartChar: m1
Encoding: 3374 3374 81
Width: 1407
GlyphClass: 2
Flags: HW
LayerCount: 2
Fore
SplineSet
705 1094 m 4
 1053 1094 1335 811 1333 464 c 2
 1331 100 l 2
 1330 45 1286 0 1231 0 c 2
 175 0 l 2
 120 0 75 45 75 100 c 2
 75 486 l 2
 75 811 353 1094 705 1094 c 4
646 889 m 3
 436 889 275 689 275 482 c 2
 275 201 l 1
 499 235 794 435 794 714 c 0
 794 807 741 889 646 889 c 3
988 786 m 1
 992 762 994 738 994 714 c 0
 994 487 857 312 728 200 c 1
 1131 200 l 25
 1132 486 l 2
 1132 596 1068 717 988 786 c 1
EndSplineSet
EndChar

StartChar: y1
Encoding: 3375 3375 82
Width: 1925
GlyphClass: 2
Flags: HW
HStem: -28 142<546.147 828.879 1147.46 1418.42> 890 135<318.156 539.006 883.758 1132.29>
VStem: 94 141<422.703 802.094> 626 138<389.311 748.695> 1236 141<401.982 775.796> 1667 142<375.263 751.799>
LayerCount: 2
Fore
SplineSet
438 1095 m 0
 562 1095 660 1025 720 941 c 1
 787 1022 888 1092 1028 1092 c 0
 1274 1092 1418 882 1418 643 c 0
 1418 449 1345 299 1228 179 c 1
 1239 179 l 2
 1472 179 1651 365 1651 595 c 0
 1651 713 1596 836 1507 914 c 0
 1488 931 1472 965 1472 990 c 0
 1472 1045 1517 1090 1572 1090 c 0
 1593 1090 1624 1078 1640 1064 c 0
 1773 946 1851 774 1851 596 c 0
 1851 253 1585 -22 1237 -22 c 0
 1155 -22 1074 -6 998 25 c 1
 921 -5 838 -21 755 -21 c 0
 374 -21 75 293 75 673 c 0
 75 893 213 1095 438 1095 c 0
609 646 m 2
 609 766 550 895 438 895 c 0
 329 895 275 781 275 671 c 0
 275 406 489 179 752 179 c 0
 760 179 769 180 777 180 c 1
 671 295 609 444 609 609 c 2
 609 646 l 2
1000 250 m 1
 1125 327 1218 470 1218 641 c 0
 1218 768 1155 892 1028 892 c 0
 883 892 809 748 809 609 c 0
 809 464 887 325 1000 250 c 1
EndSplineSet
EndChar

StartChar: r3
Encoding: 3376 3376 83
Width: 1462
GlyphClass: 2
Flags: HW
LayerCount: 2
Fore
SplineSet
923 -17 m 0
 689 -17 495 170 495 414 c 0
 495 659 684 851 932 851 c 1
 868 879 800 893 728 893 c 0
 489 893 275 727 275 488 c 0
 275 341 353 234 448 174 c 0
 475 158 496 120 496 89 c 0
 496 34 451 -11 396 -11 c 0
 380 -11 356 -4 342 5 c 0
 195 97 75 261 75 487 c 0
 75 842 379 1093 728 1093 c 0
 1079 1093 1388 837 1388 482 c 0
 1388 220 1201 -17 923 -17 c 0
696 417 m 0
 696 285 798 183 923 183 c 0
 1080 183 1170 305 1170 424 c 0
 1170 539 1085 650 934 650 c 0
 799 650 696 549 696 417 c 0
EndSplineSet
EndChar

StartChar: rh
Encoding: 3377 3377 84
Width: 1339
GlyphClass: 2
Flags: HW
LayerCount: 2
Fore
SplineSet
75 519 m 0
 75 844 349 1096 670 1096 c 0
 990 1096 1264 842 1264 520 c 0
 1264 279 1068 -11 834 -11 c 0
 779 -11 734 34 734 89 c 0
 734 132 767 175 809 186 c 0
 946 223 1064 351 1064 521 c 0
 1064 730 880 896 670 896 c 0
 460 896 275 730 275 520 c 0
 275 350 391 225 525 186 c 0
 566 175 599 131 599 89 c 0
 599 34 554 -11 499 -11 c 0
 491 -11 478 -8 470 -6 c 0
 259 55 75 253 75 519 c 0
EndSplineSet
EndChar

StartChar: l3
Encoding: 3378 3378 85
Width: 1656
GlyphClass: 2
Flags: HW
LayerCount: 2
Fore
SplineSet
1480 1094 m 0
 1535 1094 1581 1049 1580 993 c 1
 1582 106 l 2
 1582 51 1537 6 1482 6 c 2
 175 3 l 2
 120 3 75 48 75 103 c 2
 75 425 l 2
 75 792 237 1094 602 1094 c 0
 884 1094 1117 857 1117 562 c 0
 1117 470 1098 369 1007 369 c 2
 275 367 l 1
 275 203 l 1
 1382 206 l 1
 1380 994 l 2
 1380 1049 1425 1094 1480 1094 c 0
916 569 m 1
 911 747 775 894 602 894 c 0
 411 894 301 741 281 567 c 1
 916 569 l 1
EndSplineSet
EndChar

StartChar: lh
Encoding: 3379 3379 86
Width: 1286
GlyphClass: 2
Flags: HW
LayerCount: 2
Fore
SplineSet
697 523 m 0
 697 360 570 229 404 229 c 0
 204 229 76 393 76 590 c 0
 76 917 388 1094 690 1094 c 0
 933 1094 1180 966 1180 709 c 0
 1180 640 1156 579 1123 537 c 1
 1173 489 1212 419 1212 330 c 0
 1212 101 1013 -2 785 -2 c 2
 402 -1 l 2
 340 -1 275 -4 275 -61 c 0
 275 -112 333 -115 388 -115 c 0
 625 -115 862 -115 1099 -115 c 0
 1154 -115 1199 -160 1199 -215 c 0
 1199 -270 1154 -315 1099 -315 c 2
 383 -315 l 2
 212 -315 75 -231 75 -60 c 0
 75 121 224 199 403 199 c 2
 786 198 l 2
 896 198 1012 227 1012 331 c 0
 1012 426 902 429 809 434 c 0
 757 437 715 482 715 534 c 0
 715 589 760 634 815 634 c 0
 816 634 817 634 818 634 c 2
 849 632 l 2
 860 632 872 631 883 631 c 0
 942 631 980 651 980 709 c 0
 980 843 824 894 689 894 c 0
 589 894 494 871 419 824 c 1
 573 810 697 687 697 523 c 0
509 534 m 0
 509 590 452 651 394 651 c 0
 334 651 285 585 285 531 c 3
 285 476 345 414 410 414 c 3
 462 414 509 482 509 534 c 0
EndSplineSet
EndChar

StartChar: zh
Encoding: 3380 3380 87
Width: 1269
GlyphClass: 2
Flags: HW
LayerCount: 2
Fore
SplineSet
600 503 m 1
 540 565 475 650 475 762 c 0
 475 937 634 1091 825 1091 c 0
 1020 1091 1194 933 1194 732 c 0
 1194 556 1067 431 943 372 c 1
 953 343 959 312 959 280 c 0
 959 103 793 -12 605 -12 c 0
 478 -12 355 40 266 127 c 0
 249 143 236 169 236 194 c 0
 236 246 279 287 331 287 c 0
 354 287 383 276 399 260 c 0
 454 208 532 180 608 180 c 0
 701 180 767 223 767 287 c 0
 767 300 764 311 760 321 c 1
 726 317 695 314 663 314 c 0
 406 314 75 448 75 770 c 0
 75 879 122 988 210 1062 c 0
 226 1076 251 1087 273 1087 c 0
 325 1087 368 1046 368 994 c 0
 368 969 356 940 335 923 c 0
 292 886 268 828 268 770 c 0
 268 601 429 519 600 503 c 1
1003 730 m 0
 1003 828 922 898 825 898 c 0
 735 898 669 837 669 758 c 0
 669 662 764 607 840 531 c 1
 927 566 1003 630 1003 730 c 0
EndSplineSet
EndChar

StartChar: v1
Encoding: 3381 3381 88
Width: 1729
GlyphClass: 2
Flags: HW
LayerCount: 2
Fore
SplineSet
1454 989 m 2
 1454 1044 1499 1089 1554 1089 c 0
 1609 1089 1654 1044 1654 989 c 2
 1654 988 l 1
 1653 99 l 2
 1653 44 1608 -1 1553 -1 c 2
 1552 -1 l 1
 831 1 l 2
 776 1 731 46 731 101 c 0
 731 139 761 182 797 195 c 0
 920 240 1026 363 1026 524 c 0
 1026 726 853 891 650 891 c 0
 448 891 275 728 275 529 c 0
 275 347 415 206 577 185 c 0
 626 179 666 134 666 85 c 0
 666 30 621 -15 566 -15 c 0
 562 -15 556 -15 552 -14 c 0
 296 19 75 242 75 528 c 0
 75 838 337 1091 649 1091 c 0
 963 1091 1226 838 1226 524 c 0
 1226 408 1187 290 1121 200 c 1
 1453 199 l 1
 1454 988 l 1
 1454 989 l 2
EndSplineSet
EndChar

StartChar: z1
Encoding: 3382 3382 89
Width: 1920
GlyphClass: 2
Flags: HW
LayerCount: 2
Back
SplineSet
388.267578125 1433.9765625 m 4
 388.865234375 1433.98925781 389.834960938 1434 390.43359375 1434 c 4
 445.638671875 1434 490.443359375 1389.1953125 490.443359375 1333.99023438 c 4
 490.443359375 1299.85546875 465.659179688 1259.77246094 435.12109375 1244.51953125 c 4
 350.240234375 1200.61230469 279.7421875 1124.34960938 242.62890625 1036.28515625 c 4
 195.020507812 923.31640625 202.236328125 783.374023438 261.81640625 677.091796875 c 4
 288.919921875 628.743164062 326.051757812 587.1796875 368.92578125 559.22265625 c 4
 411.37109375 531.545898438 461.838867188 516.470703125 508.330078125 518.1484375 c 4
 549.610351562 519.637695312 592.1015625 534.553710938 625.587890625 559.298828125 c 4
 659.11328125 584.071289062 686.083984375 620.444335938 700.275390625 659.990234375 c 4
 717.510742188 708.015625 719.3828125 771.33984375 718.09765625 844.310546875 c 4
 716.8046875 917.766601562 712.778320312 1004.16210938 740.341796875 1095.640625 c 4
 769.30078125 1191.74902344 829.845703125 1274.57617188 909.6015625 1332.796875 c 4
 989.151367188 1390.86621094 1084.40722656 1422.22949219 1181.18945312 1425.63085938 c 4
 1330.91210938 1430.89257812 1473.29394531 1369.43652344 1578.03710938 1269.44921875 c 4
 1682.00878906 1170.19824219 1745.390625 1038.40917969 1769.7890625 902.033203125 c 4
 1793.0859375 771.813476562 1782.04882812 625.842773438 1703.58984375 502.728515625 c 4
 1664.20214844 440.921875 1609.03808594 387.819335938 1540.28320312 353.466796875 c 4
 1471.07226562 318.88671875 1391.10839844 305.118164062 1311.67773438 320.279296875 c 4
 1252.69921875 331.537109375 1198.96875 357.87890625 1154.01757812 394.494140625 c 4
 1109.20703125 430.99609375 1074.34375 476.626953125 1049.77929688 526.62890625 c 4
 1000.65039062 626.631835938 995.016601562 737.756835938 1016.72265625 838.857421875 c 4
 1040.69433594 950.506835938 1098.17773438 1053.05371094 1180.91210938 1131.76367188 c 4
 1213.68457031 1162.94140625 1250.03710938 1189.8984375 1288.9453125 1212.32226562 c 5
 1255.69921875 1222.15722656 1221.55371094 1226.92578125 1188.21484375 1225.75390625 c 4
 1130.58789062 1223.72851562 1072.765625 1204.28515625 1027.52148438 1171.2578125 c 4
 982.484375 1138.38183594 947.454101562 1089.76953125 931.837890625 1037.94140625 c 4
 916.624023438 987.44921875 916.75 922.626953125 918.06640625 847.830078125 c 4
 919.391601562 772.547851562 921.369140625 683.96875 888.51953125 592.43359375 c 4
 860.78515625 515.150390625 810.748046875 447.442382812 744.4453125 398.44921875 c 4
 678.104492188 349.427734375 598.3046875 321.263671875 515.541015625 318.27734375 c 4
 422.775390625 314.930664062 333.965820312 343.255859375 259.685546875 391.69140625 c 4
 185.834960938 439.846679688 128.39453125 506.08984375 87.357421875 579.29296875 c 4
 -4.1259765625 742.487304688 -14.037109375 942.241210938 58.328125 1113.95507812 c 4
 114.112304688 1246.32421875 215.645507812 1356.1640625 343.23046875 1422.16015625 c 4
 354.879882812 1428.39648438 375.056640625 1433.69042969 388.267578125 1433.9765625 c 4
1482.3359375 1077.08398438 m 5
 1421.56347656 1061.43261719 1363.98828125 1029.88671875 1318.765625 986.86328125 c 4
 1265.7890625 936.462890625 1227.6171875 868.365234375 1212.26757812 796.873046875 c 4
 1198.55371094 732.999023438 1204.015625 666.2578125 1229.28710938 614.81640625 c 4
 1241.92285156 589.096679688 1259.72949219 566.340820312 1280.33007812 549.560546875 c 4
 1300.79199219 532.893554688 1325.28320312 521.294921875 1349.17578125 516.734375 c 4
 1381.03710938 510.653320312 1418.74902344 516.319335938 1450.89257812 532.37890625 c 4
 1483.4921875 548.666992188 1513.42480469 576.471679688 1534.92773438 610.212890625 c 4
 1578.25195312 678.194335938 1589.5234375 773.971679688 1572.9140625 866.8125 c 4
 1559.17285156 943.619140625 1527.90234375 1017.23242188 1482.3359375 1077.08398438 c 5
EndSplineSet
Fore
SplineSet
982 558 m 0
 982 525 983 492 983 458 c 0
 983 190 831 -22 564 -22 c 0
 271 -22 75 249 75 536 c 0
 75 800 226 988 408 1082 c 0
 420 1089 440 1094 455 1094 c 0
 510 1094 555 1049 555 994 c 0
 555 960 531 920 500 905 c 0
 378 842 276 715 276 537 c 0
 276 360 387 178 564 178 c 0
 724 178 783 304 783 471 c 0
 783 505 782 536 782 571 c 0
 782 870 971 1094 1263 1094 c 0
 1598 1094 1845 779 1845 443 c 0
 1845 205 1693 -26 1444 -26 c 0
 1216 -26 1069 166 1069 389 c 0
 1069 615 1198 783 1353 873 c 1
 1322 882 1292 891 1263 891 c 0
 1077 891 982 754 982 558 c 0
1269 389 m 0
 1269 278 1330 174 1443 174 c 0
 1575 174 1645 315 1645 442 c 0
 1645 553 1601 666 1547 737 c 1
 1400 699 1269 568 1269 389 c 0
EndSplineSet
EndChar

StartChar: sh
Encoding: 3383 3383 90
Width: 1938
GlyphClass: 2
Flags: HW
LayerCount: 2
Fore
SplineSet
1087 1100 m 0
 1301 1100 1410 946 1410 730 c 1
 1409 639 l 1
 1536 713 1638 859 1665 1014 c 0
 1673 1060 1717 1097 1763 1097 c 0
 1818 1097 1863 1052 1863 997 c 2
 1863 98 l 2
 1863 43 1818 -2 1763 -2 c 2
 539 -2 l 2
 484 -2 439 43 439 98 c 0
 439 134 467 176 500 190 c 0
 553 213 596 265 596 338 c 0
 596 428 524 498 435 498 c 0
 347 498 275 427 275 338 c 0
 275 265 319 213 372 190 c 0
 406 176 434 134 434 97 c 0
 434 42 389 -3 334 -3 c 0
 322 -3 304 1 293 6 c 0
 176 57 75 175 75 337 c 0
 75 540 236 698 436 698 c 0
 636 698 796 539 796 337 c 0
 796 289 787 242 768 198 c 1
 1206 198 l 1
 1207 372 l 1
 1195 371 1183 371 1171 371 c 0
 904 371 750 586 750 781 c 0
 750 942 854 1100 1087 1100 c 0
1089 919 m 0
 1007 919 937 829 937 751 c 0
 937 633 1050 571 1174 571 c 0
 1186 571 1197 572 1209 573 c 1
 1209 627 1210 682 1210 736 c 0
 1210 833 1184 919 1089 919 c 0
1663 585 m 1
 1591 512 1504 454 1408 417 c 1
 1406 198 l 1
 1663 198 l 1
 1663 585 l 1
EndSplineSet
EndChar

StartChar: s1
Encoding: 3384 3384 91
Width: 2438
GlyphClass: 2
Flags: HW
LayerCount: 2
Fore
SplineSet
985 932 m 1
 1038 1017 1130 1094 1258 1094 c 0
 1506 1094 1612 849 1612 611 c 0
 1612 558 1609 508 1609 456 c 0
 1609 290 1678 176 1842 176 c 0
 2023 176 2164 338 2164 524 c 0
 2164 712 2032 853 1880 895 c 0
 1839 906 1805 949 1805 992 c 0
 1805 1047 1850 1092 1905 1092 c 0
 1913 1092 1925 1090 1933 1088 c 0
 2164 1024 2364 809 2364 523 c 0
 2364 228 2134 -24 1842 -24 c 0
 1567 -24 1409 177 1409 453 c 0
 1409 502 1412 548 1412 596 c 0
 1412 731 1385 894 1256 894 c 0
 1114 894 1104 677 1104 527 c 4
 1104 377 1104 227 1104 77 c 1
 1103 23 1058 -21 1004 -21 c 0
 950 -21 905 22 904 77 c 1
 904 529 l 2
 904 739 834 893 628 893 c 0
 431 893 275 731 275 535 c 0
 275 342 435 178 637 178 c 0
 662 178 686 184 711 184 c 0
 766 184 811 139 811 84 c 0
 811 37 773 -7 726 -14 c 0
 695 -19 665 -22 634 -22 c 0
 322 -22 75 236 75 536 c 0
 75 843 321 1094 629 1094 c 0
 789 1094 906 1026 985 932 c 1
EndSplineSet
EndChar

StartChar: h1
Encoding: 3385 3385 92
Width: 2258
GlyphClass: 2
Flags: HW
LayerCount: 2
Fore
SplineSet
465 556 m 0
 360 556 276 470 276 366 c 0
 276 280 335 214 400 190 c 0
 437 177 468 134 468 95 c 0
 468 40 423 -5 368 -5 c 0
 358 -5 341 -3 332 1 c 0
 200 49 75 188 75 364 c 0
 75 580 245 756 462 756 c 0
 685 756 853 584 853 366 c 0
 853 312 841 256 816 202 c 1
 1201 201 l 1
 1127 295 1084 417 1084 541 c 0
 1084 841 1326 1097 1629 1097 c 4
 1937 1097 2183 833 2183 525 c 0
 2183 278 2025 83 1840 4 c 0
 1829 -1 1811 -5 1799 -5 c 0
 1744 -5 1699 40 1699 95 c 0
 1699 132 1727 174 1761 188 c 0
 1881 239 1984 362 1984 525 c 0
 1984 724 1821 895 1628 895 c 4
 1436 895 1285 724 1285 536 c 0
 1285 363 1417 227 1565 198 c 0
 1610 189 1646 146 1646 100 c 0
 1646 45 1601 0 1546 0 c 2
 580 3 l 2
 525 3 481 48 481 103 c 0
 481 139 507 179 540 194 c 0
 600 220 653 284 653 366 c 0
 653 471 566 556 465 556 c 0
EndSplineSet
EndChar

StartChar: avagraha
Encoding: 3389 3389 93
Width: 1531
GlyphClass: 2
Flags: HW
LayerCount: 2
Fore
SplineSet
209 -217 m 4
 209 -239.585212279 199 -262.242438928 199 -285 c 4
 199 -373 274 -444 359 -444 c 4
 520 -444 554 -265 577 -116 c 6
 732 907 l 6
 769 1157 869 1434 1166 1434 c 4
 1373 1434 1532 1278 1532 1071 c 4
 1532 1054 1531 1036 1528 1018 c 4
 1522 970 1476 931 1428 931 c 4
 1373 931 1328 976 1328 1031 c 4
 1328 1044 1332 1058 1332 1072 c 4
 1332 1165 1257 1234 1163 1234 c 4
 993 1234 953 1034 929 877 c 6
 775 -146 l 6
 739 -383 644 -644 362 -644 c 4
 158 -644 0 -488 -0 -280 c 4
 0 -196 30 -117 109 -117 c 4
 164 -117 209 -162 209 -217 c 4
EndSplineSet
EndChar

StartChar: a2
Encoding: 3390 3390 94
Width: 1011
GlyphClass: 2
Flags: HW
LayerCount: 2
Fore
SplineSet
737 549 m 0
 737 718 648 896 475 896 c 0
 374 896 292 814 284 720 c 0
 280 669 235 628 184 628 c 0
 129 628 84 673 84 728 c 0
 84 731 85 735 85 738 c 0
 102 932 268 1096 476 1096 c 0
 768 1096 937 825 937 550 c 0
 937 267 770 -21 464 -21 c 0
 252 -21 87 145 75 345 c 1
 75 352 l 2
 75 407 120 452 175 452 c 0
 228 452 273 410 275 357 c 0
 281 261 362 179 464 179 c 0
 648 179 737 370 737 549 c 0
EndSplineSet
EndChar

StartChar: i1
Encoding: 3391 3391 95
Width: 340
GlyphClass: 2
Flags: HW
LayerCount: 2
Fore
SplineSet
-559 1198 m 0
 -506 1343 -362 1472 -171 1472 c 0
 134 1472 262 1232 263 926 c 2
 265 77 l 1
 265 76 l 2
 265 21 220 -24 165 -24 c 0
 110 -24 65 21 65 76 c 2
 65 77 l 1
 63 926 l 2
 63 1114 13 1271 -169 1271 c 4
 -269 1271 -344 1205 -372 1129 c 0
 -385 1092 -427 1062 -466 1062 c 0
 -521 1062 -566 1107 -566 1162 c 0
 -566 1172 -563 1188 -559 1198 c 0
EndSplineSet
EndChar

StartChar: i2
Encoding: 3392 3392 96
Width: 398
GlyphClass: 2
Flags: HW
LayerCount: 2
Fore
SplineSet
-172 1267 m 0
 -216 1267 -252 1245 -252 1204 c 0
 -252 1180 -215 1149 -180 1149 c 0
 -142 1149 -113 1173 -113 1205 c 0
 -113 1245 -135 1267 -172 1267 c 0
32 1209 m 0
 32 1085 -84 995 -193 995 c 0
 -306 995 -404 1093 -404 1203 c 0
 -404 1367 -254 1446 -101 1446 c 0
 177 1446 323 1286 323 1009 c 2
 320 72 l 2
 320 12 270 -19 225 -19 c 0
 180 -19 130 12 130 73 c 2
 133 1008 l 2
 133 1140 109 1203 31 1237 c 1
 32 1226 32 1218 32 1209 c 0
EndSplineSet
EndChar

StartChar: u1
Encoding: 3393 3393 97
Width: 794
GlyphClass: 2
Flags: HW
LayerCount: 2
Fore
SplineSet
266 -253 m 0
 266 -326 324 -387 396 -387 c 0
 473 -387 530 -334 530 -255 c 0
 530 -181 460 -116 392 -116 c 0
 318 -116 266 -180 266 -253 c 0
399 -579 m 0
 212 -579 76 -429 76 -258 c 0
 76 -131 154 -27 244 24 c 1
 317 160 440 445 440 620 c 4
 440 776 359 884 246 906 c 4
 203 914 169 953 169 1002 c 4
 169 1044 207 1096 253 1096 c 4
 482 1096 629 851 629 632 c 4
 629 487 574 264 473 55 c 1
 613 21 720 -99 720 -259 c 0
 720 -441 577 -579 399 -579 c 0
EndSplineSet
EndChar

StartChar: u2
Encoding: 3394 3394 98
Width: 973
GlyphClass: 2
Flags: HW
LayerCount: 2
Fore
SplineSet
572 -301 m 0
 572 -214 500 -149 418 -149 c 0
 339 -149 264 -228 264 -306 c 0
 264 -383 342 -447 419 -447 c 0
 500 -447 572 -382 572 -301 c 0
414 -636 m 0
 219 -636 77 -479 77 -297 c 0
 77 -175 144 -67 239 -9 c 1
 307 141 439 458 439 600 c 0
 439 757 376 882 262 903 c 1
 207 915 168 947 168 1000 c 0
 168 1045 205 1095 253 1095 c 0
 498 1095 629 842 629 604 c 0
 629 474 554 223 487 78 c 1
 496 79 504 79 512 79 c 0
 784 79 999 -152 999 -423 c 0
 999 -711 771 -947 464 -947 c 0
 352 -947 250 -914 159 -849 c 0
 132 -830 120 -802 120 -774 c 0
 120 -728 154 -679 210 -679 c 0
 235 -679 262 -691 290 -710 c 0
 323 -733 401 -756 474 -756 c 0
 665 -756 809 -613 809 -420 c 0
 809 -355 788 -296 759 -251 c 1
 761 -267 762 -281 762 -297 c 0
 762 -491 604 -636 414 -636 c 0
EndSplineSet
EndChar

StartChar: r1
Encoding: 3395 3395 99
Width: 393
GlyphClass: 2
Flags: HW
LayerCount: 2
Fore
SplineSet
-525 -312 m 0
 -525 -375 -448 -408 -367 -408 c 0
 -276 -408 -175 -365 -108 -319 c 1
 -205 -266 -296 -242 -395 -242 c 0
 -467 -242 -525 -268 -525 -312 c 0
19 -187 m 1
 102 -66 139 178 139 373 c 0
 139 574 90 773 -9 968 c 0
 -17 983 -21 999 -21 1013 c 0
 -21 1069 33 1098 77 1098 c 0
 110 1098 136 1078 151 1048 c 0
 263 829 319 605 319 376 c 0
 318 -202 98 -587 -365 -587 c 0
 -536 -587 -707 -495 -707 -315 c 0
 -707 -146 -549 -62 -394 -62 c 0
 -229 -62 -93 -117 19 -187 c 1
EndSplineSet
EndChar

StartChar: e1
Encoding: 3398 3398 100
Width: 1407
GlyphClass: 2
Flags: HW
LayerCount: 2
Fore
SplineSet
884 370 m 4
 884 158 709 -12 501 -12 c 4
 243 -12 75 217 75 465 c 4
 75 815 367 1096 707 1096 c 4
 1047 1096 1333 809 1333 462 c 4
 1333 268 1261 127 1148 14 c 4
 1132 -3 1099 -16 1076 -16 c 4
 1021 -16 976 29 976 84 c 4
 976 107 989 140 1006 156 c 4
 1081 231 1132 341 1132 461 c 4
 1132 699 941 898 704 898 c 4
 571 898 430 848 356 718 c 5
 418 756 459 760 495 760 c 4
 707 760 884 585 884 370 c 4
684 370 m 4
 684 474 596 558 494 558 c 4
 389 558 299 475 299 362 c 4
 299 266 408 187 501 187 c 4
 601 187 684 269 684 370 c 4
EndSplineSet
EndChar

StartChar: e2
Encoding: 3399 3399 101
Width: 1038
GlyphClass: 2
Flags: HW
LayerCount: 2
Fore
SplineSet
75 550 m 4
 75 837 301 1095 590 1095 c 2
 591 1095 l 2
 766 1095 947 993 947 799 c 0
 947 657 839 551 698 551 c 0
 552 551 444 663 444 807 c 0
 444 825 445 843 449 860 c 1
 350 809 275 683 275 552 c 0
 275 417 354 303 446 244 c 1
 445 253 444 262 444 271 c 0
 444 419 558 532 705 532 c 0
 855 532 963 414 963 275 c 0
 963 98 806 -17 632 -17 c 0
 324 -17 75 243 75 550 c 4
693 727 m 0
 733 727 766 759 766 799 c 0
 766 839 733 870 693 870 c 0
 653 870 620 839 620 799 c 0
 620 759 653 727 693 727 c 0
708 343 m 0
 668 343 634 311 634 271 c 0
 634 231 668 199 708 199 c 0
 748 199 781 231 781 271 c 0
 781 311 748 343 708 343 c 0
EndSplineSet
EndChar

StartChar: xx
Encoding: 3405 3405 106
Width: 142
GlyphClass: 4
Flags: HW
LayerCount: 2
Fore
SplineSet
166 1295 m 0
 166 1314 159 1331 159 1365 c 0
 159 1412 209 1450 252 1450 c 0
 336 1450 357 1368 357 1304 c 0
 357 1101 207 947 7 947 c 0
 -195 947 -336 1116 -336 1295 c 0
 -336 1358 -323 1454 -230 1454 c 0
 -187 1454 -138 1413 -138 1368 c 0
 -138 1336 -145 1316 -145 1294 c 0
 -145 1206 -73 1140 7 1140 c 0
 97 1140 166 1214 166 1295 c 0
EndSplineSet
EndChar

StartChar: dotreph
Encoding: 3406 3406 107
Width: 0
GlyphClass: 4
Flags: HW
LayerCount: 2
Fore
SplineSet
147 1094 m 0
 53 1094 -4 1169 -4 1262 c 0
 -4 1355 53 1427 147 1427 c 0
 240 1427 307 1356 307 1262 c 0
 307 1168 240 1094 147 1094 c 0
EndSplineSet
EndChar

StartChar: au2
Encoding: 3415 3415 108
Width: 1556
GlyphClass: 2
Flags: HW
LayerCount: 2
Fore
SplineSet
839 637 m 5
 839 632 l 5
 830 586 786 559 744 559 c 4
 689 559 650 606 650 654 c 6
 650 698 l 5
 648 810 572 904 456 904 c 4
 347 904 265 812 265 704 c 4
 265 675 273 647 289 618 c 4
 297 604 301 588 301 573 c 4
 301 526 262 480 208 480 c 4
 167 480 136 503 122 531 c 5
 89 589 75 647 75 707 c 4
 75 915 236 1095 456 1095 c 4
 583 1095 695 1033 752 945 c 5
 815 1033 929 1093 1060 1093 c 4
 1302 1093 1481 862 1481 628 c 4
 1481 250 1121 -26 744 -26 c 4
 628 -26 509 -1 405 45 c 4
 374 58 347 91 347 131 c 4
 347 183 389 226 442 226 c 4
 456 226 469 223 482 217 c 4
 561 183 654 165 746 165 c 4
 1029 165 1291 373 1291 630 c 4
 1291 773 1191 900 1054 900 c 4
 911 900 842 796 839 637 c 5
EndSplineSet
EndChar

StartChar: datemark
Encoding: 3449 3449 109
Width: 2321
GlyphClass: 2
Flags: HW
LayerCount: 2
Fore
SplineSet
1793 497 m 1
 1700 499 1637 497 1601 491 c 1
 1475 474 1419 428 1407 358 c 1
 1399 305 1415 262 1463 225 c 1
 1510 186 1566 178 1632 202 c 1
 1733 235 1810 353 1793 497 c 1
984 -6 m 0
 935 -6 897 42 897 88 c 2
 899 450 l 2
 900 587 892 650 840 725 c 0
 769 829 625 876 477 817 c 0
 385 780 317 710 284 615 c 0
 229 455 310 309 410 242 c 1
 478 198 583 169 687 196 c 1
 698 200 705 201 714 201 c 0
 765 201 809 158 809 112 c 0
 809 63 784 24 737 12 c 0
 469 -59 248 83 148 247 c 0
 76 366 50 520 103 676 c 0
 153 824 262 931 400 991 c 0
 471 1022 546 1035 625 1031 c 0
 790 1022 916 954 999 828 c 1
 1067 927 1170 988 1307 1019 c 0
 1501 1062 1676 985 1785 895 c 0
 1852 839 1903 768 1939 686 c 1
 2153 682 l 2
 2201 682 2248 642 2248 592 c 0
 2248 534 2207 492 2152 492 c 2
 2150 492 l 1
 1985 495 l 1
 2002 256 1862 81 1693 24 c 1
 1482 -50 1299 70 1239 220 c 0
 1192 337 1221 460 1288 537 c 0
 1384 649 1527 686 1719 688 c 1
 1666 760 1597 805 1505 827 c 0
 1446 842 1392 843 1345 832 c 0
 1202 800 1123 719 1099 582 c 0
 1093 552 1091 508 1090 446 c 2
 1087 88 l 1
 1087 87 l 1
 1086 31 1043 -6 984 -6 c 0
EndSplineSet
EndChar

StartChar: ZWNJ
Encoding: 8204 8204 110
Width: 321
GlyphClass: 2
Flags: HW
LayerCount: 2
Fore
SplineSet
41 1002 m 1
 250 1002 l 1
 250 -7 l 1
 41 -7 l 1
 41 1002 l 1
EndSplineSet
EndChar

StartChar: ZWJ
Encoding: 8205 8205 111
Width: 320
GlyphClass: 2
Flags: HW
LayerCount: 2
Fore
SplineSet
45 812 m 1
 27 785 l 1
 -137 785 l 1
 65 1082 l 1
 -124 1355 l 1
 46 1355 l 1
 131 1222 l 2
 134 1217 141 1207 147 1197 c 1
 257 1355 l 1
 426 1355 l 1
 229 1086 l 1
 434 785 l 1
 269 785 l 1
 249 817 l 1
 249 -6 l 1
 45 -6 l 1
 45 812 l 1
113 919 m 1
 182 919 l 1
 148 972 l 1
 113 919 l 1
EndSplineSet
EndChar

StartChar: rupee
Encoding: 8377 8377 112
Width: 1165
GlyphClass: 2
Flags: HW
LayerCount: 2
Fore
SplineSet
802 799 m 1
 751 639 631 518 493 446 c 1
 993 153 l 2
 1021 137 1040 103 1040 72 c 0
 1040 20 997 -21 945 -21 c 0
 929 -21 909 -16 895 -7 c 2
 218 389 l 2
 191 405 173 437 173 468 c 0
 173 513 208 554 254 561 c 0
 399 582 534 675 599 799 c 1
 179 801 l 2
 124 801 83 844 83 896 c 0
 83 948 126 991 178 991 c 2
 179 991 l 1
 632 989 l 1
 615 1084 543 1153 454 1163 c 0
 446 1164 446 1164 444 1165 c 2
 171 1166 l 2
 116 1166 75 1209 75 1261 c 0
 75 1313 118 1356 170 1356 c 2
 171 1356 l 1
 986 1353 l 2
 1041 1353 1083 1310 1083 1258 c 0
 1083 1206 1040 1163 988 1163 c 2
 987 1163 l 1
 766 1164 l 1
 801 1108 818 1049 824 989 c 1
 994 988 l 2
 1049 988 1091 945 1091 893 c 0
 1091 841 1048 798 996 798 c 2
 995 798 l 1
 802 799 l 1
EndSplineSet
EndChar

StartChar: uni25CC
Encoding: 9676 9676 113
Width: 1130
GlyphClass: 2
Flags: HW
LayerCount: 2
Fore
SplineSet
233 343 m 1
 301 245 268 281 361 226 c 2
 385 212 l 1
 276 74 l 1
 257 84 l 1
 148 151 139 168 84 246 c 1
 69 266 l 1
 220 365 l 1
 233 343 l 1
693 9 m 1
 660 -1 619 -6 571 -6 c 0
 523 -6 482 -1 445 9 c 1
 422 14 l 1
 450 183 l 1
 475 178 l 1
 517 171 549 168 568 168 c 0
 587 168 619 171 661 177 c 1
 686 182 l 1
 714 14 l 1
 693 9 l 1
205 406 m 1
 22 378 l 1
 17 401 l 2
 9 438 5 476 5 513 c 0
 5 550 9 587 17 625 c 2
 22 649 l 1
 205 621 l 1
 193 593 l 1
 187 576 183 548 183 513 c 0
 183 478 187 450 193 434 c 2
 205 406 l 1
360 800 m 1
 266 751 278 749 233 684 c 1
 220 662 l 1
 69 760 l 1
 84 780 l 1
 155 881 153 877 257 941 c 1
 275 954 l 1
 386 813 l 1
 360 800 l 1
1057 245 m 1
 977 138 998 152 881 84 c 1
 880 84 l 1
 860 74 l 1
 758 212 l 1
 780 226 l 1
 851 267 886 297 906 340 c 1
 919 366 l 1
 1074 266 l 1
 1057 245 l 1
1122 627 m 2
 1131 589 1136 551 1136 513 c 0
 1136 475 1131 438 1122 400 c 2
 1117 378 l 1
 944 406 l 1
 946 429 l 1
 952 467 955 494 955 510 c 0
 955 526 952 556 946 598 c 1
 944 621 l 1
 1117 649 l 1
 1122 627 l 2
714 1012 m 1
 686 844 l 1
 661 849 l 1
 619 856 589 858 568 858 c 0
 547 858 517 856 475 849 c 1
 450 844 l 1
 422 1012 l 1
 445 1017 l 1
 493 1029 535 1034 570 1034 c 0
 605 1034 645 1029 691 1017 c 1
 714 1012 l 1
908 684 m 1
 867 748 825 786 785 799 c 2
 754 809 l 1
 861 954 l 1
 881 941 l 1
 969 885 1014 850 1059 779 c 1
 1071 759 l 1
 921 662 l 1
 908 684 l 1
EndSplineSet
EndChar

StartChar: r4
Encoding: 65539 -1 114
Width: 614
GlyphClass: 2
LigCaretCntFixed: 1
Flags: HW
LayerCount: 2
Fore
SplineSet
304 1050 m 1
 306 1050 l 1
 345 1040 368 989 358 937 c 1
 312 630 283 425 272 321 c 1
 247 140 250 16 277 -46 c 0
 302 -105 355 -138 453 -141 c 0
 477 -142 500 -153 515 -170 c 1
 546 -202 554 -258 512 -298 c 0
 495 -314 472 -324 447 -323 c 0
 283 -317 168 -250 112 -121 c 0
 68 -18 64 136 93 345 c 1
 102 427 118 549 143 705 c 1
 165 861 177 949 180 970 c 1
 180 971 l 1
 191 1018 238 1060 304 1050 c 1
EndSplineSet
LCarets2: 1 0
EndChar

StartChar: y2
Encoding: 65540 -1 115
Width: 625
GlyphClass: 2
LigCaretCntFixed: 1
Flags: HW
LayerCount: 2
Fore
SplineSet
232 -421 m 0
 346 -421 433 -331 433 -219 c 0
 433 91 64 332 64 711 c 0
 64 792 76 877 101 958 c 1
 112 1000 153 1025 194 1025 c 0
 238 1025 287 989 287 941 c 0
 287 927 287 915 284 905 c 0
 265 834 255 768 255 702 c 0
 255 333 625 142 625 -219 c 0
 625 -430 458 -613 235 -613 c 0
 33 -613 -135 -461 -135 -258 c 0
 -135 -115 -61 -14 37 46 c 0
 53 56 71 61 88 61 c 0
 141 61 183 17 183 -38 c 0
 183 -69 166 -96 138 -112 c 0
 92 -139 55 -195 55 -255 c 0
 55 -347 133 -421 232 -421 c 0
EndSplineSet
LCarets2: 1 3
EndChar

StartChar: v2
Encoding: 65543 -1 118
Width: 437
GlyphClass: 3
LigCaretCntFixed: 1
Flags: HW
LayerCount: 2
Fore
SplineSet
-328 -246 m 0
 -328 -204 -299 -145 -247 -145 c 2
 173 -145 l 1
 169 931 l 1
 169 946 l 2
 169 992 224 1025 264 1025 c 0
 316 1025 359 983 359 932 c 2
 359 931 l 1
 363 -240 l 2
 363 -289 326 -335 268 -335 c 2
 -242 -335 l 2
 -292 -335 -328 -285 -328 -246 c 0
EndSplineSet
LCarets2: 1 0
EndChar

StartChar: k1cil
Encoding: 3455 3455 119
Width: 1945
GlyphClass: 3
Flags: HW
LayerCount: 2
Fore
SplineSet
1380 817 m 5
 1421 903 1463 1011 1463 1098 c 4
 1463 1183 1431 1250 1379 1303 c 4
 1363 1319 1349 1351 1349 1374 c 4
 1349 1429 1394 1474 1449 1474 c 4
 1473 1474 1506 1460 1522 1443 c 4
 1611 1353 1663 1241 1663 1095 c 4
 1663 929 1588 786 1529 665 c 5
 1698 621 1870 497 1870 285 c 4
 1870 118 1733 -32 1560 -32 c 4
 1434 -32 1346 38 1293 119 c 5
 1224 43 1112 -27 977 -27 c 4
 852 -27 747 34 679 104 c 5
 620 27 516 -30 408 -30 c 4
 225 -30 75 112 75 297 c 4
 75 549 307 664 537 683 c 5
 579 891 730 1097 980 1097 c 4
 1181 1097 1315 960 1380 817 c 5
980 897 m 4
 853 897 776 790 745 688 c 5
 1215 690 l 5
 1183 791 1107 897 980 897 c 4
1236 490 m 5
 1225 490 l 5
 724 488 l 5
 735 336 816 173 977 173 c 4
 1142 173 1224 336 1236 490 c 5
548 312 m 6
 548 336 l 5
 535 383 527 432 524 480 c 5
 412 467 275 417 275 299 c 4
 275 227 333 170 405 170 c 4
 485 170 548 234 548 312 c 6
1557 169 m 4
 1622 169 1669 223 1669 287 c 4
 1669 400 1551 458 1450 477 c 5
 1438 437 1429 390 1429 350 c 4
 1429 261 1471 169 1557 169 c 4
EndSplineSet
LCarets2: 2 0 0
EndChar

StartChar: nhcil
Encoding: 3450 3450 120
Width: 2769
GlyphClass: 2
Flags: HW
LayerCount: 2
Fore
SplineSet
1742 895 m 1
 1821 1006 1951 1095 2130 1095 c 0
 2142 1095 2155 1094 2167 1093 c 1
 2154 1154 2120 1213 2074 1253 c 0
 2054 1270 2039 1304 2039 1330 c 0
 2039 1385 2084 1430 2139 1430 c 0
 2161 1430 2189 1419 2205 1405 c 0
 2312 1313 2373 1177 2373 1037 c 2
 2373 1032 l 1
 2562 929 2694 709 2694 445 c 0
 2694 210 2553 -16 2308 -16 c 0
 2089 -16 1949 172 1949 384 c 0
 1949 609 2075 737 2140 894 c 1
 2137 894 2133 895 2130 895 c 0
 1906 895 1837 708 1837 479 c 2
 1837 459 l 1
 1839 81 l 1
 1839 80 l 2
 1839 25 1794 -19 1739 -19 c 0
 1685 -19 1640 25 1639 79 c 2
 1636 454 l 2
 1634 658 1601 895 1402 895 c 0
 1215 895 1165 691 1164 498 c 0
 1164 482 1165 466 1165 450 c 2
 1167 81 l 2
 1167 26 1122 -19 1067 -19 c 0
 1013 -19 968 25 967 79 c 0
 966 216 964 353 964 490 c 2
 964 497 l 1
 959 721 872 899 648 899 c 0
 471 899 333 757 291 601 c 1
 350 645 422 669 496 669 c 0
 687 669 839 520 839 327 c 0
 839 132 691 -14 496 -14 c 0
 229 -14 75 217 75 479 c 0
 75 806 319 1099 647 1099 c 0
 829 1099 973 1005 1055 891 c 1
 1120 995 1241 1095 1401 1095 c 0
 1559 1095 1677 998 1742 895 c 1
2328 822 m 1
 2271 683 2149 546 2149 386 c 0
 2149 283 2206 184 2308 184 c 0
 2436 184 2494 320 2494 448 c 0
 2494 610 2428 744 2328 822 c 1
497 469 m 0
 416 469 353 407 353 326 c 0
 353 243 410 186 495 186 c 0
 578 186 639 245 639 328 c 0
 639 406 575 469 497 469 c 0
EndSplineSet
LCarets2: 2 0 0
EndChar

StartChar: n1cil
Encoding: 3451 3451 121
Width: 2061
GlyphClass: 2
Flags: HW
LayerCount: 2
Fore
SplineSet
1300 1363 m 4
 1300 1417 1344 1463 1400 1463 c 4
 1416 1463 1440 1456 1453 1448 c 4
 1573 1376 1673 1242 1673 1060 c 4
 1673 1048 1672 1036 1671 1024 c 5
 1854 924 1986 708 1986 466 c 4
 1986 224 1839 -20 1578 -20 c 4
 1354 -20 1201 169 1201 388 c 4
 1201 618 1342 745 1421 891 c 5
 1418 891 1415 891 1412 891 c 4
 1253 891 1093 761 1093 593 c 6
 1091 78 l 6
 1090 23 1046 -21 991 -21 c 4
 937 -21 892 23 891 77 c 5
 892 612 l 5
 880 767 750 891 594 891 c 4
 418 891 275 736 275 551 c 4
 275 347 442 184 648 184 c 4
 665 184 681 187 698 187 c 4
 753 187 798 141 798 86 c 4
 798 36 758 -8 708 -13 c 4
 688 -15 667 -16 647 -16 c 4
 328 -16 75 237 75 553 c 4
 75 848 310 1091 594 1091 c 4
 754 1091 907 1009 997 886 c 5
 1091 1009 1248 1091 1412 1091 c 4
 1432 1091 1451 1090 1471 1088 c 5
 1461 1175 1413 1239 1350 1277 c 4
 1323 1293 1300 1331 1300 1363 c 4
1613 824 m 5
 1545 687 1402 557 1402 390 c 4
 1402 280 1468 180 1577 180 c 4
 1718 180 1786 329 1786 467 c 4
 1786 616 1716 752 1613 824 c 5
EndSplineSet
LCarets2: 2 0 0
EndChar

StartChar: l3cil
Encoding: 3453 3453 122
Width: 2092
GlyphClass: 3
Flags: HW
LayerCount: 2
Fore
SplineSet
1494 362 m 0
 1494 260 1561 166 1660 166 c 0
 1765 166 1827 268 1827 377 c 0
 1827 529 1751 637 1640 721 c 1
 1590 625 1494 470 1494 362 c 0
915 747 m 1
 788 664 704 546 704 388 c 0
 704 276 780 163 894 163 c 0
 1011 163 1089 276 1089 397 c 0
 1089 555 1022 670 915 747 c 1
516 390 m 0
 516 580 610 726 719 826 c 1
 694 830 672 832 649 832 c 0
 431 832 265 670 265 462 c 0
 265 317 357 200 461 144 c 1
 491 129 510 103 510 72 c 0
 510 24 474 -24 420 -24 c 0
 401 -24 383 -21 367 -12 c 0
 211 74 75 245 75 465 c 0
 75 783 345 1023 656 1023 c 0
 740 1023 831 1003 917 962 c 1
 1023 1010 1139 1036 1259 1036 c 0
 1350 1036 1444 1021 1530 990 c 1
 1531 999 1531 1004 1531 1012 c 0
 1531 1110 1463 1201 1378 1216 c 1
 1322 1227 1289 1264 1289 1320 c 2
 1289 1322 l 2
 1289 1362 1331 1408 1373 1408 c 0
 1385 1408 1393 1408 1402 1407 c 1
 1403 1407 l 1
 1579 1374 1721 1223 1721 1013 c 0
 1721 977 1716 937 1708 900 c 1
 1873 792 2017 615 2017 371 c 0
 2017 170 1885 -24 1660 -24 c 0
 1443 -24 1304 157 1304 355 c 0
 1304 527 1415 686 1476 810 c 1
 1403 836 1331 848 1259 848 c 0
 1207 848 1154 841 1102 828 c 1
 1214 717 1279 577 1279 400 c 0
 1279 182 1139 -26 895 -26 c 0
 656 -26 516 178 516 390 c 0
EndSplineSet
LCarets2: 2 0 0
EndChar

StartChar: lhcil
Encoding: 3454 3454 123
Width: 1939
GlyphClass: 3
Flags: HW
LayerCount: 2
Fore
SplineSet
1050 419 m 4
 1050 632 1164 761 1233 902 c 5
 1090 898 1003 809 975 688 c 4
 966 648 963 603 963 553 c 4
 963 539 964 525 964 510 c 6
 964 479 l 6
 964 465 965 450 965 435 c 4
 965 243 892 110 767 35 c 4
 704 -3 640 -22 557 -22 c 4
 401 -22 283 54 206 143 c 4
 117 247 75 380 75 511 c 4
 75 782 240 988 432 1082 c 4
 444 1088 465 1093 478 1093 c 4
 533 1093 578 1048 578 993 c 4
 578 958 552 918 520 903 c 4
 389 839 275 697 275 512 c 4
 275 371 350 246 459 199 c 4
 490 185 524 178 557 178 c 4
 706 178 765 288 765 439 c 4
 765 451 764 463 764 475 c 6
 764 506 l 6
 764 523 763 542 763 560 c 4
 763 732 804 858 897 957 c 4
 980 1045 1088 1102 1241 1102 c 4
 1255 1102 1270 1102 1284 1101 c 5
 1280 1177 1251 1253 1201 1308 c 4
 1186 1324 1174 1354 1174 1376 c 4
 1174 1431 1219 1476 1274 1476 c 4
 1301 1476 1332 1461 1349 1442 c 4
 1437 1345 1485 1217 1485 1088 c 4
 1485 1075 1484 1062 1483 1049 c 5
 1693 955 1864 738 1864 456 c 4
 1864 360 1842 261 1787 174 c 4
 1724 74 1606 -20 1450 -20 c 4
 1295 -20 1176 74 1115 176 c 4
 1070 251 1050 336 1050 419 c 4
1431 852 m 5
 1381 738 1288 612 1260 499 c 4
 1254 473 1250 447 1250 421 c 4
 1250 324 1295 244 1359 206 c 4
 1387 189 1419 180 1450 180 c 4
 1527 180 1585 229 1618 281 c 4
 1649 330 1664 393 1664 458 c 4
 1664 641 1560 782 1431 852 c 5
EndSplineSet
LCarets2: 2 0 0
EndChar

StartChar: r3cil
Encoding: 3452 3452 124
Width: 1416
GlyphClass: 3
Flags: HW
LayerCount: 2
Fore
SplineSet
548 397 m 4
 548 618 674 743 746 891 c 5
 727 894 707 895 688 895 c 4
 460 895 275 715 275 495 c 4
 275 341 369 217 476 159 c 4
 505 143 529 103 529 70 c 4
 529 15 484 -30 429 -30 c 4
 415 -30 393 -24 380 -17 c 4
 216 72 75 257 75 495 c 4
 75 824 347 1095 684 1095 c 4
 719 1095 755 1093 790 1087 c 5
 780 1172 736 1234 678 1275 c 4
 654 1291 634 1329 634 1358 c 4
 634 1413 679 1458 734 1458 c 4
 753 1458 777 1450 792 1439 c 4
 900 1364 992 1229 992 1058 c 4
 992 1045 991 1032 990 1018 c 5
 1151 931 1274 772 1321 590 c 4
 1334 539 1342 485 1342 431 c 4
 1342 357 1327 283 1294 213 c 4
 1236 91 1114 -24 939 -24 c 4
 806 -24 701 47 639 127 c 4
 578 206 548 301 548 397 c 4
748 400 m 4
 748 285 821 176 939 176 c 4
 1024 176 1084 237 1114 299 c 4
 1133 339 1141 385 1141 433 c 4
 1141 468 1136 505 1127 540 c 4
 1098 653 1027 755 934 818 c 5
 879 701 769 557 751 437 c 4
 749 425 748 413 748 400 c 4
EndSplineSet
LCarets2: 2 0 0
EndChar

StartChar: k1u1
Encoding: 65544 -1 125
Width: 1933
GlyphClass: 3
LigCaretCntFixed: 1
Flags: HW
LayerCount: 2
Fore
SplineSet
1491 143 m 0
 1523 143 1547 129 1583 129 c 0
 1614 129 1658 143 1657 175 c 24
 1656 220 1581 208 1539 212 c 0
 1488 216 1446 248 1446 299 c 0
 1446 360 1495 387 1558 387 c 0
 1597 387 1657 401 1657 434 c 0
 1657 494 1535 499 1465 499 c 0
 1463 499 1461 499 1459 499 c 1
 1454 385 1422 268 1351 168 c 0
 1280 68 1156 -27 994 -27 c 0
 865 -27 758 35 688 107 c 1
 627 26 521 -30 409 -30 c 0
 227 -30 75 116 75 298 c 4
 75 555 312 667 546 686 c 1
 589 896 742 1105 996 1105 c 0
 1246 1105 1396 904 1442 700 c 1
 1451 700 1460 700 1469 700 c 0
 1656 700 1857 636 1857 436 c 0
 1857 379 1819 336 1793 302 c 1
 1819 271 1858 225 1858 174 c 0
 1858 34 1725 -48 1583 -48 c 0
 1543 -48 1501 -41 1460 -27 c 0
 1422 -15 1391 28 1391 68 c 0
 1391 123 1436 143 1491 143 c 0
995 905 m 0
 865 905 786 795 754 691 c 1
 1237 694 l 1
 1204 798 1126 905 995 905 c 0
1258 494 m 1
 1245 494 l 1
 733 491 l 1
 744 337 828 173 993 173 c 0
 1161 173 1246 339 1258 494 c 1
275 297 m 0
 275 223 343 171 413 171 c 0
 503 171 557 246 557 333 c 2
 557 340 l 1
 544 387 536 435 533 483 c 1
 414 469 275 422 275 297 c 0
EndSplineSet
LCarets2: 1 0
EndChar

StartChar: k1u2
Encoding: 65545 -1 126
Width: 1943
GlyphClass: 3
LigCaretCntFixed: 1
Flags: HW
LayerCount: 2
Fore
SplineSet
979 18 m 0
 853 18 747 78 677 147 c 1
 616 69 513 16 405 16 c 0
 387 16 368 17 349 20 c 0
 206 45 75 174 75 339 c 0
 75 523 216 637 352 685 c 0
 417 708 482 719 545 723 c 1
 582 859 669 978 787 1041 c 0
 845 1072 910 1090 980 1090 c 0
 1128 1090 1244 1010 1314 924 c 0
 1361 866 1393 801 1413 733 c 1
 1545 733 1641 724 1735 660 c 0
 1796 619 1856 546 1856 446 c 0
 1856 375 1815 314 1778 275 c 5
 1817 228 1851 165 1851 97 c 0
 1851 -57 1732 -155 1603 -179 c 0
 1560 -187 1523 -187 1490 -187 c 2
 518 -196 l 2
 421 -197 334 -197 293 -245 c 0
 285 -255 281 -264 281 -272 c 0
 281 -299 319 -317 345 -325 c 0
 380 -336 423 -338 474 -338 c 2
 521 -338 l 1
 1765 -319 l 2
 1766 -319 1767 -319 1768 -319 c 0
 1823 -319 1868 -364 1868 -419 c 0
 1868 -474 1823 -519 1768 -519 c 2
 524 -538 l 2
 504 -538 482 -539 459 -539 c 0
 406 -539 347 -536 286 -517 c 0
 186 -486 81 -402 81 -270 c 0
 81 -146 179 -61 270 -27 c 0
 360 6 446 3 517 4 c 2
 1488 13 l 2
 1570 14 1652 23 1652 100 c 0
 1652 148 1630 196 1577 196 c 0
 1507 196 1427 218 1427 283 c 0
 1427 346 1505 368 1572 368 c 0
 1620 368 1657 398 1657 443 c 0
 1657 522 1523 531 1438 533 c 1
 1435 420 1404 304 1334 207 c 0
 1263 109 1139 18 979 18 c 0
1201 729 m 1
 1164 809 1091 890 981 890 c 0
 869 890 795 808 759 727 c 1
 1201 729 l 1
1238 530 m 1
 1234 530 1230 529 1226 529 c 2
 723 527 l 1
 728 406 782 300 866 250 c 0
 901 229 940 218 979 218 c 0
 1013 218 1048 227 1081 245 c 0
 1173 294 1232 403 1238 530 c 1
409 216 m 0
 486 216 548 282 548 358 c 0
 548 360 548 362 548 364 c 0
 533 415 525 467 523 519 c 1
 440 509 367 485 321 439 c 0
 294 412 275 376 275 339 c 0
 275 268 341 216 409 216 c 0
EndSplineSet
LCarets2: 1 0
EndChar

StartChar: k1r1
Encoding: 65546 -1 127
Width: 1927
GlyphClass: 3
LigCaretCntFixed: 1
Flags: HW
LayerCount: 2
Fore
SplineSet
414 -26 m 0
 228 -26 75 116 75 304 c 0
 75 561 315 677 552 694 c 1
 598 898 750 1098 1000 1098 c 0
 1252 1098 1405 896 1450 691 c 1
 1689 656 1852 448 1852 195 c 0
 1852 -246 1442 -572 1006 -572 c 0
 815 -572 610 -515 610 -309 c 0
 610 -119 797 -37 970 -37 c 0
 1143 -37 1318 -104 1347 -273 c 1
 1492 -186 1652 -20 1652 193 c 0
 1652 330 1577 449 1465 483 c 1
 1448 228 1282 -23 998 -23 c 0
 869 -23 760 39 690 111 c 1
 630 32 525 -26 414 -26 c 0
1240 698 m 1
 1206 797 1127 898 1000 898 c 0
 873 898 795 796 761 698 c 1
 1240 698 l 1
1265 499 m 1
 735 498 l 1
 745 341 831 177 997 177 c 0
 1166 177 1254 342 1265 499 c 1
560 340 m 1
 546 390 538 441 535 491 c 1
 418 478 275 428 275 306 c 0
 275 231 336 174 411 174 c 0
 508 174 558 247 560 340 c 1
810 -310 m 0
 810 -368 924 -372 995 -372 c 0
 1051 -372 1150 -365 1150 -313 c 0
 1150 -249 1049 -237 974 -237 c 0
 903 -237 810 -248 810 -310 c 0
EndSplineSet
LCarets2: 1 0
EndChar

StartChar: k1k1
Encoding: 65548 -1 129
Width: 2548
GlyphClass: 3
LigCaretCntFixed: 1
Flags: HW
LayerCount: 2
Fore
SplineSet
411 -24 m 0
 230 -24 75 115 75 301 c 0
 75 556 316 660 553 675 c 1
 596 887 749 1097 1007 1097 c 0
 1203 1097 1337 970 1406 836 c 1
 1512 983 1693 1098 1901 1098 c 0
 2222 1098 2473 834 2473 522 c 0
 2473 255 2287 50 2079 -18 c 0
 2070 -21 2055 -23 2046 -23 c 0
 1991 -23 1946 22 1946 77 c 0
 1946 118 1978 160 2017 172 c 0
 2152 216 2274 352 2274 525 c 0
 2274 733 2108 898 1902 898 c 0
 1741 898 1604 791 1537 668 c 1
 1746 640 1962 530 1962 290 c 0
 1962 113 1812 -24 1644 -24 c 0
 1513 -24 1405 59 1348 146 c 1
 1276 58 1154 -24 1005 -24 c 0
 874 -24 764 40 693 113 c 1
 630 31 523 -24 411 -24 c 0
1108 872 m 0
 1075 890 1041 897 1010 897 c 0
 874 897 793 786 760 678 c 1
 1255 679 l 1
 1229 763 1179 834 1108 872 c 0
1273 479 m 1
 1259 479 l 1
 741 478 l 1
 756 328 843 176 1005 176 c 0
 1168 176 1258 330 1273 479 c 1
1476 473 m 1
 1474 456 1473 439 1473 423 c 0
 1473 306 1525 177 1643 177 c 0
 1706 177 1763 222 1763 288 c 0
 1763 418 1602 462 1476 473 c 1
414 177 m 0
 498 177 566 247 566 330 c 0
 566 331 565 333 565 334 c 0
 551 379 543 427 540 473 c 1
 422 463 275 421 275 300 c 0
 275 227 346 177 414 177 c 0
EndSplineSet
LCarets2: 2 0 0
EndChar

StartChar: k1k1u1
Encoding: 65549 -1 130
Width: 2559
GlyphClass: 3
LigCaretCntFixed: 1
Flags: HW
LayerCount: 2
Fore
SplineSet
2285 262 m 0
 2285 349 2210 368 2117 368 c 2
 2086 368 l 2
 2031 368 1986 413 1986 468 c 0
 1986 516 2025 560 2072 567 c 2
 2098 571 l 2
 2102 572 2109 572 2113 572 c 0
 2187 572 2251 625 2251 701 c 0
 2251 831 2101 899 1965 899 c 0
 1786 899 1651 797 1570 683 c 1
 1759 644 1956 524 1956 295 c 0
 1956 114 1804 -26 1632 -26 c 0
 1506 -26 1394 53 1337 141 c 1
 1265 57 1146 -21 1001 -21 c 0
 871 -21 763 42 692 114 c 1
 630 33 524 -24 412 -24 c 0
 228 -24 75 124 75 307 c 0
 75 566 316 682 555 699 c 1
 603 900 755 1095 1004 1095 c 0
 1210 1095 1348 958 1415 811 c 1
 1524 960 1725 1100 1961 1100 c 0
 2210 1100 2451 953 2451 701 c 0
 2451 625 2425 552 2377 493 c 1
 2440 441 2485 355 2485 262 c 0
 2485 87 2344 -46 2168 -46 c 0
 2080 -46 1952 -9 1952 85 c 0
 1952 140 1997 185 2052 185 c 0
 2093 185 2124 154 2167 154 c 0
 2229 154 2285 199 2285 262 c 0
1242 703 m 1
 1207 797 1130 895 1007 895 c 0
 882 895 800 797 765 702 c 1
 1242 703 l 1
736 502 m 1
 745 343 834 179 1002 179 c 0
 1171 179 1261 344 1271 503 c 1
 1270 503 l 1
 736 502 l 1
275 306 m 0
 275 231 345 177 416 177 c 0
 506 177 563 253 562 341 c 1
 547 392 539 443 537 495 c 1
 417 482 275 432 275 306 c 0
1634 173 m 0
 1698 173 1756 227 1756 293 c 0
 1756 425 1606 480 1481 495 c 1
 1472 460 1467 426 1467 394 c 0
 1467 284 1524 173 1634 173 c 0
EndSplineSet
LCarets2: 1 0
EndChar

StartChar: k1k1u2
Encoding: 65550 -1 131
Width: 2533
GlyphClass: 3
LigCaretCntFixed: 1
Flags: HW
LayerCount: 2
Fore
SplineSet
2314 476 m 1
 2397 418 2458 326 2458 197 c 0
 2458 -123 2165 -243 1861 -245 c 2
 610 -254 l 1
 590 -254 l 2
 560 -254 532 -253 504 -253 c 0
 418 -253 310 -254 279 -306 c 0
 276 -311 275 -316 275 -319 c 0
 275 -376 382 -377 455 -377 c 2
 2349 -382 l 1
 2350 -382 l 2
 2405 -382 2450 -427 2450 -482 c 0
 2450 -537 2405 -582 2350 -582 c 2
 2348 -582 l 1
 455 -577 l 2
 276 -577 75 -516 75 -319 c 0
 75 -106 294 -53 498 -53 c 0
 533 -53 566 -54 598 -54 c 2
 608 -54 l 1
 1859 -45 l 2
 2059 -44 2258 1 2258 197 c 0
 2258 323 2150 343 2029 354 c 0
 1979 359 1938 404 1938 454 c 0
 1938 502 1977 545 2024 552 c 2
 2049 556 l 1
 2126 567 2195 609 2195 697 c 0
 2195 827 2054 901 1919 901 c 0
 1733 901 1609 787 1533 666 c 1
 1713 630 1885 521 1911 327 c 0
 1913 313 1914 299 1914 285 c 0
 1914 110 1770 -31 1600 -31 c 0
 1471 -31 1367 49 1311 135 c 1
 1241 52 1126 -24 983 -24 c 0
 857 -24 752 37 684 107 c 1
 625 30 521 -27 413 -27 c 0
 230 -27 81 113 81 298 c 0
 81 549 313 662 543 680 c 1
 585 887 736 1091 986 1091 c 0
 1189 1091 1324 953 1388 809 c 1
 1495 961 1670 1101 1920 1101 c 0
 2161 1101 2403 913 2403 696 c 0
 2403 624 2376 549 2314 476 c 1
985 891 m 0
 858 891 782 785 751 684 c 1
 1221 685 l 1
 1197 762 1150 828 1086 864 c 0
 1054 882 1019 891 985 891 c 0
1231 485 m 2
 1064 485 897 484 730 484 c 1
 742 335 823 176 983 176 c 0
 1146 176 1228 335 1241 485 c 1
 1231 485 l 2
554 315 m 2
 554 338 l 1
 541 384 533 430 530 477 c 1
 410 463 283 337 283 252 c 0
 283 207 319 173 410 173 c 0
 490 173 554 237 554 315 c 2
1601 169 m 0
 1663 169 1714 222 1714 287 c 0
 1714 409 1569 461 1454 476 c 1
 1447 443 1442 411 1442 380 c 0
 1442 273 1498 169 1601 169 c 0
EndSplineSet
LCarets2: 1 3
EndChar

StartChar: k1k1r1
Encoding: 65551 -1 132
Width: 2444
GlyphClass: 3
LigCaretCntFixed: 1
Flags: HW
LayerCount: 2
Fore
SplineSet
1622 -327 m 0
 1603 -292 1551 -268 1454 -267 c 0
 1357 -266 1305 -290 1286 -324 c 0
 1274 -346 1275 -359 1291 -379 c 0
 1315 -407 1385 -427 1507 -421 c 0
 1563 -418 1598 -403 1615 -384 c 0
 1632 -364 1634 -349 1622 -327 c 0
1435 463 m 1
 1406 340 1438 250 1505 204 c 1
 1564 159 1639 165 1682 216 c 1
 1731 269 1710 339 1658 385 c 1
 1611 425 1536 452 1435 463 c 1
524 464 m 1
 423 453 355 429 312 390 c 0
 263 346 248 283 292 230 c 0
 373 133 557 189 549 321 c 1
 549 326 l 1
 534 371 526 417 524 464 c 1
715 470 m 1
 724 312 826 187 968 181 c 0
 1058 178 1128 227 1171 281 c 0
 1212 332 1234 396 1238 471 c 1
 1221 471 l 1
 715 470 l 1
1211 663 m 1
 1170 759 1080 834 974 832 c 0
 868 830 782 755 743 662 c 1
 1211 663 l 1
1458 875 m 0
 1637 1044 1893 1076 2103 929 c 1
 2188 873 2254 800 2301 707 c 1
 2379 547 2391 364 2339 157 c 1
 2265 -165 2061 -440 1776 -554 c 0
 1675 -594 1574 -615 1473 -613 c 0
 1373 -611 1302 -601 1256 -581 c 0
 1162 -540 1104 -472 1090 -383 c 1
 1072 -247 1157 -159 1237 -111 c 1
 1339 -53 1575 -57 1673 -115 c 1
 1755 -166 1805 -234 1816 -315 c 1
 1980 -208 2100 -31 2155 198 c 1
 2155 199 l 1
 2175 269 2183 343 2180 421 c 0
 2173 586 2111 704 1995 780 c 1
 1899 847 1800 855 1693 807 c 1
 1617 776 1556 722 1507 647 c 1
 1623 627 1712 586 1776 525 c 1
 1884 431 1923 324 1887 207 c 1
 1853 91 1753 -8 1604 -13 c 1
 1472 -19 1364 60 1303 151 c 1
 1228 62 1109 -14 962 -9 c 0
 849 -5 751 41 672 124 c 1
 626 63 569 24 496 4 c 1
 341 -41 211 26 139 122 c 1
 36 251 69 421 172 518 c 0
 260 601 387 648 543 659 c 1
 562 730 590 788 631 837 c 1
 721 956 836 1020 971 1021 c 0
 1038 1022 1103 1006 1162 975 c 0
 1252 929 1320 860 1366 771 c 1
 1394 811 1424 844 1458 875 c 0
EndSplineSet
LCarets2: 1 0
EndChar

StartChar: k1k1r3
Encoding: 65552 -1 133
Width: 2836
GlyphClass: 3
LigCaretCntFixed: 1
Flags: HW
LayerCount: 2
Fore
SplineSet
1351 1091 m 4
 1537 1091 1667 972 1735 846 c 5
 1831 985 1988 1093 2182 1093 c 4
 2549 1093 2762 753 2762 414 c 4
 2762 -25 2470 -310 2104 -389 c 4
 1985 -415 1868 -418 1758 -420 c 6
 1314 -430 l 6
 1268 -431 1221 -432 1173 -432 c 4
 1094 -432 1014 -429 932 -419 c 4
 480 -365 75 -74 75 425 c 4
 75 724 246 956 446 1075 c 4
 459 1083 482 1090 498 1090 c 4
 553 1090 598 1045 598 990 c 4
 598 958 576 919 548 903 c 4
 401 816 274 642 274 423 c 4
 274 -45 699 -232 1175 -232 c 4
 1219 -232 1265 -231 1310 -230 c 6
 1753 -220 l 6
 1862 -218 1966 -214 2062 -193 c 4
 2343 -132 2562 77 2562 413 c 4
 2562 647 2429 893 2183 893 c 4
 2039 893 1921 789 1864 671 c 5
 2069 639 2280 520 2280 282 c 4
 2280 107 2136 -30 1969 -30 c 4
 1840 -30 1734 53 1680 139 c 5
 1610 54 1494 -25 1349 -25 c 4
 1223 -25 1117 36 1049 106 c 5
 988 27 885 -28 776 -28 c 4
 596 -28 446 117 446 296 c 4
 446 547 678 661 908 679 c 5
 950 888 1100 1091 1351 1091 c 4
1452 865 m 4
 1419 883 1385 893 1351 893 c 4
 1223 893 1147 786 1116 684 c 5
 1587 684 l 5
 1563 762 1516 829 1452 865 c 4
1606 484 m 5
 1096 484 l 5
 1108 334 1189 175 1349 175 c 4
 1511 175 1593 335 1606 484 c 5
646 296 m 4
 646 224 712 173 780 173 c 4
 867 173 919 246 919 330 c 6
 919 338 l 5
 906 384 899 431 896 477 c 5
 782 464 646 416 646 296 c 4
1811 476 m 5
 1809 457 1808 440 1808 422 c 4
 1808 306 1852 170 1968 170 c 4
 2028 170 2080 218 2080 282 c 4
 2080 410 1932 461 1811 476 c 5
EndSplineSet
LCarets2: 1 0
EndChar

StartChar: k1nh
Encoding: 65555 -1 136
Width: 1805
GlyphClass: 3
LigCaretCntFixed: 1
Flags: HW
HStem: -747 119<182.204 370.041 1362.17 1564.82> -400 121<181.289 367.015> -124 120<259.532 547.287 822.629 1035.78 1305.87 1576.08> 4 137<265.343 488.234 780.641 1067.27 1295.08 1499.74> 516 137<331.761 519.872 672.815 1178.19> 885 136<794.402 1056.18>
VStem: 0 155<-601.383 -328.676> 81 133<197.653 418.087> 395 119<-603.673 -429.039> 520 133<299.014 516.328> 535 138<654.771 749.445> 632 120<-745.805 -218.736> 1109 121<-744.834 -205.614> 1178 138<656.721 751.705> 1199 133<304.049 519.253> 1560 132<204.351 439.925> 1684 120<-521.841 -236.788>
LayerCount: 2
Fore
SplineSet
282 -603 m 0
 333 -603 370 -565 370 -515 c 0
 370 -468 325 -427 275 -427 c 0
 217 -427 180 -470 180 -520 c 0
 180 -567 224 -603 282 -603 c 0
778 -425 m 1
 778 -428 l 1
 779 -689 l 2
 779 -745 735 -775 690 -775 c 0
 644 -775 610 -732 609 -691 c 2
 607 -430 l 2
 605 -251 559 -148 399 -148 c 0
 313 -148 238 -202 194 -266 c 1
 222 -256 248 -253 274 -253 c 0
 415 -253 539 -375 539 -518 c 0
 539 -662 426 -774 282 -774 c 0
 91 -774 -25 -619 -25 -422 c 0
 -25 -197 160 26 395 26 c 0
 516 26 621 -32 686 -109 c 1
 737 -39 820 21 930 21 c 0
 1039 21 1121 -39 1171 -105 c 1
 1234 -23 1321 21 1444 21 c 0
 1662 21 1830 -161 1830 -373 c 0
 1830 -585 1658 -772 1438 -772 c 0
 1379 -772 1334 -743 1334 -680 c 0
 1334 -644 1368 -599 1408 -599 c 0
 1560 -599 1660 -516 1660 -374 c 0
 1660 -264 1564 -150 1444 -150 c 0
 1301 -150 1255 -240 1255 -409 c 2
 1255 -422 l 1
 1256 -689 l 2
 1256 -736 1219 -775 1172 -775 c 0
 1125 -775 1087 -738 1086 -691 c 2
 1084 -423 l 2
 1083 -329 1072 -267 1056 -239 c 0
 1022 -175 982 -151 930 -151 c 0
 828 -151 778 -252 777 -397 c 0
 777 -406 777 -416 778 -425 c 1
EndSplineSet
Refer: 57 3349 S 0.949951 0 0 0.974956 -14 23 2
LCarets2: 2 0 0
EndChar

StartChar: k1nhu1
Encoding: 65556 -1 137
Width: 1973
GlyphClass: 3
LigCaretCntFixed: 1
Flags: HW
HStem: 5 137<324.343 547.234 839.64 1126.27 1354.08 1558.74> 514 137<390.761 578.872 731.815 1237.19> 881 135<853.402 1115.18>
VStem: 140 133<196.968 416.539> 579 133<297.932 514.394> 594 138<652.295 746.597> 664 121<-736.64 -246.359> 1189 121<-740.567 -257.25> 1237 138<654.238 748.849> 1258 133<302.947 517.308> 1619 132<203.64 438.292>
LayerCount: 2
Fore
SplineSet
1802 -483 m 0
 1792 -407 1740 -354 1656 -375 c 0
 1587 -392 1540 -482 1588 -550 c 1
 1630 -601 1713 -619 1777 -551 c 0
 1798 -529 1805 -508 1802 -483 c 0
330 -582 m 0
 363 -572 393 -541 403 -505 c 0
 418 -444 375 -381 320 -367 c 1
 268 -355 231 -366 200 -404 c 0
 168 -442 163 -482 181 -524 c 1
 213 -570 262 -602 330 -582 c 0
639 -414 m 1
 639 -410 l 1
 640 -394 640 -382 638 -368 c 0
 617 -190 411 -91 256 -191 c 1
 265 -190 269 -190 276 -190 c 0
 433 -182 568 -309 575 -464 c 0
 581 -601 489 -713 382 -745 c 0
 324 -763 264 -761 201 -743 c 0
 30 -693 -78 -464 3 -254 c 0
 79 -61 299 85 548 -12 c 0
 614 -38 668 -78 711 -129 c 1
 742 -84 777 -51 823 -27 c 0
 934 31 1046 31 1152 -29 c 0
 1198 -55 1236 -90 1265 -134 c 1
 1315 -75 1375 -37 1449 -12 c 0
 1585 33 1710 17 1821 -66 c 0
 1930 -147 1990 -251 1997 -374 c 0
 2004 -495 1968 -600 1887 -684 c 0
 1829 -744 1711 -790 1592 -753 c 0
 1460 -712 1362 -560 1415 -393 c 1
 1459 -270 1583 -183 1719 -200 c 1
 1661 -160 1588 -145 1503 -172 c 0
 1443 -192 1400 -226 1373 -274 c 0
 1345 -324 1332 -371 1335 -418 c 1
 1335 -422 l 1
 1334 -684 l 2
 1334 -730 1295 -769 1249 -769 c 0
 1201 -769 1165 -729 1164 -685 c 1
 1164 -430 l 2
 1164 -287 1146 -221 1064 -175 c 0
 1013 -146 964 -144 912 -172 c 0
 833 -214 810 -282 810 -422 c 2
 810 -683 l 1
 809 -739 764 -765 720 -765 c 0
 676 -765 640 -726 640 -682 c 2
 639 -414 l 1
EndSplineSet
Refer: 57 3349 S 0.949951 0 0 0.971135 45 23 2
LCarets2: 1 0
EndChar

StartChar: k1nhu2
Encoding: 65557 -1 138
Width: 1963
GlyphClass: 3
LigCaretCntFixed: 1
Flags: HW
HStem: -15 141<300.06 534.695 842.507 1144.24 1384.05 1599.49> 510 141<369.978 568 729 1261> 888 139<856.993 1132.56>
VStem: 106 140<183.139 409.236> 568 140<287.104 510> 584 145<652 749.105> 665 121<-753.469 -267.75> 1190 120<-756.425 -269.443> 1261 145<654 751.423> 1283 140<292.268 513> 1663 139<190.009 431.635>
LayerCount: 2
Fore
SplineSet
331 -599 m 0
 366 -588 394 -560 403 -520 c 0
 416 -460 375 -395 320 -383 c 0
 268 -372 232 -385 201 -423 c 0
 170 -462 165 -499 182 -541 c 1
 211 -585 267 -619 331 -599 c 0
1815 -358 m 1
 1714 -364 1638 -437 1629 -505 c 0
 1617 -582 1678 -624 1743 -602 c 1
 1821 -574 1847 -460 1815 -358 c 1
640 -433 m 1
 640 -426 l 1
 641 -413 640 -401 638 -387 c 0
 624 -265 518 -153 369 -171 c 0
 324 -176 286 -189 255 -211 c 1
 263 -210 272 -209 280 -209 c 0
 436 -202 570 -326 577 -481 c 0
 583 -617 490 -729 383 -762 c 0
 220 -813 90 -721 33 -625 c 1
 -10 -557 -28 -477 -22 -384 c 0
 -16 -289 26 -200 101 -121 c 0
 178 -40 277 1 395 1 c 0
 523 1 632 -49 713 -147 c 1
 771 -65 863 0 992 -3 c 0
 1113 -6 1207 -69 1263 -151 c 1
 1343 -57 1466 12 1627 -10 c 1
 1756 -26 1857 -93 1926 -201 c 1
 2095 -247 2214 -380 2237 -569 c 0
 2261 -761 2139 -925 2009 -994 c 0
 1839 -1084 1643 -1045 1519 -937 c 1
 1517 -936 l 1
 1516.24310308 -934.486206157 1490 -898.679426376 1490 -875 c 0
 1490 -829 1526 -787 1574 -787 c 0
 1595 -787 1616 -795 1632 -810 c 0
 1709 -876 1825 -900 1928 -844 c 0
 2007 -801 2082 -702 2067 -588 c 0
 2058 -524 2036 -474 2000 -435 c 1
 2009 -607 1904 -742 1761 -774 c 0
 1630 -803 1524 -723 1484 -637 c 0
 1461 -589 1453 -538 1459 -487 c 0
 1475 -356 1573 -253 1698 -210 c 1
 1637 -173 1575 -167 1502 -190 c 0
 1394 -224 1335 -302 1335 -441 c 2
 1335 -702 l 2
 1335 -752 1297 -786 1244 -786 c 0
 1200 -786 1165 -742 1165 -702 c 2
 1164 -448 l 2
 1164 -307 1144 -240 1063 -193 c 0
 1013 -164 966 -162 914 -190 c 0
 835 -232 811 -300 811 -440 c 2
 811 -699 l 2
 811 -748 773 -783 722 -783 c 0
 678 -783 641 -742 641 -699 c 2
 640 -433 l 1
EndSplineSet
Refer: 57 3349 N 1 0 0 1 6 4 2
LCarets2: 1 0
EndChar

StartChar: k1th1
Encoding: 65558 -1 139
Width: 3320
GlyphClass: 3
LigCaretCntFixed: 1
Flags: HW
LayerCount: 2
Fore
SplineSet
1596 651 m 5
 1657 901 1888 1100 2166 1100 c 4
 2242 1100 2322 1085 2400 1052 c 5
 2484 1088 2568 1104 2649 1104 c 4
 2970 1104 3245 849 3245 518 c 4
 3245 262 3077 64 2884 -12 c 4
 2874 -16 2857 -20 2846 -20 c 4
 2791 -20 2746 25 2746 80 c 4
 2746 118 2775 161 2811 174 c 4
 2936 223 3045 352 3045 518 c 4
 3045 733 2870 903 2651 903 c 4
 2639 903 2628 903 2616 902 c 5
 2728 781 2798 632 2798 440 c 4
 2798 199 2649 -23 2400 -23 c 4
 2152 -23 2001 201 2001 440 c 4
 2001 631 2070 779 2182 899 c 5
 2165 899 l 6
 1954 899 1780 726 1780 508 c 4
 1780 352 1871 227 1992 166 c 4
 2023 151 2049 111 2049 76 c 4
 2049 21 2004 -24 1949 -24 c 4
 1935 -24 1914 -19 1902 -13 c 4
 1732 72 1612 237 1585 430 c 5
 1550 454 1511 473 1469 485 c 5
 1452 230 1284 -20 1002 -20 c 4
 872 -20 763 43 692 115 c 5
 630 34 524 -23 412 -23 c 4
 228 -23 75 124 75 307 c 4
 75 566 317 679 554 698 c 5
 601 901 754 1099 1003 1099 c 4
 1256 1099 1408 899 1454 693 c 5
 1506 684 1552 670 1596 651 c 5
1242 706 m 5
 1207 802 1129 900 1004 900 c 4
 877 900 799 800 764 703 c 5
 1242 706 l 5
2400 825 m 5
 2286 747 2201 605 2201 444 c 4
 2201 315 2266 178 2397 178 c 4
 2529 178 2598 310 2598 442 c 4
 2598 609 2513 747 2400 825 c 5
1270 506 m 5
 737 503 l 5
 746 345 834 180 1001 180 c 4
 1170 180 1260 347 1270 506 c 5
276 307 m 4
 276 232 345 178 416 178 c 4
 506 178 562 255 562 342 c 6
 562 343 l 5
 548 393 540 444 537 495 c 5
 418 481 276 432 276 307 c 4
EndSplineSet
LCarets2: 1 3
EndChar

StartChar: k1th1u1
Encoding: 65559 -1 140
Width: 3268
GlyphClass: 3
LigCaretCntFixed: 1
Flags: HW
LayerCount: 2
Fore
SplineSet
2334 749 m 1
 2227 685 2138 572 2138 417 c 0
 2138 295 2212 182 2333 182 c 0
 2452 182 2532 290 2532 413 c 0
 2532 573 2453 680 2334 749 c 1
1733 458 m 1
 1733 448 l 1
 1736 316 1827 218 1934 172 c 0
 1971 157 1991 122 1991 80 c 0
 1991 34 1947 -10 1902 -10 c 0
 1885 -10 1868 -7 1854 -0 c 0
 1693 69 1566 216 1546 407 c 1
 1510 431 1471 447 1429 458 c 1
 1415 215 1244 -5 974 -5 c 0
 858 -5 750 47 672 127 c 1
 613 46 522 -7 398 -7 c 0
 227 -7 75 128 75 291 c 0
 75 541 313 643 545 659 c 1
 597 845 748 1010 977 1010 c 0
 1210 1010 1359 840 1409 656 c 1
 1467 646 1516 630 1563 609 c 1
 1627 816 1842 997 2111 997 c 0
 2182 997 2260 983 2333 954 c 1
 2409 985 2485 1000 2566 1000 c 0
 2922 1000 3192 727 3192 386 c 0
 3192 -37 2962 -215 2528 -220 c 1
 2025 -227 l 1
 1991 -227 l 2
 1857 -227 1728 -242 1728 -308 c 0
 1728 -361 1836 -379 1944 -379 c 0
 1967 -379 1992 -379 2019 -378 c 2
 3097 -375 l 1
 3112 -375 l 2
 3158 -375 3193 -430 3193 -470 c 0
 3193 -522 3150 -565 3098 -565 c 2
 2020 -568 l 1
 1926 -568 l 2
 1734 -568 1539 -509 1539 -306 c 0
 1539 -89 1755 -37 1968 -37 c 2
 2023 -37 l 1
 2525 -31 l 2
 2855 -27 3002 71 3002 372 c 0
 3002 619 2823 810 2568 810 c 2
 2550 810 l 1
 2659 705 2722 579 2722 404 c 0
 2722 179 2568 -7 2338 -7 c 0
 2099 -7 1949 186 1949 407 c 0
 1949 579 2010 702 2116 805 c 1
 2114 805 l 2
 1892 805 1735 660 1733 458 c 1
549 314 m 2
 549 323 l 1
 533 370 525 417 524 466 c 1
 379 451 266 401 266 299 c 0
 266 236 326 185 399 185 c 0
 486 185 549 241 549 314 c 2
714 473 m 1
 720 316 825 186 974 186 c 0
 1137 186 1235 322 1240 475 c 1
 1222 475 l 1
 714 473 l 1
747 665 m 1
 1205 667 l 1
 1164 752 1088 819 976 819 c 0
 862 819 786 749 747 665 c 1
EndSplineSet
LCarets2: 1 0
EndChar

StartChar: k1th1u2
Encoding: 65560 -1 141
Width: 3449
GlyphClass: 3
LigCaretCntFixed: 1
Flags: HW
LayerCount: 2
Fore
SplineSet
406 172 m 0
 482 172 550 224 550 296 c 0
 550 297 549 303 549 305 c 0
 533 354 525 403 524 454 c 1
 380 439 266 390 266 287 c 0
 266 221 327 172 406 172 c 0
974 174 m 0
 1136 174 1234 309 1240 464 c 1
 714 462 l 1
 720 303 825 174 974 174 c 0
2495 178 m 0
 2614 178 2693 286 2693 406 c 0
 2693 544 2590 663 2498 726 c 1
 2380 660 2287 555 2287 412 c 0
 2287 286 2376 178 2495 178 c 0
1205 657 m 1
 1161 748 1074 833 977 833 c 0
 878 833 791 746 747 654 c 1
 1205 657 l 1
2095 -30 m 1
 2704 -33 l 1
 2973 -31 3178 29 3178 193 c 0
 3178 266 3119 329 3049 329 c 0
 3007 329 2947 355 2947 414 c 0
 2947 472 2980 517 3034 519 c 0
 3102 521 3159 572 3159 632 c 0
 3159 745 3022 832 2873 832 c 0
 2811 832 2747 825 2699 816 c 1
 2821 697 2883 544 2883 384 c 0
 2883 184 2726 -13 2494 -13 c 0
 2250 -13 2096 194 2096 403 c 0
 2096 581 2192 733 2300 826 c 1
 2263 834 2227 838 2191 838 c 0
 1958 838 1772 683 1772 464 c 0
 1772 304 1882 168 2033 146 c 0
 2094 138 2139 107 2139 51 c 0
 2139 21 2121 -12 2095 -30 c 1
1945 -28 m 1
 1757 24 1625 199 1591 364 c 1
 1551 416 1498 432 1429 447 c 1
 1415 203 1246 -17 974 -17 c 0
 858 -17 750 34 672 110 c 1
 613 33 522 -19 398 -19 c 0
 223 -19 77 118 77 285 c 0
 77 527 314 630 545 647 c 1
 601 853 747 1023 979 1023 c 0
 1207 1023 1354 847 1409 645 c 1
 1478 634 1539 613 1595 583 c 1
 1656 844 1885 1026 2192 1026 c 0
 2301 1026 2413 999 2508 952 c 1
 2615 995 2736 1022 2876 1022 c 0
 3118 1022 3348 899 3348 645 c 0
 3348 560 3319 486 3266 430 c 1
 3327 374 3369 296 3369 199 c 0
 3369 -143 3003 -222 2658 -222 c 2
 2514 -222 l 1
 1985 -219 l 1
 1973 -219 l 2
 1841 -219 1757 -227 1757 -277 c 0
 1757 -315 1835 -332 1967 -332 c 2
 1984 -332 l 2
 2004 -332 2018 -332 2024 -331 c 1
 2025 -331 l 1
 3278 -328 l 1
 3294 -328 l 2
 3341 -328 3375 -383 3375 -423 c 0
 3375 -475 3332 -518 3280 -518 c 2
 3279 -518 l 1
 2027 -521 l 1
 1915 -522 l 1
 1737 -519 1567 -455 1567 -277 c 0
 1567 -96 1745 -28 1925 -28 c 2
 1945 -28 l 1
EndSplineSet
LCarets2: 1 0
EndChar

StartChar: k1th1r1
Encoding: 65561 -1 142
Width: 3174
GlyphClass: 3
LigCaretCntFixed: 1
Flags: HW
LayerCount: 2
Fore
SplineSet
409 -55 m 0
 227 -55 75 93 75 273 c 0
 75 536 325 641 558 652 c 1
 606 837 752 1022 989 1022 c 0
 1228 1022 1371 835 1420 653 c 1
 1449 650 1473 643 1496 634 c 1
 1570 850 1773 1017 2035 1017 c 0
 2113 1017 2192 1000 2263 971 c 1
 2339 1003 2409 1016 2479 1016 c 0
 2863 1016 3100 674 3100 301 c 0
 3100 -185 2739 -600 2225 -600 c 0
 2052 -600 1840 -549 1840 -343 c 0
 1840 -153 2036 -80 2197 -80 c 2
 2208 -80 l 1
 2362 -82 2548 -143 2568 -318 c 1
 2756 -199 2909 36 2909 302 c 0
 2909 575 2748 826 2487 826 c 2
 2474 826 l 1
 2586 712 2656 564 2656 379 c 0
 2656 156 2514 -61 2271 -61 c 0
 2025 -61 1884 160 1884 384 c 0
 1884 565 1950 713 2058 826 c 1
 2049 826 2041 827 2033 827 c 0
 1824 827 1657 660 1657 456 c 0
 1657 297 1761 169 1884 118 c 0
 1917 104 1943 68 1943 30 c 0
 1943 -22 1900 -65 1848 -65 c 0
 1834 -65 1820 -60 1810 -57 c 1
 1809 -57 l 1
 1635 16 1493 182 1469 396 c 1
 1463 427 1455 441 1442 450 c 1
 1433 194 1273 -61 989 -61 c 0
 858 -61 750 5 680 78 c 1
 617 -2 517 -55 409 -55 c 0
1218 656 m 1
 1178 752 1106 832 989 832 c 2
 986 832 l 1
 872 831 795 747 758 654 c 1
 1218 656 l 1
2264 759 m 1
 2151 682 2074 549 2074 392 c 0
 2074 256 2144 129 2271 129 c 0
 2394 129 2465 253 2465 386 c 0
 2465 548 2378 684 2264 759 c 1
1252 466 m 1
 726 464 l 1
 727 423 733 383 743 347 c 1
 747 339 748 330 748 329 c 0
 783 225 863 129 989 129 c 0
 1156 129 1250 294 1252 466 c 1
411 136 m 0
 492 136 561 203 561 285 c 2
 561 291 l 1
 545 349 537 404 536 460 c 1
 387 448 266 398 266 272 c 0
 266 197 334 136 411 136 c 0
2244 -409 m 1
 2321 -407 2380 -387 2380 -346 c 0
 2380 -291 2296 -270 2199 -270 c 0
 2109 -270 2030 -293 2030 -343 c 0
 2030 -399 2131 -409 2240 -409 c 2
 2244 -409 l 1
EndSplineSet
LCarets2: 1 0
EndChar

StartChar: k1r3
Encoding: 65562 -1 143
Width: 2212
GlyphClass: 3
Flags: HW
LayerCount: 2
Fore
SplineSet
547 1102 m 0
 603 1102 647 1056 647 1002 c 0
 647 970 625 932 597 916 c 0
 423 813 275 614 275 351 c 0
 275 -30 541 -214 928 -214 c 0
 1084.72788345 -214 1238.81331109 -207.675474211 1394 -204 c 0
 1693 -198 1938 -108 1938 191 c 0
 1938 332 1879 438 1780 481 c 1
 1765 224 1604 -30 1321 -30 c 0
 1195 -30 1089 31 1020 102 c 1
 960 25 858 -27 753 -27 c 0
 567 -27 417 117 417 306 c 0
 417 563 651 681 885 700 c 1
 930 899 1078 1100 1323 1100 c 0
 1571 1100 1720 896 1764 695 c 1
 1990 649 2138 459 2138 191 c 0
 2138 -226 1808 -395 1399 -404 c 0
 1240.50335456 -407.753867918 1084.48981599 -414 924 -414 c 0
 428 -414 75 -142 75 351 c 0
 75 693 268 954 495 1088 c 0
 508 1096 531 1102 547 1102 c 0
1323 900 m 0
 1201 900 1127 799 1094 705 c 1
 1553 707 l 1
 1520 800 1443 900 1323 900 c 0
1581 507 m 1
 1066 504 l 1
 1071 342 1154 170 1321 170 c 0
 1492 170 1575 344 1581 507 c 1
750 173 m 0
 830 173 892 235 892 315 c 0
 892 320 892 325 891 330 c 0
 875 385 868 441 866 496 c 1
 752 482 617 430 617 308 c 0
 617 233 676 173 750 173 c 0
EndSplineSet
LCarets2: 1 0
EndChar

StartChar: k1sh
Encoding: 65568 -1 149
Width: 3046
GlyphClass: 3
LigCaretCntFixed: 1
Flags: HW
LayerCount: 2
Fore
SplineSet
2185 1099 m 0
 2396 1099 2517 945 2517 724 c 2
 2517 636 l 1
 2647 708 2750 843 2771 1007 c 0
 2777 1055 2821 1094 2870 1094 c 0
 2925 1094 2971 1050 2971 995 c 2
 2971 89 l 2
 2971 34 2925 -11 2870 -11 c 2
 1541 -11 l 2
 1486 -11 1441 34 1441 89 c 0
 1441 134 1477 178 1522 187 c 0
 1577 198 1625 245 1625 314 c 0
 1625 418 1526 464 1436 481 c 1
 1418 231 1257 -18 978 -18 c 0
 852 -18 746 43 678 113 c 1
 619 36 516 -21 408 -21 c 0
 226 -21 75 119 75 304 c 0
 75 555 309 667 538 686 c 1
 581 892 731 1094 980 1094 c 0
 1229 1094 1380 891 1423 686 c 1
 1629 660 1826 547 1826 314 c 0
 1826 271 1817 229 1801 189 c 1
 2313 189 l 1
 2315 375 l 1
 2307 375 2297 374 2289 374 c 0
 2055 374 1845 525 1845 763 c 0
 1845 944 1996 1099 2185 1099 c 0
2188 899 m 0
 2107 899 2045 838 2045 761 c 0
 2045 640 2167 574 2291 574 c 0
 2299 574 2308 574 2316 575 c 1
 2317 704 l 2
 2317 709 2317 714 2317 719 c 0
 2317 823 2287 899 2188 899 c 0
980 894 m 0
 855 894 778 790 746 691 c 1
 1214 693 l 1
 1181 792 1105 894 980 894 c 0
2771 579 m 1
 2699 507 2611 451 2515 416 c 1
 2513 189 l 1
 2771 189 l 1
 2771 579 l 1
1236 493 m 1
 1226 493 l 1
 725 491 l 1
 737 341 817 182 977 182 c 0
 1140 182 1224 341 1236 493 c 1
549 322 m 0
 549 378 528 429 525 483 c 1
 414 470 275 423 275 306 c 0
 275 235 334 180 405 180 c 0
 485 180 549 244 549 322 c 0
EndSplineSet
LCarets2: 2 0 0
EndChar

StartChar: k3u1
Encoding: 65574 -1 155
Width: 1805
GlyphClass: 3
Flags: HW
LayerCount: 2
Fore
SplineSet
422 -226 m 1
 318 -226 267 -252 267 -308 c 0
 267 -352 305 -387 436 -387 c 2
 1634 -388 l 2
 1686 -388 1729 -431 1729 -483 c 0
 1729 -523 1694 -578 1648 -578 c 2
 440 -577 l 2
 245 -577 77 -507 77 -305 c 0
 77 -110 246 -36 420 -36 c 1
 598 -38 775 -44 952 -44 c 0
 1303 -44 1540 199 1540 521 c 0
 1540 730 1427 903 1220 903 c 0
 1059 903 992 795 992 610 c 2
 992 471 l 2
 992 203 866 1 577 1 c 0
 286 1 78 264 78 521 c 0
 78 788 242 1008 446 1088 c 1
 460 1095 474 1096 490 1096 c 0
 535 1096 578 1052 578 1006 c 0
 578 963 552 926 518 913 c 0
 379 860 265 698 265 521 c 0
 265 361 401 189 577 189 c 0
 749 189 800 298 802 477 c 1
 802 616 l 2
 802 889 926 1094 1220 1094 c 0
 1541 1094 1730 811 1730 521 c 0
 1730 77 1401 -233 940 -233 c 0
 766 -233 596 -228 422 -226 c 1
EndSplineSet
LCarets2: 1 0
EndChar

StartChar: k3u2
Encoding: 65575 -1 156
Width: 1769
GlyphClass: 3
Flags: HW
LayerCount: 2
Fore
SplineSet
455 -265 m 2
 373 -265 275 -269 275 -338 c 0
 275 -408 371 -412 447 -412 c 2
 1594 -413 l 1
 1595 -413 l 2
 1650 -413 1695 -458 1695 -513 c 0
 1695 -568 1650 -613 1595 -613 c 2
 1593 -613 l 1
 446 -612 l 2
 250 -612 75 -536 75 -339 c 0
 75 -137 266 -65 456 -65 c 0
 690 -65 930 -67 1161 -67 c 0
 1334 -67 1489 -25 1489 140 c 0
 1489 237 1410 314 1318 318 c 0
 1265 320 1222 365 1222 418 c 0
 1222 464 1259 509 1304 517 c 0
 1384 532 1454 603 1454 698 c 0
 1454 812 1351 896 1236 896 c 0
 1056 896 1005 751 1005 566 c 2
 1005 465 l 2
 1005 185 871 -22 592 -22 c 0
 298 -22 79 238 79 530 c 0
 79 796 245 1000 437 1088 c 0
 448 1093 468 1098 480 1098 c 0
 536 1098 580 1052 580 998 c 0
 580 962 553 921 520 906 c 0
 391 846 279 709 279 530 c 0
 279 347 411 178 591 178 c 0
 757 178 805 299 805 470 c 2
 805 571 l 2
 805 868 942 1096 1236 1096 c 0
 1461 1096 1654 925 1654 696 c 0
 1654 597 1594 498 1533 434 c 1
 1614 368 1689 256 1689 141 c 0
 1689 -146 1445 -267 1161 -267 c 0
 927 -267 692 -265 456 -265 c 2
 455 -265 l 2
EndSplineSet
LCarets2: 1 0
EndChar

StartChar: k3r1
Encoding: 65576 -1 157
Width: 1838
GlyphClass: 3
Flags: HW
LayerCount: 2
Fore
SplineSet
275 532 m 0
 275 343 417 181 598 181 c 0
 767 181 818 299 818 472 c 2
 818 573 l 2
 818 865 949 1092 1238 1092 c 4
 1574 1092 1764 765 1764 430 c 0
 1764 -97 1390 -558 856 -558 c 0
 664 -558 460 -501 460 -294 c 0
 460 -104 648 -23 821 -23 c 0
 994 -23 1164 -89 1196 -255 c 1
 1394 -126 1564 121 1564 431 c 0
 1564 656 1453 892 1237 892 c 0
 1065 892 1018 746 1018 568 c 2
 1018 468 l 2
 1018 185 880 -19 598 -19 c 0
 307 -19 75 231 75 530 c 0
 75 805 250 1004 455 1084 c 0
 465 1088 481 1092 492 1092 c 4
 547 1092 592 1047 592 992 c 0
 592 954 563 911 527 898 c 0
 392 845 275 713 275 532 c 0
824 -223 m 0
 753 -223 660 -235 660 -296 c 0
 660 -355 774 -358 846 -358 c 1
 903 -354 1000 -353 1000 -299 c 0
 1000 -234 899 -223 824 -223 c 0
EndSplineSet
LCarets2: 1 0
EndChar

StartChar: k3k3
Encoding: 65577 -1 158
Width: 1829
GlyphClass: 3
LigCaretCntFixed: 1
Flags: HW
LayerCount: 2
Fore
SplineSet
555 -411 m 4
 555 -521 646 -619 754 -619 c 4
 848 -619 885 -558 885 -429 c 6
 885 -365 l 6
 885 -160 992 -13 1196 -13 c 4
 1406 -13 1560 -195 1560 -386 c 4
 1560 -590 1431 -738 1268 -786 c 4
 1261 -788 1251 -791 1240 -791 c 4
 1195 -791 1159 -751 1159 -713 c 4
 1159 -669 1180 -633 1221 -622 c 4
 1311 -596 1390 -505 1390 -399 c 4
 1390 -276 1309 -186 1191 -186 c 4
 1094 -186 1055 -248 1055 -367 c 6
 1055 -431 l 6
 1055 -637 954 -791 752 -791 c 4
 549 -791 385 -615 385 -417 c 4
 385 -221 498 -82 639 -22 c 5
 640 -22 l 5
 650 -19 664 -15 679 -15 c 4
 721 -15 758 -56 758 -96 c 4
 758 -134 740 -165 705 -181 c 5
 621 -216 555 -296 555 -411 c 4
EndSplineSet
Refer: 59 3351 N 1 0 0 1 0 8 2
LCarets2: 2 0 0
EndChar

StartChar: k3k3u1
Encoding: 65578 -1 159
Width: 1829
GlyphClass: 3
LigCaretCntFixed: 1
Flags: HW
LayerCount: 2
Fore
SplineSet
643 -5 m 0
 688 -5 723 -42 723 -85 c 0
 723 -117 698 -151 667 -161 c 0
 576 -192 496 -282 496 -399 c 0
 496 -526 595 -635 722 -635 c 0
 832 -635 862 -561 862 -448 c 2
 862 -375 l 2
 862 -166 962 -7 1170 -7 c 0
 1420 -7 1557 -241 1557 -475 c 0
 1557 -807 1323 -983 989 -983 c 1
 601 -978 l 2
 554 -978 497 -981 497 -1018 c 0
 497 -1060 565 -1061 611 -1061 c 2
 1476 -1061 l 2
 1520 -1061 1556 -1097 1556 -1141 c 0
 1556 -1185 1520 -1221 1476 -1221 c 2
 611 -1221 l 2
 466 -1221 337 -1163 337 -1018 c 0
 337 -871 473 -816 615 -818 c 2
 984 -823 l 1
 1230 -823 1397 -719 1397 -475 c 0
 1397 -325 1323 -167 1170 -167 c 0
 1053 -167 1022 -259 1022 -379 c 0
 1022 -403 1022 -427 1022 -451 c 0
 1022 -650 923 -795 723 -795 c 0
 506 -795 336 -613 336 -398 c 0
 336 -206 466 -59 616 -9 c 0
 623 -7 635 -5 643 -5 c 0
EndSplineSet
Refer: 59 3351 N 1 0 0 1 0 0 2
LCarets2: 1 0
EndChar

StartChar: k3k3u2
Encoding: 65579 -1 160
Width: 1829
GlyphClass: 3
LigCaretCntFixed: 1
Flags: HW
LayerCount: 2
Fore
SplineSet
767 -786 m 4
 557 -786 393 -609 393 -400 c 4
 393 -216 514 -74 654 -21 c 4
 662 -18 675 -16 684 -16 c 4
 728 -16 764 -52 764 -96 c 4
 764 -127 740 -160 711 -171 c 4
 626 -203 553 -288 553 -400 c 4
 553 -521 646 -626 766 -626 c 4
 872 -626 901 -554 901 -444 c 6
 901 -374 l 6
 901 -167 1004 -17 1210 -17 c 4
 1374 -17 1518 -130 1518 -299 c 4
 1518 -363 1492 -427 1453 -471 c 5
 1506 -519 1540 -594 1540 -670 c 4
 1540 -878 1362 -963 1157 -963 c 4
 1110 -963 1064 -962 1019 -962 c 6
 667 -961 l 6
 615 -961 550 -963 550 -1002 c 4
 550 -1043 615 -1045 660 -1045 c 6
 1464 -1045 l 6
 1508 -1045 1544 -1081 1544 -1125 c 4
 1544 -1169 1508 -1205 1464 -1205 c 6
 660 -1205 l 6
 517 -1205 390 -1147 390 -1003 c 4
 390 -860 525 -801 659 -801 c 6
 667 -801 l 5
 1020 -802 l 6
 1067 -802 1113 -803 1158 -803 c 4
 1273 -803 1380 -780 1380 -671 c 4
 1380 -610 1331 -561 1272 -560 c 4
 1228 -559 1193 -524 1193 -480 c 4
 1193 -440 1225 -405 1265 -401 c 4
 1315 -396 1358 -354 1358 -297 c 4
 1358 -224 1285 -177 1210 -177 c 4
 1094 -177 1061 -258 1061 -377 c 6
 1061 -448 l 6
 1061 -644 964 -786 767 -786 c 4
EndSplineSet
Refer: 59 3351 S 1 0 0 1 0 0 2
LCarets2: 1 0
EndChar

StartChar: k3k3r1
Encoding: 65580 -1 161
Width: 1818
GlyphClass: 3
LigCaretCntFixed: 1
Flags: HW
LayerCount: 2
Fore
SplineSet
878 -561 m 0
 968 -561 990 -499 990 -406 c 2
 990 -405 l 2
 990 -189 1049 -22 1262 -22 c 0
 1481 -22 1600 -228 1600 -446 c 0
 1600 -787 1357 -1088 1023 -1088 c 0
 902 -1088 780 -1039 780 -910 c 0
 780 -784 909 -727 1023 -727 c 0
 1120 -727 1207 -777 1242 -859 c 1
 1330 -782 1438 -597 1438 -431 c 0
 1438 -308 1379 -182 1261 -182 c 0
 1171 -182 1150 -256 1150 -349 c 2
 1150 -410 l 2
 1150 -590 1058 -721 878 -721 c 0
 694 -721 544 -564 544 -374 c 0
 544 -200 656 -76 787 -28 c 0
 795 -25 807 -23 815 -23 c 0
 859 -23 895 -59 895 -103 c 0
 895 -134 872 -168 842 -178 c 0
 769 -205 704 -276 704 -373 c 0
 704 -475 781 -561 878 -561 c 0
1103 -911 m 2
 1103 -883 1059 -862 1023 -862 c 0
 990 -862 940 -875 940 -908 c 2
 940 -910 l 2
 940 -940 986 -953 1023 -953 c 0
 1053 -951 1103 -942 1103 -912 c 2
 1103 -911 l 2
EndSplineSet
Refer: 59 3351 N 1 0 0 1 0 0 2
LCarets2: 1 0
EndChar

StartChar: k3th3
Encoding: 65581 -1 162
Width: 1745
GlyphClass: 3
LigCaretCntFixed: 1
Flags: HW
LayerCount: 2
Fore
SplineSet
1175 495 m 0
 1175 559 1234 599 1303 599 c 0
 1375 599 1439 646 1439 718 c 0
 1439 828 1319 892 1202 892 c 0
 1015 892 957 768 954 580 c 2
 952 460 l 2
 947 190 824 -21 551 -21 c 0
 273 -21 75 230 75 508 c 0
 75 769 228 975 407 1075 c 0
 420 1082 442 1089 457 1089 c 0
 512 1089 557 1044 557 989 c 0
 557 956 534 917 505 901 c 0
 382 832 275 692 275 511 c 0
 275 341 386 179 551 179 c 0
 708 179 749 304 752 463 c 2
 754 584 l 2
 759 882 901 1092 1201 1092 c 0
 1427 1092 1639 952 1639 721 c 0
 1639 647 1614 576 1567 518 c 1
 1623 472 1671 393 1671 298 c 0
 1671 109 1497 -29 1307 -29 c 0
 1220 -29 1070 3 1070 104 c 0
 1070 159 1115 204 1170 204 c 0
 1183 204 1204 199 1216 193 c 0
 1244 179 1274 173 1304 173 c 0
 1388 173 1471 221 1471 302 c 0
 1471 378 1391 393 1307 394 c 1
 1274 395 l 2
 1220 396 1175 441 1175 495 c 0
EndSplineSet
LCarets2: 2 0 0
EndChar

StartChar: k3th3r1
Encoding: 65584 -1 165
Width: 1792
GlyphClass: 3
LigCaretCntFixed: 1
Flags: HW
LayerCount: 2
Fore
SplineSet
275 521 m 0
 275 350 389 187 555 187 c 0
 710 187 748 306 751 462 c 2
 754 582 l 1
 760 883 899 1096 1204 1096 c 0
 1429 1096 1639 953 1639 721 c 0
 1639 628 1598 538 1530 476 c 1
 1634 388 1717 238 1717 64 c 0
 1717 -373 1336 -611 908 -611 c 0
 692 -611 464 -539 464 -310 c 0
 464 -88 686 1 889 1 c 0
 1086 -1 1301 -92 1307 -307 c 1
 1421 -227 1517 -113 1517 62 c 0
 1517 240 1425 402 1255 395 c 0
 1210 393 1175 448 1175 493 c 0
 1175 569 1234 591 1305 591 c 0
 1379 591 1438 650 1438 724 c 0
 1438 833 1318 896 1203 896 c 0
 1015 896 957 768 953 579 c 2
 951 458 l 2
 947 191 825 -13 555 -13 c 0
 273 -13 75 242 75 521 c 0
 75 782 228 984 407 1082 c 0
 420 1089 442 1095 457 1095 c 0
 512 1095 557 1050 557 995 c 0
 557 962 533 923 504 907 c 0
 381 840 275 701 275 521 c 0
880 -199 m 0
 784 -199 664 -222 664 -311 c 0
 664 -403 806 -409 904 -409 c 0
 989 -409 1107 -397 1107 -315 c 0
 1107 -221 981 -199 880 -199 c 0
EndSplineSet
LCarets2: 1 0
EndChar

StartChar: k3th3th4
Encoding: 65585 -1 166
Width: 2979
GlyphClass: 3
LigCaretCntFixed: 1
Flags: HW
LayerCount: 2
Fore
SplineSet
1601 514 m 1
 1657 470 1705 396 1705 304 c 0
 1705 279 1682 206 1656 195 c 1
 1786 216 1862 370 1883 475 c 1
 1885 1003 l 2
 1886 1056 1930 1102 1985 1102 c 0
 2039 1102 2085 1057 2085 1002 c 2
 2085 469 l 1
 2101 320 2229 185 2392 185 c 0
 2571 185 2716 345 2716 531 c 0
 2716 731 2550 894 2347 894 c 0
 2332 894 2317 892 2302 892 c 0
 2247 892 2202 937 2202 992 c 0
 2202 1043 2242 1088 2293 1092 c 0
 2311 1094 2331 1095 2349 1095 c 0
 2664 1095 2916 840 2916 529 c 0
 2916 233 2680 -15 2391 -15 c 0
 2220 -15 2061 87 1976 208 c 1
 1879 82 1708 -25 1508 -25 c 0
 1363 -25 1232 -8 1133 67 c 0
 1111 84 1094 120 1094 147 c 0
 1094 202 1139 247 1194 247 c 0
 1206 247 1224 243 1235 238 c 0
 1278 219 1317 190 1375 191 c 0
 1440 192 1505 245 1505 304 c 0
 1505 377 1415 386 1338 387 c 1
 1305 388 l 2
 1251 389 1207 434 1207 488 c 0
 1207 535 1245 578 1291 586 c 2
 1318 591 l 1
 1401 604 1473 623 1473 714 c 0
 1473 825 1364 896 1251 896 c 0
 1102 896 984 786 984 639 c 0
 984 592 992 535 992 470 c 0
 992 205 821 -6 558 -6 c 0
 269 -6 75 259 75 545 c 0
 75 788 197 969 348 1077 c 0
 363 1088 390 1097 408 1097 c 0
 463 1097 508 1052 508 997 c 0
 508 968 489 930 465 914 c 0
 360 839 275 713 275 544 c 0
 275 364 385 194 560 194 c 0
 691 194 790 306 790 440 c 0
 790 487 782 544 782 609 c 0
 782 887 974 1096 1250 1096 c 0
 1475 1096 1673 943 1673 714 c 0
 1673 629 1644 565 1601 514 c 1
EndSplineSet
LCarets2: 4 1 2979 0 0
EndChar

StartChar: k3n1
Encoding: 65588 -1 169
Width: 2397
GlyphClass: 3
LigCaretCntFixed: 1
Flags: HW
LayerCount: 2
Fore
SplineSet
1802 903 m 0
 1650 903 1550 808 1521 678 c 1
 1521 78 l 2
 1521 29 1480 -15 1431 -15 c 0
 1373 -15 1331 23 1331 78 c 2
 1331 566 l 1
 1330 740 1282 899 1143 899 c 0
 1050 899 982 776 982 671 c 0
 982 622 1015 479 1015 397 c 0
 1015 156 827 -20 585 -20 c 0
 275 -20 75 251 75 537 c 0
 75 780 197 968 343 1078 c 1
 344 1078 l 1
 361 1089 379 1097 399 1097 c 0
 456 1097 496 1052 496 1003 c 0
 496 970 482 943 457 924 c 0
 355 848 266 714 266 551 c 0
 266 351 385 172 585 172 c 0
 723 172 825 264 825 403 c 0
 825 513 791 596 791 675 c 0
 791 866 936 1092 1138 1092 c 0
 1282 1092 1380 1007 1437 916 c 1
 1518 1027 1638 1096 1803 1096 c 0
 2100 1096 2322 844 2322 554 c 0
 2322 232 2078 -10 1754 -10 c 0
 1691 -10 1606 -2 1606 87 c 0
 1606 129 1641 181 1689 181 c 0
 1944 181 2132 296 2132 548 c 0
 2132 733 1999 903 1802 903 c 0
EndSplineSet
LCarets2: 2 0 2
EndChar

StartChar: k3n1u1
Encoding: 65589 -1 170
Width: 2504
GlyphClass: 3
LigCaretCntFixed: 1
Flags: HW
LayerCount: 2
Fore
SplineSet
2048 495 m 0
 1956 495 1877 428 1877 332 c 0
 1877 247 1950 169 2042 169 c 0
 2126 169 2203 242 2203 332 c 0
 2203 408 2144 495 2048 495 c 0
995 387 m 0
 995 156 808 -17 584 -17 c 0
 294 -17 75 232 75 530 c 0
 75 775 214 973 374 1077 c 0
 390 1087 408 1092 430 1092 c 0
 485 1092 521 1043 521 993 c 0
 521 960 503 933 476 917 c 1
 367 847 265 707 265 534 c 0
 265 335 380 175 572 175 c 0
 706 175 807 272 807 399 c 0
 807 459 774 627 774 669 c 0
 774 890 904 1092 1120 1092 c 0
 1255 1092 1364 999 1423 898 c 1
 1510 1014 1643 1092 1819 1092 c 0
 2167 1092 2429 777 2429 430 c 0
 2429 197 2284 -21 2041 -21 c 0
 1839 -21 1687 136 1687 338 c 0
 1687 535 1850 686 2047 686 c 0
 2094 686 2140 675 2181 656 c 1
 2112 790 1989 902 1812 902 c 0
 1581 902 1502 759 1502 505 c 2
 1502 75 l 1
 1501 16 1461 -17 1400 -18 c 0
 1351 -18 1312 30 1312 75 c 2
 1312 505 l 1
 1311 689 1265 898 1123 898 c 0
 1015 898 967 808 967 661 c 0
 967 568 995 453 995 387 c 0
EndSplineSet
LCarets2: 1 0
EndChar

StartChar: k3n1u2
Encoding: 65590 -1 171
Width: 2723
GlyphClass: 3
LigCaretCntFixed: 1
Flags: HW
LayerCount: 2
Fore
SplineSet
2032 165 m 0
 2140 165 2211 273 2211 400 c 0
 2211 422 2209 447 2205 472 c 1
 2171 482 2142 485 2113 485 c 0
 1991 485 1893 406 1893 308 c 0
 1893 228 1958 165 2032 165 c 0
1806 908 m 0
 1643 908 1504 794 1504 565 c 2
 1504 77 l 2
 1504 26 1461 -17 1409 -17 c 0
 1357 -17 1314 25 1314 75 c 2
 1314 551 l 2
 1314 711 1280 814 1220 868 c 0
 1188 896 1155 907 1124 907 c 0
 1032 907 965 820 965 717 c 0
 965 669 997 501 997 421 c 0
 997 189 814 -15 581 -15 c 0
 298 -15 75 257 75 546 c 0
 75 797 213 984 376 1087 c 0
 391 1096 409 1102 431 1102 c 0
 486 1102 522 1054 522 1004 c 0
 522 973 504 946 477 930 c 0
 368 862 267 726 267 563 c 0
 267 365 392 175 580 175 c 0
 712 175 807 299 807 429 c 0
 807 538 774 647 774 725 c 0
 774 912 920 1097 1117 1097 c 0
 1255 1097 1362 1012 1423 912 c 1
 1506 1023 1634 1098 1800 1098 c 0
 2097 1098 2326 836 2349 608 c 1
 2508 554 2648 371 2648 149 c 0
 2647 -139 2417 -364 2125 -364 c 0
 2022 -364 1920 -335 1835 -278 c 0
 1809 -261 1792 -235 1792 -204 c 0
 1792 -154 1828 -105 1883 -105 c 0
 1905 -105 1924 -111 1941 -121 c 0
 1999 -158 2061 -174 2121 -174 c 0
 2300 -174 2457 -31 2457 137 c 0
 2457 217 2436 283 2398 338 c 1
 2375 154 2249 -23 2042 -23 c 0
 1860 -23 1702 116 1702 302 c 0
 1702 532 1896 673 2134 673 c 5
 2108 832 1948 908 1806 908 c 0
EndSplineSet
LCarets2: 1 0
EndChar

StartChar: k3m1
Encoding: 65591 -1 172
Width: 2026
GlyphClass: 3
LigCaretCntFixed: 1
Flags: HW
LayerCount: 2
Fore
SplineSet
274 521 m 0
 274 342 414 163 597 163 c 0
 776 163 830 298 831 482 c 2
 832 582 l 1
 834 939 1074 1096 1332 1096 c 0
 1630 1096 1951 886 1951 529 c 2
 1950 83 l 2
 1950 28 1905 -17 1850 -17 c 2
 1031 -17 l 2
 976 -17 931 28 931 83 c 0
 931 126 964 166 998 181 c 0
 1180 261 1409 457 1409 712 c 0
 1409 843 1345 902 1269 902 c 0
 1162 902 1033 783 1032 581 c 1
 1031 481 l 1
 1030 186 894 -24 600 -24 c 0
 303 -24 75 225 75 527 c 0
 75 775 212 978 410 1083 c 0
 422 1090 444 1095 458 1095 c 0
 513 1095 558 1050 558 995 c 0
 558 961 534 921 504 906 c 0
 371 836 274 680 274 521 c 0
1596 817 m 1
 1606 779 1610 741 1610 705 c 0
 1610 480 1475 301 1353 183 c 1
 1750 183 l 1
 1751 526 l 2
 1751 527 1751 527 1751 528 c 0
 1751 647 1679 757 1596 817 c 1
EndSplineSet
LCarets2: 2 0 0
EndChar

StartChar: k3r3
Encoding: 65594 -1 175
Width: 2291
GlyphClass: 3
Flags: HW
LayerCount: 2
Fore
SplineSet
1045 -23 m 0
 749 -23 523 233 523 528 c 0
 523 799 700 1005 905 1083 c 0
 915 1087 931 1089 942 1089 c 0
 997 1089 1042 1045 1042 990 c 0
 1042 951 1012 909 976 896 c 0
 840 844 723 708 723 528 c 0
 723 343 862 177 1045 177 c 0
 1217 177 1267 298 1267 474 c 0
 1267 507 1267 542 1267 575 c 0
 1267 867 1402 1089 1692 1089 c 0
 2031 1089 2216 766 2216 453 c 0
 2216 -127 1694 -413 1165 -413 c 0
 623 -413 75 -114 75 475 c 0
 75 693 164 907 321 1060 c 0
 337 1076 369 1089 392 1089 c 0
 447 1089 492 1044 492 989 c 0
 492 965 477 933 460 917 c 0
 343 803 275 636 275 472 c 0
 275 15 723 -218 1164 -218 c 0
 1593 -218 2016 3 2016 452 c 0
 2016 662 1910 887 1691 887 c 0
 1516 887 1467 749 1467 570 c 0
 1467 537 1467 503 1467 470 c 0
 1467 185 1329 -23 1045 -23 c 0
EndSplineSet
LCarets2: 1 0
EndChar

StartChar: k4r3
Encoding: 65603 -1 184
Width: 2859
GlyphClass: 3
Flags: HW
LayerCount: 2
Fore
SplineSet
2138 498 m 1
 2138 593 l 2
 2138 798 1987 897 1844 897 c 0
 1718 897 1597 821 1590 672 c 2
 1581 498 l 1
 2138 498 l 1
266 506 m 0
 266 -135 797 -287 1429 -287 c 2
 2330 -287 l 2
 2570 -287 2592 -210 2592 -1 c 1
 1484 -1 l 2
 1434 -1 1389 38 1389 88 c 2
 1389 306 l 1
 948 306 l 2
 900 306 853 342 853 394 c 0
 853 448 890 481 931 494 c 0
 989 511 1049 591 1049 671 c 0
 1049 771 963 845 848 845 c 0
 734 845 656 766 656 668 c 0
 656 599 706 519 753 502 c 0
 798 485 829 453 829 407 c 0
 829 361 790 311 741 311 c 0
 725 311 710 313 698 318 c 0
 560 371 462 503 462 674 c 0
 462 872 638 1037 844 1037 c 0
 1065 1037 1241 880 1241 667 c 0
 1241 607 1225 548 1196 495 c 1
 1390 495 l 1
 1388 613 l 2
 1383 900 1567 1092 1868 1092 c 0
 2171 1092 2334 890 2334 583 c 0
 2334 543 2328 448 2328 420 c 2
 2328 394 l 2
 2328 343 2275 312 2234 312 c 2
 1580 312 l 1
 1580 189 l 1
 2593 189 l 1
 2593 994 l 2
 2593 1044 2638 1085 2689 1085 c 0
 2729 1085 2784 1052 2784 1005 c 2
 2784 -35 l 2
 2784 -341 2637 -477 2328 -477 c 0
 2227 -477 1468 -479 1246 -479 c 0
 612 -479 75 -159 75 499 c 0
 75 673 122 915 198 1045 c 0
 214 1074 241 1094 275 1094 c 0
 325 1094 377 1061 377 1006 c 0
 377 988 374 969 364 954 c 1
 300 843 266 638 266 506 c 0
EndSplineSet
EndChar

StartChar: ngk1
Encoding: 65608 -1 189
Width: 1905
GlyphClass: 3
LigCaretCntFixed: 1
Flags: HW
LayerCount: 2
Fore
SplineSet
410 1094 m 0
 527 1094 639 1036 706 950 c 1
 772 1024 876 1090 1005 1090 c 0
 1241 1090 1381 903 1429 716 c 1
 1649 706 1830 575 1830 344 c 0
 1830 147 1669 -16 1470 -16 c 0
 1400 -16 1347 18 1347 84 c 0
 1347 139 1392 184 1447 184 c 0
 1454 184 1461 184 1468 184 c 0
 1557 184 1630 256 1630 344 c 0
 1630 448 1548 503 1452 514 c 1
 1450 247 1289 -18 1005 -18 c 0
 875 -18 770 47 703 122 c 1
 637 40 532 -12 422 -12 c 0
 234 -12 75 134 75 323 c 0
 75 433 132 526 198 585 c 1
 137 634 91 706 91 804 c 0
 91 979 238 1094 410 1094 c 0
586 717 m 2
 586 815 506 894 409 894 c 0
 332 894 297 860 297 822 c 0
 297 771 358 711 461 709 c 0
 502 708 544 707 586 707 c 1
 586 717 l 2
1219 716 m 1
 1186 802 1117 890 1004 890 c 0
 892 890 824 797 793 710 c 1
 1219 716 l 1
1252 516 m 1
 765 510 l 1
 770 347 843 182 1005 182 c 0
 1170 182 1250 354 1252 516 c 1
419 188 m 0
 509 188 582 260 582 351 c 0
 582 356 581 361 581 366 c 0
 571 412 566 459 565 505 c 1
 551 506 l 1
 421 498 275 455 275 324 c 0
 275 248 342 188 419 188 c 0
EndSplineSet
LCarets2: 2 0 0
EndChar

StartChar: ngk1u1
Encoding: 65609 -1 190
Width: 2007
GlyphClass: 3
LigCaretCntFixed: 1
Flags: HW
LayerCount: 2
Fore
SplineSet
723 940 m 1
 789 1018 895 1094 1030 1094 c 0
 1266 1094 1406 903 1454 717 c 1
 1471 717 1488 718 1506 718 c 0
 1700 718 1907 660 1907 454 c 0
 1907 398 1873 338 1800 323 c 1
 1878 301 1908 244 1908 192 c 0
 1908 54 1783 -31 1648 -31 c 0
 1564 -31 1447 5 1447 95 c 0
 1447 150 1492 177 1547 177 c 0
 1584 177 1612 153 1650 153 c 0
 1688 153 1709 173 1709 195 c 0
 1709 222 1699 252 1629 254 c 0
 1578 256 1548 271 1548 322 c 0
 1548 364 1571 393 1636 393 c 0
 1709 393 1707 426 1707 453 c 0
 1707 511 1577 517 1509 517 c 0
 1499 517 1488 517 1477 517 c 1
 1474 249 1316 -18 1030 -18 c 0
 902 -18 798 46 731 119 c 1
 665 35 559 -19 449 -19 c 0
 259 -19 100 130 100 320 c 0
 100 427 152 518 215 577 c 1
 153 626 106 698 106 797 c 0
 106 973 252 1088 425 1088 c 0
 543 1088 656 1027 723 940 c 1
1245 704 m 1
 1212 791 1143 894 1029 894 c 0
 917 894 849 791 818 704 c 1
 1245 704 l 1
306 796 m 0
 306 713 404 703 493 703 c 0
 530 703 566 706 601 707 c 0
 601 708 601 709 601 710 c 0
 601 808 520 888 423 888 c 0
 362 888 306 855 306 796 c 0
1277 512 m 1
 790 512 l 1
 794 350 869 182 1030 182 c 0
 1196 182 1274 351 1277 512 c 1
446 181 m 0
 535 181 608 252 608 344 c 0
 608 350 608 356 607 362 c 0
 597 407 591 454 590 499 c 1
 583 499 577 499 570 499 c 0
 436 499 300 451 300 321 c 0
 300 243 367 181 446 181 c 0
EndSplineSet
LCarets2: 1 0
EndChar

StartChar: ngk1u2
Encoding: 65610 -1 191
Width: 1980
GlyphClass: 3
LigCaretCntFixed: 1
Flags: HW
LayerCount: 2
Fore
SplineSet
1459 244 m 0
 1459 306 1508 345 1575 345 c 0
 1577 345 1579 345 1581 345 c 0
 1632 345 1665 375 1665 417 c 0
 1665 504 1545 520 1452 521 c 1
 1450 253 1293 -17 1007 -17 c 0
 877 -17 774 46 706 120 c 1
 639 35 534 -17 423 -17 c 0
 234 -17 75 133 75 321 c 0
 75 429 128 520 191 579 c 1
 128 629 82 712 82 803 c 0
 82 979 230 1098 407 1098 c 0
 527 1098 637 1038 703 950 c 1
 769 1024 873 1094 1004 1094 c 0
 1241 1094 1380 908 1429 721 c 1
 1452 721 l 2
 1660 721 1866 631 1866 416 c 0
 1866 355 1837 270 1772 250 c 1
 1847 202 1888 127 1888 52 c 0
 1888 -162 1701 -247 1487 -247 c 2
 556 -248 l 2
 460 -248 319 -249 319 -331 c 0
 319 -398 440 -404 516 -404 c 0
 946 -404 1375 -385 1805 -385 c 0
 1860 -385 1905 -430 1905 -485 c 0
 1905 -540 1860 -585 1805 -585 c 0
 1369 -592 932 -605 496 -605 c 0
 306 -605 118 -526 118 -330 c 0
 118 -124 330 -48 525 -48 c 0
 845 -48 1166 -47 1486 -47 c 0
 1583 -47 1690 -37 1690 55 c 0
 1690 127 1619 139 1546 145 c 0
 1498 151 1459 195 1459 244 c 0
408 898 m 0
 346 898 282 864 282 802 c 0
 282 719 366 705 455 705 c 0
 497 705 540 708 577 709 c 1
 578 715 578 722 578 728 c 0
 578 822 501 898 408 898 c 0
1220 708 m 5
 1188 791 1120 893 1007 893 c 0
 893 893 824 797 793 708 c 5
 1220 708 l 5
1252 518 m 1
 765 512 l 1
 770 348 844 183 1007 183 c 0
 1171 183 1250 357 1252 518 c 1
423 184 m 0
 511 184 583 256 583 347 c 0
 583 354 583 360 582 366 c 0
 572 411 566 456 565 500 c 1
 503 502 l 1
 393 488 275 439 275 321 c 0
 275 242 347 184 423 184 c 0
EndSplineSet
LCarets2: 1 0
EndChar

StartChar: ngk1r1
Encoding: 65611 -1 192
Width: 1951
GlyphClass: 3
LigCaretCntFixed: 1
Flags: HW
LayerCount: 2
Fore
SplineSet
400 1093 m 0
 518 1093 631 1033 698 946 c 1
 764 1024 871 1095 1005 1095 c 0
 1252 1095 1394 892 1436 691 c 5
 1689 639 1877 445 1877 139 c 0
 1877 -340 1540 -662 1021 -662 c 0
 805 -662 577 -590 577 -361 c 0
 577 -144 792 -50 990 -50 c 0
 1194 -50 1420 -141 1420 -365 c 0
 1420 -367 1420 -368 1420 -370 c 1
 1569 -255 1676 -80 1676 139 c 0
 1676 320 1588 431 1451 479 c 1
 1435 231 1279 -14 1005 -14 c 0
 878 -14 774 50 707 123 c 1
 641 40 534 -14 424 -14 c 0
 233 -14 75 136 75 327 c 0
 75 433 126 524 188 583 c 1
 127 632 81 704 81 802 c 0
 81 978 227 1093 400 1093 c 0
1004 895 m 0
 891 895 824 798 793 710 c 1
 1224 710 l 1
 1192 801 1121 895 1004 895 c 0
448 709 m 0
 467 709 576 711 576 715 c 0
 576 813 495 893 398 893 c 0
 337 893 281 860 281 801 c 0
 281 723 362 709 448 709 c 0
765 512 m 1
 770 351 845 187 1005 187 c 0
 1168 187 1246 352 1252 508 c 1
 765 512 l 1
422 186 m 0
 511 186 583 257 583 348 c 0
 583 354 583 359 582 365 c 0
 571 411 566 457 565 503 c 1
 486 506 l 2
 483 506 481 506 478 506 c 0
 376 506 275 436 275 328 c 0
 275 250 343 186 422 186 c 0
993 -251 m 2
 992 -251 l 2
 896 -251 777 -273 777 -363 c 0
 777 -455 926 -456 1019 -456 c 0
 1105 -456 1219 -447 1219 -366 c 0
 1219 -272 1093 -251 993 -251 c 2
EndSplineSet
LCarets2: 1 0
EndChar

StartChar: ngng
Encoding: 65612 -1 193
Width: 2622
GlyphClass: 3
LigCaretCntFixed: 1
Flags: HW
LayerCount: 2
Fore
SplineSet
757 293 m 0
 757 124 622 -15 449 -15 c 0
 206 -15 75 220 75 458 c 0
 75 829 372 1088 745 1088 c 0
 866 1088 984 1057 1072 1013 c 1
 1152 1061 1237 1088 1341 1088 c 0
 1503 1088 1627 1012 1701 913 c 1
 1779 1014 1900 1088 2065 1088 c 0
 2285 1088 2510 955 2510 717 c 0
 2510 630 2476 565 2431 515 c 1
 2491 469 2548 388 2548 290 c 0
 2548 95 2365 -19 2172 -19 c 0
 2093 -19 2013 1 1943 41 c 0
 1914 57 1891 96 1891 129 c 0
 1891 184 1936 229 1991 229 c 0
 2006 229 2029 223 2042 215 c 0
 2081 193 2127 182 2173 182 c 0
 2250 182 2348 218 2348 289 c 0
 2348 383 2225 394 2120 396 c 1
 2085 396 l 1
 2031 397 1987 442 1987 496 c 0
 1987 549 2029 594 2082 596 c 2
 2113 597 l 2
 2217 601 2309 619 2309 716 c 0
 2309 831 2183 883 2066 883 c 0
 1885 883 1798 764 1800 584 c 2
 1806 90 l 2
 1806 35 1761 -10 1706 -10 c 0
 1652 -10 1607 33 1606 87 c 2
 1600 584 l 2
 1598 759 1519 890 1340 890 c 0
 1310 890 1287 886 1260 878 c 1
 1379 759 1467 599 1467 394 c 0
 1467 182 1334 -20 1113 -20 c 0
 884 -20 759 191 759 412 c 0
 759 591 807 736 906 865 c 1
 856 881 799 890 744 890 c 0
 508 890 337 747 288 560 c 1
 332 586 390 603 446 603 c 0
 616 603 757 466 757 293 c 0
1085 767 m 1
 1006 680 959 557 959 415 c 0
 959 304 1004 180 1112 180 c 0
 1217 180 1266 290 1266 396 c 0
 1266 555 1184 685 1085 767 c 1
335 292 m 0
 335 228 392 185 447 185 c 0
 508 185 556 232 556 291 c 0
 556 353 508 403 447 403 c 0
 384 403 335 355 335 292 c 0
EndSplineSet
LCarets2: 2 0 0
EndChar

StartChar: ch1ch1
Encoding: 65617 -1 198
Width: 1560
GlyphClass: 3
LigCaretCntFixed: 1
Flags: HW
LayerCount: 2
Fore
SplineSet
1284 996 m 6
 1284 1051 1329 1096 1384 1096 c 4
 1439 1096 1484 1051 1484 996 c 4
 1483 557 1485 121 1485 -317 c 4
 1485 -371 1441 -415 1387 -416 c 6
 606 -432 l 5
 604 -432 l 6
 549 -432 504 -387 504 -332 c 4
 504 -306 520 -273 539 -256 c 6
 841 0 l 5
 150 -2 l 6
 95 -3 50 43 50 98 c 4
 50 154 95 198 151 198 c 6
 710 199 l 5
 811 213 898 300 898 412 c 4
 898 515 820 605 717 605 c 4
 632 605 562 536 562 445 c 4
 562 422 565 400 574 381 c 4
 579 370 584 351 584 339 c 4
 584 284 539 239 484 239 c 4
 392 239 361 359 361 446 c 4
 361 653 525 805 720 805 c 4
 930 805 1098 621 1098 413 c 4
 1098 331 1077 264 1039 201 c 5
 1284 201 l 5
 1284 996 l 6
1285 1 m 5
 1151 1 l 5
 883 -227 l 5
 1285 -219 l 5
 1285 1 l 5
EndSplineSet
LCarets2: 2 0 0
EndChar

StartChar: ch1ch2
Encoding: 65620 -1 201
Width: 1715
GlyphClass: 3
LigCaretCntFixed: 1
Flags: HW
LayerCount: 2
Back
SplineSet
1465.85742188 1433.98925781 m 4
 1466.26855469 1433.99511719 1466.9375 1434 1467.34960938 1434 c 4
 1522.5546875 1434 1567.359375 1389.1953125 1567.359375 1333.99023438 c 4
 1567.359375 1333.59472656 1567.35449219 1332.95410156 1567.34960938 1332.55859375 c 6
 1567.18945312 446.626953125 l 6
 1567.17285156 391.60546875 1522.50488281 346.814453125 1467.484375 346.647460938 c 6
 1302.76757812 346.163085938 l 5
 1366.26269531 335.946289062 1427.74804688 312.955078125 1482.55664062 277.33203125 c 4
 1567.5 222.123046875 1632.79492188 138.588867188 1663.21289062 40.431640625 c 4
 1695.41015625 -63.4677734375 1686.55078125 -181.450195312 1624.0546875 -277.3359375 c 4
 1592.89160156 -325.147460938 1549.6484375 -365.146484375 1497.24414062 -391.380859375 c 4
 1444.66699219 -417.701171875 1384.90722656 -429.037109375 1325.0625 -421.524414062 c 4
 1248.90429688 -411.96484375 1181.20117188 -373.069335938 1132.70507812 -316.893554688 c 4
 1084.52636719 -261.087890625 1057.796875 -191.616210938 1051.97460938 -120.727539062 c 4
 1043.33886719 -15.59765625 1080.97851562 89 1154.62109375 164.5234375 c 4
 1163.08007812 173.19921875 1171.97753906 181.353515625 1181.18554688 189.08203125 c 5
 1120.95800781 180.403320312 1062.80957031 154.235351562 1018.95898438 114.693359375 c 4
 969.103515625 69.7373046875 935.547851562 4.4794921875 929.859375 -60.568359375 c 4
 922.745117188 -141.904296875 961.5625 -231.012695312 1025.96875 -281.193359375 c 4
 1042.97851562 -294.454101562 1056.78417969 -322.72265625 1056.78417969 -344.291015625 c 4
 1056.78417969 -388.455078125 1020.94042969 -424.298828125 976.776367188 -424.298828125 c 4
 976.676757812 -424.298828125 976.516601562 -424.298828125 976.41796875 -424.297851562 c 6
 108.650390625 -420.146484375 l 6
 108.442382812 -420.147460938 108.106445312 -420.149414062 107.899414062 -420.149414062 c 4
 63.734375 -420.149414062 27.890625 -384.305664062 27.890625 -340.141601562 c 4
 27.890625 -295.977539062 63.734375 -260.133789062 107.899414062 -260.133789062 c 4
 108.317382812 -260.133789062 108.997070312 -260.139648438 109.416015625 -260.147460938 c 6
 416.400390625 -261.6171875 l 6
 420.698242188 -260.500976562 427.786132812 -259.401367188 432.220703125 -259.1640625 c 4
 465.608398438 -256.8828125 500.11328125 -241.080078125 523.650390625 -217.290039062 c 4
 547.1875 -193.500976562 562.619140625 -158.830078125 564.54296875 -125.418945312 c 4
 566.66796875 -88.5126953125 551.731445312 -48.328125 526.779296875 -23.376953125 c 4
 502.19921875 1.203125 462.657226562 15.015625 429.814453125 10.794921875 c 4
 398.38671875 6.7568359375 365.521484375 -14.9609375 349.482421875 -42.2861328125 c 4
 333.442382812 -69.6123046875 330.50390625 -108.893554688 342.298828125 -138.301757812 c 4
 345.70703125 -146.467773438 348.473632812 -160.276367188 348.473632812 -169.124023438 c 4
 348.473632812 -213.2890625 312.629882812 -249.131835938 268.465820312 -249.131835938 c 4
 238.140625 -249.131835938 204.688476562 -226.163085938 193.796875 -197.860351562 c 4
 162.73828125 -120.420898438 169.26171875 -33.2490234375 211.498046875 38.70703125 c 4
 253.733398438 110.6640625 326.6640625 158.853515625 409.419921875 169.489257812 c 4
 420.15234375 170.868164062 430.864257812 171.596679688 441.51171875 171.6953125 c 5
 441.51171875 171.6953125 l 5
 516.043945312 172.387695312 587.368164062 142.303710938 639.912109375 89.7607421875 c 4
 699.58984375 30.08203125 729.030273438 -52.037109375 724.275390625 -134.6171875 c 4
 721.665039062 -179.948242188 708.887695312 -223.731445312 687.3359375 -262.9140625 c 5
 811.33203125 -263.506835938 l 5
 778.79296875 -196.985351562 763.874023438 -121.977539062 770.46484375 -46.626953125 c 4
 779.952148438 61.8466796875 832.305664062 161.830078125 911.80859375 233.51953125 c 4
 978.103515625 293.299804688 1060.42773438 331.280273438 1146.83984375 345.706054688 c 5
 684.59765625 344.34765625 l 6
 683.022460938 344.2578125 680.46484375 344.184570312 678.887695312 344.184570312 c 4
 677.46875 344.184570312 675.166992188 344.244140625 673.75 344.317382812 c 6
 117.28125 342.682617188 l 6
 116.799804688 342.673828125 116.017578125 342.666992188 115.536132812 342.666992188 c 4
 60.330078125 342.666992188 15.525390625 387.471679688 15.525390625 442.676757812 c 4
 15.525390625 497.8828125 60.330078125 542.6875 115.536132812 542.6875 c 4
 115.85546875 542.6875 116.375 542.68359375 116.6953125 542.680664062 c 6
 674.623046875 544.319335938 l 5
 722.408203125 550.458007812 770.0546875 574.350585938 803.3125 609.018554688 c 4
 837.630859375 644.79296875 859.848632812 695.399414062 862.955078125 744.875976562 c 4
 866.401367188 799.764648438 845.48046875 858.71484375 809.083984375 896.430664062 c 4
 773.243164062 933.5703125 715.880859375 954.85546875 667.10546875 949.305664062 c 4
 619.677734375 943.909179688 570.461914062 911.426757812 546.8515625 869.942382812 c 4
 523.241210938 828.45703125 520.448242188 769.556640625 540.029296875 726.024414062 c 4
 545.21484375 714.919921875 549.423828125 695.9609375 549.423828125 683.706054688 c 4
 549.423828125 628.5 504.619140625 583.696289062 449.413085938 583.696289062 c 4
 413.15234375 583.696289062 372.033203125 610.704101562 357.630859375 643.983398438 c 4
 310.611328125 748.51953125 316.333984375 869.25 373.03125 968.870117188 c 4
 429.727539062 1068.49023438 530.604492188 1135.06347656 644.494140625 1148.02246094 c 4
 658.978515625 1149.66992188 673.42578125 1150.42871094 687.771484375 1150.33300781 c 5
 687.771484375 1150.33300781 l 5
 788.190429688 1149.66210938 883.663085938 1107.16113281 952.998046875 1035.31347656 c 4
 1031.68164062 953.776367188 1069.49902344 842.852539062 1062.56054688 732.342773438 c 4
 1058.38769531 665.883789062 1038.26757812 601.77734375 1004.5625 545.290039062 c 5
 1367.203125 546.354492188 l 5
 1367.34570312 1332.59472656 l 6
 1367.33984375 1332.97949219 1367.3359375 1333.60449219 1367.3359375 1333.99023438 c 4
 1367.3359375 1388.37988281 1411.47363281 1433.1796875 1465.85742188 1433.98925781 c 4
1417.33984375 114.883789062 m 4
 1363.25976562 114.77734375 1306.68847656 91.2978515625 1269.171875 52.8232421875 c 4
 1229.15429688 11.783203125 1206.74023438 -50.5 1211.43359375 -107.627929688 c 4
 1214.62988281 -146.547851562 1229.9921875 -184.748046875 1253.8125 -212.338867188 c 4
 1277.31445312 -239.5625 1311.82421875 -258.608398438 1344.98632812 -262.770507812 c 4
 1371.28710938 -266.072265625 1400.5546875 -260.853515625 1425.61523438 -248.307617188 c 4
 1450.84765625 -235.676757812 1473.76464844 -214.89453125 1490.00976562 -189.969726562 c 4
 1522.33007812 -140.3828125 1529.58007812 -68.8896484375 1510.37890625 -6.9267578125 c 4
 1496.25585938 38.646484375 1468.38769531 81.2666015625 1432.2109375 114.504882812 c 4
 1432.109375 114.50390625 1431.9453125 114.50390625 1431.84375 114.50390625 c 4
 1430.81445312 114.50390625 1429.14453125 114.54296875 1428.1171875 114.590820312 c 4
 1424.54003906 114.793945312 1420.9453125 114.893554688 1417.33984375 114.883789062 c 4
EndSplineSet
Fore
SplineSet
484 244 m 0
 392 244 361 364 361 451 c 0
 361 659 524 810 720 810 c 0
 932 810 1097 627 1097 418 c 0
 1097 345 1078 271 1039 205 c 1
 1402 206 l 1
 1402 994 l 2
 1402 1049 1447 1094 1502 1094 c 0
 1557 1094 1602 1049 1602 994 c 2
 1602 107 l 2
 1602 52 1557 5 1502 5 c 0
 1052 5 596 3 150 3 c 0
 95 3 50 48 50 103 c 0
 50 158 95 203 150 203 c 2
 151 203 l 1
 709 204 l 1
 810 217 898 305 898 417 c 0
 898 518 819 610 720 610 c 0
 638 610 560 540 560 451 c 0
 560 430 565 408 575 386 c 0
 580 375 584 356 584 344 c 0
 584 289 539 244 484 244 c 0
209 -456 m 0
 209 -301 331 -186 479 -186 c 0
 641 -186 759 -327 759 -479 c 0
 759 -526 747 -575 722 -621 c 1
 846 -622 l 1
 817 -562 804 -500 804 -441 c 0
 804 -196 1011 -6 1259 -6 c 0
 1508 -6 1716 -186 1716 -437 c 0
 1716 -620 1586 -782 1398 -782 c 0
 1216 -782 1085 -629 1085 -450 c 0
 1085 -341 1137 -235 1216 -169 c 1
 1084 -188 963 -294 963 -438 c 0
 963 -514 1001 -593 1060 -639 c 0
 1077 -652 1091 -680 1091 -702 c 0
 1091 -746 1055 -782 1011 -782 c 0
 721 -781 432 -779 142 -778 c 0
 98 -778 62 -742 62 -698 c 0
 62 -653 99 -618 144 -618 c 2
 451 -620 l 1
 455 -619 463 -617 467 -617 c 0
 543 -612 599 -543 599 -472 c 0
 599 -410 547 -348 482 -348 c 0
 424 -348 368 -391 368 -453 c 0
 368 -477 383 -502 383 -527 c 0
 383 -571 347 -607 303 -607 c 0
 233 -607 209 -524 209 -456 c 0
1555 -434 m 0
 1555 -350 1516 -289 1467 -244 c 1
 1466 -244 l 2
 1343 -244 1246 -328 1246 -451 c 0
 1246 -538 1307 -622 1396 -622 c 0
 1495 -622 1555 -530 1555 -434 c 0
EndSplineSet
LCarets2: 2 0 0
EndChar

StartChar: ch2u1
Encoding: 65621 -1 202
Width: 2806
GlyphClass: 3
LigCaretCntFixed: 1
Flags: HW
LayerCount: 2
Fore
SplineSet
1243 477 m 0
 1243 812 1511 1094 1847 1094 c 0
 2027 1094 2188 1010 2293 898 c 1
 2535 835 2732 620 2732 328 c 0
 2732 -75 2405 -273 2004 -273 c 1
 448 -268 l 2
 392 -268 275 -273 275 -321 c 0
 275 -365 384 -371 435 -371 c 2
 2620 -365 l 2
 2675 -365 2720 -410 2720 -465 c 0
 2720 -521 2675 -565 2619 -565 c 2
 451 -570 l 2
 268 -570 75 -512 75 -320 c 0
 75 -123 277 -69 466 -69 c 2
 1995 -73 l 2
 2295 -73 2533 35 2533 329 c 0
 2533 410 2503 495 2458 557 c 1
 2463 527 2465 497 2465 466 c 0
 2465 214 2294 -15 2035 -15 c 0
 1800 -15 1627 186 1627 418 c 0
 1627 647 1780 812 1952 879 c 1
 1915 889 1879 894 1844 894 c 0
 1622 894 1443 704 1443 478 c 0
 1443 359 1497 238 1584 158 c 0
 1602 142 1616 108 1616 84 c 0
 1616 29 1571 -16 1516 -16 c 2
 180 -10 l 1
 179 -10 l 2
 124 -10 79 35 79 90 c 0
 79 145 124 190 179 190 c 2
 181 190 l 1
 716 187 l 2
 830 186 927 273 927 404 c 0
 927 505 848 597 749 597 c 0
 667 597 589 527 589 438 c 0
 589 417 594 395 604 373 c 0
 609 362 613 343 613 331 c 0
 613 276 568 231 513 231 c 0
 421 231 390 351 390 438 c 0
 390 646 553 797 749 797 c 0
 961 797 1127 614 1127 405 c 0
 1127 329 1106 253 1064 186 c 1
 1315 185 l 1
 1266 279 1243 379 1243 477 c 0
1828 417 m 0
 1828 296 1914 186 2034 186 c 0
 2181 186 2264 329 2264 472 c 0
 2264 572 2230 650 2184 715 c 1
 2172 716 2160 716 2148 716 c 0
 1973 716 1828 592 1828 417 c 0
EndSplineSet
LCarets2: 1 0
EndChar

StartChar: ch2u2
Encoding: 65622 -1 203
Width: 2952
GlyphClass: 3
LigCaretCntFixed: 1
Flags: HW
LayerCount: 2
Fore
SplineSet
1243 482 m 0
 1243 818 1512 1099 1849 1099 c 0
 2028 1099 2200 1009 2303 894 c 1
 2314 894 2324 895 2335 895 c 0
 2586 895 2821 780 2821 524 c 0
 2821 454 2794 384 2762 337 c 1
 2825 285 2878 200 2878 94 c 0
 2878 -173 2628 -257 2370 -258 c 2
 473 -266 l 2
 435 -266 243 -272 277 -324 c 0
 300 -362 385 -366 450 -366 c 0
 1171 -366 2007 -356 2730 -356 c 0
 2785 -356 2830 -401 2830 -456 c 0
 2830 -512 2785 -556 2729 -556 c 0
 2007 -561 1171 -567 451 -567 c 0
 267 -567 75 -510 75 -318 c 0
 75 -119 278 -65 468 -65 c 2
 2369 -58 l 2
 2513 -57 2678 -44 2678 94 c 0
 2678 158 2629 207 2565 207 c 0
 2510 207 2465 252 2465 307 c 0
 2465 347 2495 389 2533 402 c 0
 2580 418 2620 462 2620 524 c 0
 2620 630 2519 674 2425 688 c 1
 2447 629 2463 553 2463 477 c 0
 2463 220 2288 -10 2023 -10 c 0
 1805 -10 1627 170 1627 390 c 0
 1627 646 1828 797 2029 856 c 1
 1973 884 1910 899 1848 899 c 0
 1624 899 1443 707 1443 482 c 0
 1443 363 1497 241 1584 161 c 0
 1602 145 1616 112 1616 88 c 0
 1616 33 1571 -10 1516 -10 c 2
 179 -10 l 2
 124 -10 79 38 79 93 c 0
 79 149 125 193 181 193 c 2
 716 191 l 2
 831 191 927 275 927 407 c 0
 927 510 850 601 747 601 c 0
 662 601 591 532 591 441 c 0
 591 401 613 372 613 334 c 0
 613 279 568 234 513 234 c 0
 421 234 390 355 390 442 c 0
 390 649 554 801 749 801 c 0
 960 801 1127 617 1127 409 c 0
 1127 324 1104 254 1064 189 c 1
 1315 188 l 1
 1268 278 1243 379 1243 482 c 0
1827 391 m 0
 1827 281 1914 190 2022 190 c 0
 2173 190 2263 330 2263 480 c 0
 2263 564 2239 629 2206 687 c 1
 2030 667 1827 583 1827 391 c 0
EndSplineSet
LCarets2: 1 0
EndChar

StartChar: ch2r1
Encoding: 65623 -1 204
Width: 2955
GlyphClass: 3
LigCaretCntFixed: 1
Flags: HW
LayerCount: 2
Fore
SplineSet
1238 496 m 4
 1238 831 1506 1113 1842 1113 c 4
 1997 1113 2151 1045 2255 948 c 5
 2617 915 2881 618 2881 232 c 4
 2881 -305 2433 -636 1897 -636 c 4
 1667 -636 1453 -563 1453 -335 c 4
 1453 -119 1668 -24 1866 -24 c 4
 2069 -24 2296 -114 2296 -338 c 4
 2296 -342 2295 -346 2295 -350 c 5
 2497 -252 2680 -55 2680 233 c 4
 2680 450 2571 607 2424 690 c 5
 2445 630 2462 553 2462 478 c 4
 2462 224 2291 -5 2029 -5 c 4
 1795 -5 1623 196 1623 426 c 4
 1623 646 1775 823 1945 898 c 5
 1911 907 1875 913 1840 913 c 4
 1617 913 1438 721 1438 497 c 4
 1438 378 1491 256 1579 175 c 4
 1597 159 1612 125 1612 101 c 4
 1612 46 1566 4 1511 3 c 5
 175 3 l 6
 120 3 75 50 75 105 c 4
 75 160 120 205 175 205 c 0
 176 205 176 205 177 205 c 6
 707 203 l 6
 824 203 923 277 923 421 c 4
 923 524 845 614 742 614 c 4
 657 614 586 546 586 455 c 4
 586 416 609 385 609 348 c 4
 609 293 564 248 509 248 c 4
 417 248 385 369 385 456 c 4
 385 663 550 815 745 815 c 4
 956 815 1123 630 1123 422 c 4
 1123 337 1101 267 1060 202 c 5
 1311 202 l 5
 1264 292 1238 393 1238 496 c 4
2261 480 m 4
 2261 594 2221 679 2166 750 c 5
 1988 738 1823 608 1823 425 c 4
 1823 305 1910 195 2028 195 c 4
 2176 195 2261 332 2261 480 c 4
1653 -337 m 4
 1653 -406 1766 -440 1878 -440 c 0
 1988 -440 2096 -407 2096 -340 c 4
 2096 -260 1983 -220 1871 -220 c 0
 1761 -220 1653 -259 1653 -337 c 4
EndSplineSet
LCarets2: 1 0
EndChar

StartChar: ch3u1
Encoding: 65624 -1 205
Width: 1857
GlyphClass: 3
LigCaretCntFixed: 1
Flags: HW
LayerCount: 2
Fore
SplineSet
347 824 m 0
 291 824 246 779 246 721 c 0
 246 667 299 624 351 624 c 0
 407 624 447 667 447 723 c 0
 447 779 403 824 347 824 c 0
1226 301 m 0
 1170 301 1125 256 1125 198 c 0
 1125 144 1178 101 1230 101 c 0
 1286 101 1326 144 1326 200 c 0
 1326 256 1282 301 1226 301 c 0
1680 -554 m 0
 1280 -554 880 -552 480 -552 c 0
 465 -552 449 -553 433 -553 c 0
 262 -553 77 -493 77 -311 c 0
 77 -126 260 -77 438 -77 c 1
 1115 -73 l 2
 1331 -71 1582 -35 1582 176 c 0
 1582 280 1505 350 1415 367 c 1
 1448 323 1467 269 1467 213 c 0
 1467 73 1356 -40 1215 -40 c 0
 1078 -40 974 65 964 197 c 1
 800 101 625 -55 374 -55 c 0
 226 -55 87 37 87 191 c 0
 87 363 249 441 413 441 c 0
 553 441 687 410 809 410 c 0
 1022 410 1255 502 1255 705 c 0
 1255 809 1175 893 1069 893 c 0
 975 893 891 832 891 753 c 2
 893 527 l 1
 891 473 847 430 793 430 c 0
 738 430 693 475 693 530 c 2
 689 754 l 2
 688 826 629 867 562 887 c 1
 591 847 615 787 615 725 c 0
 615 573 501 456 350 456 c 0
 189 456 75 589 75 745 c 0
 75 964 262 1099 475 1099 c 0
 612 1099 720 1050 792 974 c 1
 858 1043 947 1093 1070 1093 c 0
 1288 1093 1455 920 1455 705 c 0
 1455 654 1446 611 1430 567 c 1
 1623 541 1782 392 1782 177 c 0
 1782 -166 1439 -270 1117 -273 c 0
 886 -275 655 -278 424 -278 c 0
 368 -278 277 -278 277 -312 c 3
 277 -350 364 -353 432 -353 c 0
 848 -353 1264 -354 1680 -354 c 3
 1735 -354 1780 -399 1780 -454 c 0
 1780 -509 1736 -554 1680 -554 c 0
631 229 m 1
 558 234 491 241 422 241 c 0
 369 241 287 235 287 192 c 0
 287 158 337 146 377 146 c 0
 475 146 549 184 631 229 c 1
EndSplineSet
LCarets2: 1 0
EndChar

StartChar: ch3u2
Encoding: 65625 -1 206
Width: 1900
GlyphClass: 3
LigCaretCntFixed: 1
Flags: HW
LayerCount: 2
Back
SplineSet
393.303710938 1433.98730469 m 4
 527.848632812 1433.06152344 629.90234375 1378.52441406 698.458007812 1302.54589844 c 5
 778.868164062 1389.94824219 920.932617188 1460.67578125 1089.08105469 1412.95800781 c 4
 1260.22753906 1364.38867188 1409.421875 1183.38671875 1364.16699219 958.188476562 c 5
 1525.4375 961.794921875 1657.18945312 864.836914062 1694.37988281 732.073242188 c 4
 1709.51269531 678.0546875 1708.25976562 621.444335938 1691.16894531 568.577148438 c 5
 1770.73144531 522.422851562 1842.14941406 421.515625 1812.93066406 290.795898438 c 4
 1791.07226562 192.999023438 1716.46386719 122.6796875 1635.57519531 85.9541015625 c 4
 1558.92285156 51.15234375 1480.73339844 44.14453125 1411.25292969 43.3896484375 c 4
 1278.34765625 41.947265625 1152.8203125 54.2900390625 1034.28027344 53.2822265625 c 6
 443.624023438 48.2587890625 l 6
 371.3984375 47.64453125 308.391601562 50.8046875 256.049804688 42.5322265625 c 4
 228.215820312 38.134765625 200.91015625 31.0595703125 194.237304688 14.5634765625 c 5
 197.588867188 0.9912109375 217.538085938 -8.212890625 238.278320312 -14.3857421875 c 4
 278.491210938 -26.353515625 333.408203125 -26.087890625 399.600585938 -26.1943359375 c 6
 1715.60839844 -28.3017578125 l 6
 1715.95214844 -28.296875 1716.50976562 -28.2939453125 1716.85351562 -28.2939453125 c 4
 1772.05957031 -28.2939453125 1816.86328125 -73.0986328125 1816.86328125 -128.303710938 c 4
 1816.86328125 -183.508789062 1772.05957031 -228.313476562 1716.85351562 -228.313476562 c 4
 1716.421875 -228.313476562 1715.72070312 -228.30859375 1715.28808594 -228.301757812 c 6
 399.280273438 -226.194335938 l 6
 338.125 -226.095703125 263.071289062 -230.432617188 181.227539062 -206.075195312 c 4
 90.8095703125 -179.165039062 -16.58984375 -99.6376953125 -5.3017578125 31.7041015625 c 4
 5.3544921875 155.677734375 117.051757812 223.049804688 224.829101562 240.081054688 c 4
 305.91796875 252.896484375 379.06640625 247.71875 441.922851562 248.252929688 c 6
 1032.57910156 253.274414062 l 6
 1165.33203125 254.403320312 1290.70019531 242.092773438 1409.08105469 243.377929688 c 4
 1489.69921875 244.25390625 1559.453125 257.958007812 1597.82324219 299.030273438 c 4
 1637.58496094 341.590820312 1608.55566406 425.501953125 1541.95214844 399.321289062 c 4
 1532.26074219 395.533203125 1515.95019531 392.458984375 1505.54492188 392.458984375 c 4
 1450.33984375 392.458984375 1405.53515625 437.263671875 1405.53515625 492.469726562 c 4
 1405.53515625 526.063476562 1429.75 565.856445312 1459.58691406 581.293945312 c 4
 1487.87597656 595.864257812 1514.34570312 633.315429688 1501.79199219 678.125976562 c 4
 1479.79394531 756.653320312 1370.35839844 774.125 1285.72558594 740.383789062 c 5
 1347.24414062 690.950195312 1395.01464844 601.065429688 1384.07714844 505.223632812 c 4
 1369.48632812 377.354492188 1251.66699219 265.131835938 1106.55761719 281.551757812 c 4
 986.211914062 295.170898438 885.836914062 398.200195312 888.149414062 538.413085938 c 5
 733.54296875 450.349609375 581.756835938 318.16015625 374.586914062 280.950195312 c 4
 306.280273438 268.681640625 224.749023438 266.068359375 146.026367188 304.463867188 c 4
 70.4189453125 341.33984375 -5.666015625 426.484375 5.0595703125 539.532226562 c 4
 14.357421875 637.516601562 86.5458984375 707.17578125 161.088867188 739.040039062 c 4
 232.487304688 769.561523438 301.629882812 769.865234375 358.168945312 768.872070312 c 4
 567.299804688 765.19921875 757.458984375 731.05859375 919.303710938 775.086914062 c 4
 935.697265625 781.321289062 952.657226562 786.965820312 970.233398438 791.772460938 c 4
 1067.50878906 829.731445312 1166.10058594 915.37890625 1171.92871094 1026.79980469 c 4
 1176.9453125 1122.67480469 1110.72363281 1198.92089844 1034.47949219 1220.55761719 c 4
 913.49609375 1254.89453125 816.432617188 1172.43164062 799.161132812 1073.14160156 c 5
 803.741210938 1038.1640625 804.862304688 1005.40039062 805.829101562 975.536132812 c 6
 809.633789062 858.075195312 l 6
 809.6484375 857.454101562 809.659179688 856.444335938 809.659179688 855.822265625 c 4
 809.659179688 800.6171875 764.854492188 755.8125 709.649414062 755.8125 c 4
 657.262695312 755.8125 612.51953125 798.270507812 609.776367188 850.584960938 c 6
 605.196289062 958.159179688 l 5
 597.274414062 994.573242188 594.557617188 1031.78808594 597.262695312 1068.72558594 c 5
 581.389648438 1149.87988281 533.911132812 1202.26464844 458.528320312 1224.15527344 c 5
 514.778320312 1163.90917969 554.706054688 1050.85351562 514.815429688 943.374023438 c 4
 481.694335938 854.131835938 395.5078125 776.368164062 282.682617188 770.715820312 c 4
 88.916015625 761.008789062 -41.3984375 951.616210938 3.4423828125 1143.03808594 c 4
 41.6484375 1306.13476562 194.607421875 1435.36425781 393.303710938 1433.98730469 c 4
327.313476562 1012.96386719 m 4
 360.145507812 1101.41992188 234.48828125 1147.45605469 194.875976562 1070.58300781 c 5
 193.516601562 1011.17480469 245.138671875 937.114257812 305.018554688 982.518554688 c 4
 314.381835938 989.618164062 322.87109375 1000.99316406 327.313476562 1012.96386719 c 4
1113.71191406 605.002929688 m 5
 1095.95117188 579.002929688 1074.8984375 529.890625 1098.19238281 497.907226562 c 4
 1112.546875 478.196289062 1144.41210938 473.876953125 1165.83300781 491.442382812 c 4
 1187.39355469 509.123046875 1192.66796875 544.6953125 1173.83496094 570.657226562 c 4
 1162.01953125 586.947265625 1139.46777344 600.004882812 1113.71191406 605.002929688 c 5
540.079101562 558.348632812 m 5
 469.306640625 563.296875 404.435546875 569.43359375 336.631835938 569.014648438 c 4
 279.998046875 568.66796875 235.11328125 563.009765625 211.952148438 536.172851562 c 4
 192.767578125 513.9453125 214.189453125 493.737304688 233.700195312 484.221679688 c 4
 257.184570312 472.767578125 295.61328125 469.965820312 339.231445312 477.799804688 c 4
 405.3359375 489.672851562 472.361328125 519.723632812 540.079101562 558.348632812 c 5
EndSplineSet
Fore
SplineSet
1221 296 m 0
 1165 296 1120 251 1120 193 c 0
 1120 139 1173 96 1225 96 c 0
 1281 96 1321 139 1321 195 c 0
 1321 251 1277 296 1221 296 c 0
358 802 m 0
 302 802 258 757 258 699 c 0
 258 645 311 602 363 602 c 0
 419 602 459 645 459 701 c 0
 459 757 414 802 358 802 c 0
1798 -567 m 0
 1342 -567 886 -565 431 -565 c 0
 261 -565 75 -507 75 -326 c 0
 75 -140 258 -90 437 -90 c 2
 1472 -95 l 2
 1568 -95 1697 -83 1697 7 c 0
 1697 37 1678 66 1647 66 c 0
 1628 66 1607 54 1587 54 c 0
 1532 54 1487 99 1487 154 c 0
 1487 188 1514 216 1544 231 c 0
 1567 243 1586 283 1586 317 c 0
 1586 388 1517 418 1452 418 c 0
 1424 418 1394 413 1367 402 c 1
 1423 357 1467 279 1467 194 c 0
 1467 56 1354 -59 1216 -59 c 0
 1078 -59 969 50 969 195 c 0
 969 197 969 198 969 200 c 1
 800 104 629 -66 371 -66 c 0
 223 -66 85 28 85 180 c 0
 85 354 249 430 414 430 c 0
 551 430 683 414 802 414 c 0
 1018 414 1253 493 1253 698 c 0
 1253 805 1169 896 1060 896 c 0
 968 896 886 823 886 741 c 0
 886 667 886 591 886 517 c 0
 886 462 846 417 791 417 c 0
 739 417 688 460 685 512 c 1
 685 730 l 2
 685 813 615 863 540 885 c 1
 580 842 612 771 612 695 c 0
 612 546 498 432 350 432 c 0
 190 432 76 570 76 728 c 0
 76 943 256 1095 471 1095 c 0
 607 1095 711 1040 780 964 c 1
 842 1032 942 1096 1062 1096 c 0
 1275 1096 1453 914 1453 700 c 0
 1453 674 1451 648 1445 620 c 1
 1448 620 1451 620 1454 620 c 0
 1631 620 1786 500 1786 317 c 0
 1786 288 1778 235 1769 207 c 1
 1836 168 1901 113 1901 11 c 0
 1901 -214 1684 -295 1470 -295 c 1
 444 -290 l 2
 384 -290 290 -288 275 -324 c 1
 287 -371 407 -365 481 -365 c 2
 1798 -367 l 2
 1853 -367 1898 -412 1898 -467 c 0
 1898 -522 1854 -567 1798 -567 c 0
286 180 m 0
 286 147 335 135 373 135 c 0
 469 135 541 174 621 220 c 1
 553 225 489 230 424 230 c 0
 368 230 286 226 286 180 c 0
EndSplineSet
LCarets2: 1 0
EndChar

StartChar: ch3r1
Encoding: 65626 -1 207
Width: 1815
GlyphClass: 3
LigCaretCntFixed: 1
Flags: HW
LayerCount: 2
Fore
SplineSet
1215 302 m 4
 1159 302 1114 257 1114 199 c 4
 1114 145 1167 102 1219 102 c 4
 1275 102 1315 145 1315 201 c 4
 1315 257 1271 302 1215 302 c 4
353 806 m 0
 297 806 252 761 252 703 c 0
 252 649 305 606 357 606 c 0
 413 606 453 649 453 705 c 0
 453 761 409 806 353 806 c 0
1068 -44 m 0
 1233 -44 1393 -105 1438 -251 c 1
 1494 -190 1539 -100 1539 7 c 0
 1539 107 1504 180 1452 237 c 1
 1453 229 1453 221 1453 213 c 0
 1453 74 1344 -33 1206 -33 c 0
 1075 -33 978 65 958 179 c 1
 797 81 622 -75 372 -75 c 0
 223 -75 84 18 84 172 c 0
 84 345 247 423 412 423 c 0
 549 423 682 406 801 406 c 0
 1013 406 1252 496 1252 691 c 0
 1252 801 1160 891 1048 891 c 0
 917 891 901 833 901 723 c 0
 901 707 902 689 902 671 c 2
 903 538 l 2
 903 482 859 438 803 438 c 0
 750 438 703 480 700 533 c 1
 700 671 l 1
 694 808 649 858 533 885 c 1
 577 841 613 772 613 691 c 0
 613 540 501 422 351 422 c 0
 187 422 75 561 75 719 c 0
 75 937 257 1093 476 1093 c 0
 608 1093 711 1039 781 967 c 1
 842 1041 929 1092 1049 1092 c 0
 1275 1092 1453 913 1453 690 c 0
 1453 623 1436 559 1407 502 c 1
 1605 434 1741 250 1741 6 c 0
 1741 -332 1478 -581 1142 -581 c 0
 934 -581 707 -538 707 -316 c 0
 707 -126 895 -44 1068 -44 c 0
626 210 m 1
 555 215 489 221 421 221 c 0
 368 221 286 216 286 173 c 0
 286 139 336 127 375 127 c 0
 472 127 545 165 626 210 c 1
908 -318 m 0
 908 -360 999 -383 1087 -383 c 0
 1168 -383 1247 -363 1247 -321 c 0
 1247 -269 1159 -242 1073 -242 c 0
 990 -242 908 -267 908 -318 c 0
EndSplineSet
LCarets2: 1 0
EndChar

StartChar: ch3ch3
Encoding: 65627 -1 208
Width: 3106
GlyphClass: 3
LigCaretCntFixed: 1
Flags: HW
LayerCount: 2
Fore
SplineSet
2863 211 m 0
 2863 265 2823 304 2769 304 c 0
 2724 304 2677 270 2677 223 c 0
 2677 165 2716 120 2773 120 c 0
 2826 120 2863 158 2863 211 c 0
460 678 m 0
 460 732 419 771 365 771 c 0
 320 771 274 737 274 690 c 0
 274 632 313 587 370 587 c 0
 423 587 460 625 460 678 c 0
636 182 m 0
 570 182 507 185 442 185 c 0
 353 185 310 161 310 137 c 0
 310 114 351 92 430 92 c 0
 963 92 1572 220 1572 736 c 0
 1572 973 1780 1109 2011 1109 c 0
 2161 1109 2293 1067 2370 983 c 1
 2439 1050 2541 1094 2644 1094 c 0
 2852 1094 3026 928 3026 720 c 0
 3026 603 2970 505 2909 440 c 1
 2973 399 3032 320 3032 221 c 0
 3032 73 2914 -42 2767 -42 c 0
 2624 -42 2514 64 2496 194 c 1
 2331 99 2139 -55 1886 -55 c 0
 1740 -55 1606 36 1606 186 c 0
 1606 347 1752 426 1908 426 c 0
 1997 426 2084 417 2172 417 c 0
 2436 417 2826 461 2826 721 c 0
 2826 817 2742 894 2645 894 c 0
 2545 894 2451 822 2453 734 c 2
 2457 547 l 2
 2457 546 l 0
 2457 491 2412 446 2357 446 c 0
 2304 446 2259 489 2257 542 c 2
 2252 748 l 1
 2248 858 2195 882 2099 900 c 1
 2132 856 2159 794 2159 723 c 0
 2159 557 2035 432 1870 432 c 0
 1810 432 1751 452 1711 478 c 1
 1523 25 1026 -109 418 -109 c 0
 258 -109 100 -29 100 137 c 0
 100 307 263 385 426 385 c 0
 494 385 564 382 631 382 c 0
 925 382 1325 420 1325 708 c 0
 1325 810 1241 894 1139 894 c 0
 1040 894 949 823 951 736 c 2
 955 547 l 2
 955 546 l 0
 955 491 910 446 855 446 c 0
 802 446 757 489 755 542 c 2
 751 747 l 2
 748 872 676 897 545 895 c 1
 597 848 640 768 640 680 c 0
 640 522 525 398 365 398 c 0
 195 398 75 539 75 704 c 0
 75 958 312 1095 549 1095 c 0
 688 1095 796 1063 868 985 c 1
 936 1051 1036 1094 1137 1094 c 0
 1352 1094 1525 922 1525 708 c 0
 1525 281 1051 182 636 182 c 0
1959 723 m 0
 1959 777 1918 816 1864 816 c 0
 1819 816 1773 782 1773 735 c 0
 1773 677 1812 632 1869 632 c 0
 1922 632 1959 670 1959 723 c 0
2124 217 m 1
 2053 218 1982 225 1912 225 c 0
 1874 225 1806 219 1806 188 c 0
 1806 158 1852 146 1887 146 c 0
 1979 146 2051 182 2124 217 c 1
EndSplineSet
LCarets2: 2 0 0
EndChar

StartChar: ch3ch3u1
Encoding: 65628 -1 209
Width: 3293
GlyphClass: 3
LigCaretCntFixed: 1
Flags: HW
LayerCount: 2
Back
SplineSet
789.50390625 206.82421875 m 4
 648.63671875 206.82421875 523.240234375 231.55078125 392.861328125 231.55078125 c 4
 347.510742188 231.55078125 310.743164062 226.3046875 292.483398438 204.900390625 c 4
 288.438476562 200.158203125 286.921875 194.3984375 286.901367188 193.815429688 c 4
 286.901367188 180.516601562 303.87890625 169.237304688 318.473632812 162.712890625 c 4
 358.211914062 144.946289062 456.815429688 145.905273438 524.666015625 145.905273438 c 4
 960.306640625 145.905273438 1359.26953125 249.450195312 1459.83691406 592.517578125 c 4
 1476.19238281 648.307617188 1491.45703125 751.439453125 1521.01269531 818.9453125 c 5
 1561.765625 983.190429688 1716.04003906 1099.76953125 1914.06640625 1099.76953125 c 4
 2050.765625 1099.76953125 2157.68359375 1050.07910156 2227.15136719 973.111328125 c 5
 2295.68945312 1045.56738281 2401.1640625 1093.63378906 2507.07910156 1093.63378906 c 4
 2725.75097656 1093.63378906 2891.04101562 925.78515625 2891.04101562 710.485351562 c 4
 2891.04101562 655.634765625 2879.35253906 603.0625 2859.00878906 554.587890625 c 5
 3000.68652344 537.668945312 3107.74414062 458.107421875 3167.44628906 353.298828125 c 4
 3200.25878906 295.696289062 3218.06054688 230.3671875 3218.06054688 163.60546875 c 4
 3218.06054688 -30.0390625 3082.74902344 -161.2109375 2946.04980469 -222.833984375 c 4
 2812.7265625 -282.936523438 2674.43164062 -284.53125 2553.14160156 -285.525390625 c 6
 1940.82324219 -290.548828125 l 6
 1865.04882812 -291.170898438 1734.35449219 -275.776367188 1713.17089844 -324.298828125 c 5
 1724.84472656 -368.52734375 1839.49023438 -365.006835938 1904.5859375 -365.006835938 c 4
 1912.80371094 -365.006835938 1921.19433594 -364.993164062 1929.75195312 -364.993164062 c 4
 1933.20117188 -364.993164062 1936.67871094 -364.99609375 1940.18261719 -365.001953125 c 6
 3114.45410156 -367.109375 l 6
 3114.79199219 -367.10546875 3115.33984375 -367.102539062 3115.67773438 -367.102539062 c 4
 3170.8828125 -367.102539062 3215.6875 -411.907226562 3215.6875 -467.112304688 c 4
 3215.6875 -522.317382812 3170.8828125 -567.122070312 3115.67773438 -567.122070312 c 4
 3115.24121094 -567.122070312 3114.53222656 -567.116210938 3114.09472656 -567.109375 c 6
 1939.82324219 -565 l 6
 1939.10839844 -564.999023438 1938.39257812 -564.998046875 1937.67480469 -564.998046875 c 4
 1917.92382812 -564.998046875 1896.92773438 -565.465820312 1874.85351562 -565.465820312 c 4
 1700.12597656 -565.465820312 1512.86328125 -508.791992188 1512.86328125 -324.015625 c 4
 1512.86328125 -140.357421875 1696.49023438 -90.29296875 1872.64648438 -90.29296875 c 4
 1892.18945312 -90.29296875 1910.90527344 -90.5947265625 1928.71679688 -90.5947265625 c 4
 1932.24121094 -90.5947265625 1935.72949219 -90.5830078125 1939.18261719 -90.5546875 c 6
 2551.50488281 -85.53125 l 6
 2734.23632812 -84.033203125 2886.84375 -63.3876953125 2970.43066406 38.408203125 c 4
 2999.87890625 74.26953125 3018.01171875 114.829101562 3018.01171875 162.65625 c 4
 3018.01171875 266.544921875 2941.32714844 336.068359375 2851.40917969 353.486328125 c 5
 2882.91308594 310.53515625 2901.42578125 256.747070312 2901.42578125 202.143554688 c 4
 2901.42578125 62.0751953125 2790.53613281 -51.705078125 2649.73925781 -51.705078125 c 4
 2510.43457031 -51.705078125 2403.90527344 57.5390625 2398.79199219 196.318359375 c 5
 2233.48925781 105.734375 2058.56542969 -43.115234375 1811.23242188 -43.115234375 c 4
 1662.48046875 -43.115234375 1523.05761719 48.9970703125 1523.05761719 202.954101562 c 4
 1523.05761719 374.352539062 1684.21386719 452.46875 1847.34765625 452.46875 c 4
 1991.18457031 452.46875 2130.3984375 432.49609375 2254.97460938 432.49609375 c 4
 2465.05566406 432.49609375 2691.00976562 511.501953125 2691.00976562 711.676757812 c 4
 2691.00976562 811.412109375 2612.06738281 892.930664062 2510.71777344 892.930664062 c 4
 2407.18066406 892.930664062 2331.98535156 817.229492188 2322.68847656 722.462890625 c 4
 2323.62695312 707.256835938 2324.27636719 692.485351562 2324.72167969 678.73046875 c 6
 2328.52832031 561.26953125 l 6
 2328.54296875 560.647460938 2328.55371094 559.637695312 2328.55371094 559.015625 c 4
 2328.55371094 503.810546875 2283.75 459.005859375 2228.54394531 459.005859375 c 4
 2176.15722656 459.005859375 2131.41503906 501.463867188 2128.67089844 553.779296875 c 6
 2123.79980469 668.18359375 l 6
 2122.40527344 681.489257812 2121.72558594 694.77734375 2121.72558594 708.012695312 c 4
 2121.72558594 713.196289062 2121.83007812 718.372070312 2122.03613281 723.537109375 c 4
 2114.36425781 810.091796875 2077.31542969 860.555664062 2006.96386719 884.853515625 c 5
 2035.77734375 841.758789062 2053.95898438 794.380859375 2053.95898438 729.657226562 c 4
 2053.95898438 574.409179688 1939.73730469 451.376953125 1785.19921875 451.376953125 c 4
 1731.3046875 451.376953125 1677.15625 470.71875 1638.55761719 496.435546875 c 5
 1493.34570312 99.2978515625 1050.87304688 -54.203125 533.903320312 -54.203125 c 4
 501.611328125 -54.203125 469.546875 -53.8662109375 437.782226562 -53.396484375 c 4
 381.950195312 -52.572265625 310.94140625 -52.994140625 236.850585938 -19.87109375 c 4
 163.616210938 12.869140625 86.8955078125 87.68359375 86.8955078125 193.377929688 c 4
 86.8955078125 302.333007812 166.439453125 376.896484375 244.711914062 407.716796875 c 4
 294.6171875 427.365234375 342.724609375 432.087890625 385.892578125 432.087890625 c 4
 527.71875 432.087890625 670.2890625 408.303710938 796.88671875 408.303710938 c 4
 960.94140625 408.303710938 1091.93359375 446.354492188 1176.55957031 530.794921875 c 4
 1224.27148438 578.401367188 1254.27441406 644.211914062 1254.27441406 704.135742188 c 4
 1254.27441406 809.546875 1173.74609375 894.548828125 1066.86816406 894.548828125 c 4
 966.888671875 894.548828125 895.616210938 823.409179688 884.485351562 733.353515625 c 5
 886.7421875 709.64453125 887.510742188 687.317382812 888.176757812 666.75390625 c 6
 891.981445312 549.29296875 l 6
 891.995117188 548.6875 892.005859375 547.706054688 892.005859375 547.1015625 c 4
 892.005859375 491.896484375 847.201171875 447.091796875 791.99609375 447.091796875 c 4
 739.641601562 447.091796875 694.900390625 489.522460938 692.125976562 541.802734375 c 6
 687.383789062 653.189453125 l 5
 684.51171875 672.20703125 683.087890625 691.340820312 683.087890625 710.456054688 c 4
 683.087890625 716.53125 683.231445312 722.604492188 683.518554688 728.671875 c 4
 672.762695312 810.672851562 628.763671875 857.505859375 555.458007812 877.53125 c 5
 587.79296875 836.715820312 614.58984375 774.666015625 614.58984375 708.260742188 c 4
 614.58984375 610.390625 568.119140625 538.159179688 507.915039062 492.611328125 c 4
 463.235351562 458.807617188 412.279296875 439.518554688 350.374023438 439.518554688 c 4
 188.709960938 439.518554688 75 573.686523438 75 729.719726562 c 4
 75 883.147460938 168.581054688 985.919921875 273.311523438 1040.06445312 c 4
 338.083007812 1073.54980469 408.2265625 1087.85449219 477.014648438 1087.85449219 c 4
 609.018554688 1087.85449219 713.708007812 1041.36816406 783.194335938 969.080078125 c 5
 849.000976562 1041.31152344 940.78515625 1094.64355469 1067.00878906 1094.64355469 c 4
 1206.89355469 1094.64355469 1305.89746094 1030.41308594 1372.64160156 943.84765625 c 4
 1425.64941406 875.098632812 1454.28808594 793.963867188 1454.28808594 703.314453125 c 4
 1454.28808594 581.504882812 1399.06738281 470.282226562 1317.82519531 389.21875 c 4
 1189.48730469 261.162109375 1016.81054688 206.82421875 789.50390625 206.82421875 c 4
1853.83105469 730.377929688 m 4
 1853.83105469 771.462890625 1823.44824219 805.921875 1783.18164062 805.921875 c 4
 1746.69335938 805.921875 1727.63378906 782.754882812 1712.64746094 755.76953125 c 4
 1712.203125 751.466796875 1711.98535156 747.138671875 1711.98535156 742.831054688 c 4
 1711.98535156 694.616210938 1738.68847656 651.40234375 1785.85351562 651.40234375 c 4
 1825.71679688 651.40234375 1853.83105469 688.8359375 1853.83105469 730.377929688 c 4
414.100585938 707.901367188 m 4
 414.100585938 749.547851562 383.9296875 779.943359375 342.500976562 780.146484375 c 6
 342.09765625 780.147460938 l 6
 308.384765625 780.147460938 286.9609375 760.296875 275.733398438 736.943359375 c 4
 275.670898438 735.323242188 275.639648438 733.703125 275.639648438 732.084960938 c 4
 275.639648438 683.232421875 303.055664062 639.538085938 350.943359375 639.538085938 c 4
 387.328125 639.538085938 414.100585938 670.130859375 414.100585938 707.901367188 c 4
2648.31738281 148.361328125 m 4
 2677.30371094 148.361328125 2701.27832031 171.625 2701.27832031 200.44140625 c 4
 2701.27832031 243.978515625 2662.94433594 264.650390625 2620.98535156 268.912109375 c 5
 2608.66796875 251.9375 2598.51660156 231.763671875 2598.51660156 206.092773438 c 4
 2598.51660156 173.995117188 2618.23046875 148.361328125 2648.31738281 148.361328125 c 4
2070.88769531 239.017578125 m 5
 1995.89160156 244.875976562 1927.31640625 252.319335938 1855.95898438 252.319335938 c 4
 1803.26269531 252.319335938 1723.10742188 246.706054688 1723.10742188 204.036132812 c 4
 1723.10742188 169.369140625 1774.04394531 157.375976562 1813.81933594 157.375976562 c 4
 1912.22070312 157.375976562 1987.17773438 195.00390625 2070.88769531 239.017578125 c 5
EndSplineSet
Fore
SplineSet
2653 288 m 0
 2597 288 2553 243 2553 185 c 0
 2553 131 2606 88 2658 88 c 0
 2714 88 2754 131 2754 187 c 0
 2754 243 2709 288 2653 288 c 0
1783 838 m 4
 1727 838 1683 793 1683 735 c 4
 1683 681 1736 638 1788 638 c 4
 1844 638 1884 681 1884 737 c 4
 1884 793 1839 838 1783 838 c 4
353 806 m 0
 297 806 252 761 252 703 c 0
 252 649 305 606 357 606 c 0
 413 606 453 649 453 705 c 0
 453 761 409 806 353 806 c 0
3116 -567 m 2
 1875 -565 l 2
 1700 -565 1513 -509 1513 -324 c 0
 1513 -140 1697 -84 1873 -90 c 1
 2552 -86 l 1
 2767 -67 3018 -48 3018 163 c 0
 3018 267 2941 336 2851 353 c 1
 2883 310 2901 257 2901 202 c 0
 2901 62 2791 -52 2650 -52 c 0
 2511 -52 2404 57 2399 196 c 1
 2234 105 2058 -43 1811 -43 c 0
 1662 -43 1523 49 1523 203 c 0
 1523 374 1684 445 1847 445 c 0
 1991 445 2130 432 2255 432 c 0
 2465 432 2691 512 2691 712 c 0
 2691 812 2612 893 2511 893 c 0
 2388 893 2321 802 2325 679 c 1
 2327 559 l 2
 2328 504 2284 459 2229 459 c 0
 2177 459 2132 502 2129 554 c 1
 2134 668 l 1
 2129 787 2103 852 2007 885 c 1
 2036 842 2054 795 2054 730 c 0
 2054 575 1940 451 1785 451 c 0
 1731 451 1678 470 1639 496 c 1
 1494 99 1051 -54 534 -54 c 0
 325 -54 87 -30 87 193 c 0
 87 351 233 432 386 432 c 0
 528 432 670 408 797 408 c 0
 1018 408 1254 493 1254 704 c 0
 1254 809 1174 895 1067 895 c 0
 934 895 884 798 888 667 c 1
 889 547 l 2
 889 492 847 447 792 447 c 0
 740 447 695 490 692 542 c 1
 693 653 l 1
 687 780 668 847 555 878 c 1
 587 837 615 774 615 708 c 0
 615 556 500 440 350 440 c 0
 188 440 75 574 75 730 c 0
 75 950 262 1088 477 1088 c 0
 609 1088 714 1041 783 969 c 1
 849 1041 941 1095 1067 1095 c 0
 1290 1095 1454 921 1454 703 c 0
 1454 367 1127 207 790 207 c 0
 649 207 523 232 393 232 c 0
 351 232 288 227 287 194 c 0
 287 140 432 146 504 146 c 0
 511 146 518 146 525 146 c 0
 961 146 1359 250 1460 593 c 0
 1476 649 1491 751 1521 819 c 1
 1562 983 1716 1100 1914 1100 c 0
 2051 1100 2158 1050 2227 973 c 1
 2296 1045 2401 1094 2507 1094 c 0
 2726 1094 2891 925 2891 710 c 0
 2891 655 2879 603 2859 555 c 1
 3056 531 3218 381 3218 164 c 0
 3218 -179 2875 -283 2553 -286 c 1
 1840 -289 l 2
 1782 -289 1726 -294 1713 -324 c 1
 1723 -362 1810 -365 1875 -365 c 2
 3114 -367 l 1
 3116 -367 l 2
 3171 -367 3216 -412 3216 -467 c 0
 3216 -522 3171 -567 3116 -567 c 2
2071 239 m 1
 1996 245 1927 252 1856 252 c 0
 1803 252 1723 247 1723 204 c 0
 1723 169 1774 157 1814 157 c 0
 1912 157 1987 195 2071 239 c 1
EndSplineSet
LCarets2: 1 0
EndChar

StartChar: ch3ch3u2
Encoding: 65629 -1 210
Width: 3297
GlyphClass: 3
LigCaretCntFixed: 1
Flags: HW
LayerCount: 2
Fore
SplineSet
2670 290 m 0
 2614 290 2570 245 2570 187 c 0
 2570 133 2623 90 2675 90 c 0
 2731 90 2771 133 2771 189 c 0
 2771 245 2726 290 2670 290 c 0
1765 838 m 0
 1709 838 1665 793 1665 735 c 0
 1665 681 1718 638 1770 638 c 0
 1826 638 1866 681 1866 737 c 0
 1866 793 1821 838 1765 838 c 0
352 814 m 4
 296 814 251 769 251 711 c 4
 251 657 304 614 356 614 c 4
 412 614 452 657 452 713 c 4
 452 769 408 814 352 814 c 4
1878 460 m 0
 2012 460 2138 435 2254 435 c 0
 2453 435 2691 521 2691 714 c 0
 2691 820 2610 894 2504 894 c 0
 2402 894 2333 825 2323 731 c 1
 2325 676 2327 622 2329 567 c 1
 2329 512 2284 467 2229 467 c 0
 2177 467 2132 510 2129 562 c 2
 2122 732 l 2
 2118 819 2077 869 2007 893 c 1
 2036 851 2053 790 2053 732 c 0
 2053 578 1921 455 1781 455 c 0
 1734 455 1685 474 1639 505 c 1
 1495 109 1044 -52 531 -52 c 0
 336 -52 87 -22 87 195 c 0
 87 362 224 434 386 434 c 0
 407 434 425 438 445 438 c 1
 569 431 688 411 798 411 c 0
 1008 411 1254 501 1254 704 c 0
 1254 822 1179 898 1063 898 c 0
 969 898 880 833 884 742 c 0
 887 680 890 618 892 555 c 1
 892 500 847 455 792 455 c 0
 740 455 695 498 692 550 c 2
 684 737 l 2
 680 819 628 866 555 886 c 1
 589 844 614 774 614 706 c 0
 614 559 484 441 348 441 c 0
 198 441 75 585 75 732 c 0
 75 956 261 1090 479 1090 c 0
 613 1090 710 1053 783 977 c 1
 845 1045 944 1097 1064 1097 c 0
 1294 1097 1454 932 1454 705 c 0
 1454 377 1119 209 793 209 c 0
 650 209 518 235 389 235 c 0
 353 235 286 229 286 204 c 0
 286 148 455 148 521 148 c 0
 952 148 1360 260 1460 601 c 0
 1476 657 1491 759 1521 827 c 1
 1562 989 1714 1102 1913 1102 c 0
 2054 1102 2153 1063 2227 981 c 1
 2298 1056 2403 1095 2511 1095 c 0
 2729 1095 2891 934 2891 716 c 0
 2891 695 2890 679 2886 656 c 1
 2891 657 2895 657 2900 657 c 0
 2916 657 2933 654 2948 654 c 0
 3140 654 3292 518 3292 331 c 0
 3292 273 3274 220 3235 167 c 1
 3274 121 3297 53 3297 -10 c 0
 3297 -252 3069 -303 2826 -303 c 0
 2490 -303 2164 -280 1826 -281 c 0
 1783 -281 1712 -308 1713 -334 c 1
 1724 -376 1847 -381 1910 -381 c 0
 2312 -380 2714 -378 3116 -377 c 0
 3171 -377 3216 -422 3216 -477 c 0
 3216 -533 3170 -577 3114 -577 c 2
 1876 -581 l 2
 1712 -581 1513 -518 1513 -342 c 0
 1513 -146 1688 -106 1873 -106 c 2
 2857 -108 l 2
 2949 -108 3074 -88 3095 -17 c 0
 3109 17 3070 54 3043 56 c 0
 2991 59 2949 104 2949 156 c 0
 2949 199 2983 243 3025 253 c 0
 3061 262 3093 291 3093 334 c 0
 3093 420 3015 454 2943 454 c 0
 2895 454 2836 439 2795 416 c 1
 2856 372 2906 286 2906 195 c 0
 2906 50 2788 -52 2652 -52 c 0
 2506 -52 2409 57 2409 211 c 1
 2243 124 2053 -41 1812 -41 c 0
 1671 -41 1523 56 1523 204 c 0
 1523 385 1676 454 1847 454 c 0
 1858 454 1868 460 1878 460 c 0
2069 247 m 1
 1985 253 1909 254 1834 254 c 0
 1780 254 1724 252 1724 205 c 0
 1724 178 1785 160 1817 160 c 0
 1904 160 1990 206 2069 247 c 1
EndSplineSet
LCarets2: 1 0
EndChar

StartChar: ch3ch3r1
Encoding: 65630 -1 211
Width: 3259
GlyphClass: 3
LigCaretCntFixed: 1
Flags: HW
LayerCount: 2
Fore
SplineSet
1795 821 m 0
 1739 821 1694 776 1694 718 c 0
 1694 664 1747 621 1799 621 c 0
 1855 621 1895 664 1895 720 c 0
 1895 776 1851 821 1795 821 c 0
2653 314 m 0
 2597 314 2552 269 2552 211 c 0
 2552 157 2605 114 2657 114 c 0
 2713 114 2753 157 2753 213 c 0
 2753 269 2709 314 2653 314 c 0
352 814 m 4
 296 814 251 769 251 711 c 4
 251 657 304 614 356 614 c 4
 412 614 452 657 452 713 c 4
 452 769 408 814 352 814 c 4
888 683 m 0
 888 638 892 594 892 549 c 0
 892 494 847 449 792 449 c 0
 740 449 695 492 692 544 c 1
 688 655 l 1
 682 783 669 849 555 880 c 1
 587 839 615 776 615 710 c 0
 615 558 500 442 350 442 c 0
 188 442 75 576 75 732 c 0
 75 952 262 1090 477 1090 c 0
 609 1090 714 1043 783 971 c 1
 849 1043 941 1097 1067 1097 c 0
 1290 1097 1454 924 1454 706 c 0
 1454 369 1128 209 790 209 c 0
 649 209 523 234 393 234 c 0
 352 234 287 228 287 196 c 0
 287 153 380 147 457 147 c 0
 924 147 1353 229 1460 595 c 0
 1476 651 1491 753 1521 821 c 1
 1562 985 1716 1102 1914 1102 c 0
 2051 1102 2158 1052 2227 975 c 1
 2296 1047 2401 1096 2507 1096 c 0
 2726 1096 2891 929 2891 713 c 0
 2891 650 2876 590 2850 536 c 1
 3090 493 3259 277 3259 -3 c 0
 3259 -412 2922 -746 2489 -746 c 0
 2257 -746 2044 -674 2044 -445 c 0
 2044 -229 2260 -134 2458 -134 c 0
 2651 -134 2840 -213 2881 -392 c 1
 2987 -295 3059 -166 3059 -4 c 0
 3059 154 2985 271 2873 321 c 1
 2891 286 2900 246 2900 207 c 0
 2900 66 2789 -46 2648 -46 c 0
 2509 -46 2404 61 2395 196 c 1
 2231 105 2057 -41 1811 -41 c 0
 1662 -41 1523 51 1523 205 c 0
 1523 376 1685 448 1847 448 c 0
 1991 448 2130 435 2255 435 c 0
 2465 435 2691 513 2691 714 c 0
 2691 814 2612 895 2511 895 c 0
 2388 895 2325 809 2325 692 c 2
 2325 681 l 1
 2329 561 l 2
 2329 560 2329 559 2329 558 c 0
 2329 505 2283 461 2229 461 c 0
 2177 461 2132 504 2129 556 c 2
 2122 710 l 2
 2118 807 2079 862 2007 887 c 1
 2036 844 2054 797 2054 732 c 0
 2054 578 1939 454 1785 454 c 0
 1731 454 1678 473 1639 499 c 1
 1494 101 1051 -52 534 -52 c 0
 325 -52 87 -28 87 196 c 0
 87 354 233 432 386 432 c 0
 528 432 670 411 797 411 c 0
 1018 411 1254 495 1254 706 c 0
 1254 811 1174 897 1067 897 c 0
 939 897 888 807 888 683 c 0
2072 241 m 1
 1996 247 1927 255 1855 255 c 0
 1781 255 1729 222 1729 195 c 0
 1729 176 1754 160 1814 160 c 0
 1912 160 1989 198 2072 241 c 1
2244 -447 m 0
 2244 -516 2357 -551 2469 -551 c 0
 2579 -551 2687 -517 2687 -450 c 0
 2687 -370 2574 -330 2462 -330 c 0
 2353 -330 2244 -368 2244 -447 c 0
EndSplineSet
LCarets2: 1 0
EndChar

StartChar: ch3nj
Encoding: 65631 -1 212
Width: 4018
GlyphClass: 3
LigCaretCntFixed: 1
Flags: HW
LayerCount: 2
Fore
SplineSet
346 810 m 4
 290 810 245 765 245 707 c 4
 245 653 298 610 350 610 c 4
 406 610 446 653 446 709 c 4
 446 765 402 810 346 810 c 4
2483 877 m 1
 2567 1002 2713 1101 2910 1101 c 0
 2996 1101 3070 1083 3142 1051 c 1
 3212 1080 3287 1095 3364 1095 c 0
 3692 1095 3943 834 3943 504 c 0
 3943 276 3827 109 3684 9 c 0
 3670 -1 3644 -10 3626 -10 c 0
 3571 -10 3526 35 3526 90 c 0
 3526 119 3546 157 3570 173 c 0
 3666 240 3743 352 3743 505 c 0
 3743 721 3580 895 3367 895 c 0
 3363 895 3359 895 3355 895 c 1
 3460 775 3521 631 3521 450 c 0
 3521 215 3375 -15 3130 -15 c 1
 3129 -15 l 1
 2890 -15 2742 208 2742 441 c 0
 2742 637 2813 782 2924 901 c 1
 2625 901 2579 732 2585 448 c 1
 2590 91 l 2
 2590 36 2545 -9 2490 -9 c 0
 2436 -9 2392 34 2390 88 c 1
 2385 440 l 2
 2382 676 2325 895 2092 895 c 0
 1943 895 1789 770 1784 654 c 1
 1809 659 1838 662 1866 662 c 0
 2062 662 2230 523 2230 318 c 0
 2230 132 2088 -11 1904 -11 c 0
 1715 -11 1590 134 1548 284 c 1
 1329 71 1084 -89 665 -89 c 0
 411 -89 86 -85 86 180 c 0
 86 378 286 438 466 438 c 0
 574 438 678 430 775 430 c 0
 997 430 1253 498 1253 710 c 0
 1253 809 1172 890 1071 890 c 0
 971 890 884 821 884 728 c 0
 884 726 884 725 884 723 c 2
 891 542 l 1
 891 488 845 445 791 445 c 0
 739 445 694 487 691 539 c 2
 683 723 l 2
 679 816 625 870 541 890 c 1
 580 847 613 781 613 705 c 0
 613 554 500 437 350 437 c 0
 187 437 75 573 75 730 c 0
 75 949 261 1097 478 1097 c 0
 613 1097 719 1045 787 969 c 1
 857 1043 964 1091 1071 1091 c 0
 1289 1091 1453 922 1453 710 c 0
 1453 368 1108 228 766 228 c 0
 658 228 556 238 459 238 c 0
 391 238 286 234 286 180 c 0
 286 116 482 110 601 110 c 0
 1145 110 1224 311 1541 543 c 1
 1547 810 1773 1095 2092 1095 c 0
 2273 1095 2408 992 2483 877 c 1
3138 823 m 1
 3026 746 2942 611 2942 443 c 0
 2942 317 3006 185 3130 185 c 0
 3258 185 3321 324 3321 452 c 0
 3321 613 3244 746 3138 823 c 1
2030 318 m 0
 2030 410 1956 462 1864 462 c 0
 1841 462 1730 447 1730 423 c 0
 1730 304 1789 189 1905 189 c 0
 1976 189 2030 246 2030 318 c 0
EndSplineSet
LCarets2: 2 0 0
EndChar

StartChar: ch3r3
Encoding: 65632 -1 213
Width: 2102
GlyphClass: 3
Flags: HW
LayerCount: 2
Fore
SplineSet
1661 272 m 0
 1605 272 1560 227 1560 169 c 0
 1560 115 1613 72 1665 72 c 0
 1721 72 1761 115 1761 171 c 0
 1761 227 1717 272 1661 272 c 0
779 822 m 0
 723 822 678 777 678 719 c 0
 678 665 731 622 783 622 c 0
 839 622 879 665 879 721 c 0
 879 777 835 822 779 822 c 0
783 449 m 0
 621 449 508 583 508 739 c 0
 508 960 694 1097 910 1097 c 0
 1047 1097 1153 1048 1223 971 c 1
 1291 1043 1397 1091 1503 1091 c 0
 1722 1091 1887 922 1887 706 c 0
 1887 619 1859 537 1812 469 c 1
 1973 430 2102 274 2102 83 c 0
 2102 -345 1669 -453 1248 -453 c 0
 622 -453 75 -148 75 467 c 0
 75 696 163 903 316 1060 c 0
 332 1077 365 1092 389 1092 c 0
 444 1092 489 1047 489 992 c 0
 489 969 476 937 460 921 c 0
 345 803 275 640 275 468 c 0
 275 -33 734 -253 1248 -253 c 0
 1546 -253 1902 -208 1902 81 c 0
 1902 98 1899 114 1896 130 c 1
 1878 17 1779 -82 1649 -82 c 0
 1509 -82 1400 31 1400 171 c 0
 1400 172 1400 173 1400 174 c 1
 1232 88 1054 -53 809 -53 c 0
 660 -53 519 39 519 193 c 0
 519 364 681 442 844 442 c 0
 984 442 1119 424 1241 424 c 0
 1456 424 1687 503 1687 708 c 0
 1687 808 1609 890 1507 890 c 0
 1384 890 1317 799 1321 676 c 2
 1325 556 l 2
 1327 501 1280 456 1225 456 c 0
 1173 456 1128 499 1125 551 c 2
 1120 665 l 2
 1115 790 1096 857 988 887 c 1
 1020 846 1047 784 1047 718 c 0
 1047 566 933 449 783 449 c 0
1078 228 m 1
 999 234 927 242 852 242 c 0
 799 242 719 236 719 194 c 0
 719 159 772 147 812 147 c 0
 913 147 991 184 1078 228 c 1
EndSplineSet
EndChar

StartChar: njch1
Encoding: 65639 -1 220
Width: 2723
GlyphClass: 3
LigCaretCntFixed: 1
Flags: HW
LayerCount: 2
Fore
SplineSet
677.345703125 1088.36621094 m 0
 852.302734375 1088.36621094 998.799804688 996.745117188 1078.81835938 885.5 c 1
 1148.09281773 986.015107771 1310.77245087 1096.31084367 1470.08744572 1096.31084367 c 0
 1527.62255548 1096.31084367 1584.71884065 1081.92579596 1636.81835938 1047.5 c 1
 1676.13183594 1081.59765625 1735.63378906 1096.03710938 1786.12207031 1096.03710938 c 0
 2080.96264095 1096.03710938 2311.90527344 859.486692187 2311.90527344 568.270507812 c 0
 2311.90527344 412.975585938 2238.11230469 273.793945312 2151.81835938 187.5 c 1
 2448.81835938 187.5 l 1
 2448.81835938 996.5 l 2
 2448.81835938 1051.5 2493.81835938 1096.5 2548.81835938 1096.5 c 0
 2603.81835938 1096.5 2648.81835938 1051.5 2648.81835938 996.5 c 2
 2648.81835938 87.5 l 2
 2648.81835938 32.5 2603.81835938 -12.5 2548.81835938 -12.5 c 2
 1431.81835938 -12.5 l 2
 1380 -12 1336.81835938 34.5 1336.81835938 87.5 c 0
 1336.81835938 142.5 1380.81835938 187.5 1435.81835938 187.5 c 2
 1560.81835938 187.5 l 1
 1837.49604009 200.675127653 2111.00878906 282.764992779 2111.00878906 567.155273438 c 0
 2111.00878906 704.51953125 2024.58203125 819.494140625 1918.81835938 866.5 c 1
 1952.61230469 810.740234375 1978.5546875 732.138671875 1978.5546875 651.200195312 c 0
 1978.5546875 463.958984375 1839.81152344 302.416015625 1651.546875 302.416015625 c 0
 1462.43177686 302.416015625 1321.96777344 467.147983534 1321.96777344 656.172851562 c 0
 1321.96777344 738.790039062 1347.67871094 819.083007812 1381.81835938 876.5 c 1
 1228.48255766 823.839219613 1181.81835938 691.026629283 1181.81835938 482.5 c 2
 1181.81835938 78.5 l 1
 1180.81835938 23.5 1136.81835938 -20.5 1081.81835938 -20.5 c 0
 1027.81835938 -20.5 982.818359375 24.5 981.818359375 78.5 c 2
 979.818359375 478.5 l 2
 978.548494826 713.424941502 907.167456962 889.008789062 677.786132812 889.008789062 c 0
 512.495117188 889.008789062 384.303710938 774.7109375 323.818359375 651.5 c 1
 371.951171875 673.98828125 423.040039062 684.801757812 473.525390625 684.801757812 c 0
 673.811523438 684.801757812 826.557617188 519.0859375 826.557617188 326.461914062 c 0
 826.557617188 131.177734375 663.670898438 -18.9189453125 477.228515625 -18.9189453125 c 0
 229.252929688 -18.9189453125 75 204.520507812 75 444.34765625 c 0
 75 792.103032464 330.327662112 1088.36621094 677.345703125 1088.36621094 c 0
1653.16992188 502.48828125 m 0
 1731.18066406 502.48828125 1778.21484375 577.368164062 1778.21484375 656.537109375 c 0
 1778.21484375 757.854492188 1711.59082031 822.470703125 1640.81835938 858.5 c 1
 1580.05957031 824.6484375 1521.56054688 756.140625 1521.56054688 666.055664062 c 0
 1521.56054688 581.7890625 1572.82226562 502.48828125 1653.16992188 502.48828125 c 0
476.487304688 180.455078125 m 0
 558.756835938 180.455078125 626.588867188 246.46484375 626.588867188 328.541992188 c 0
 626.588867188 411.598632812 554.203125 485.921875 471.516601562 485.921875 c 0
 392.65234375 485.921875 321.327148438 419.747070312 321.327148438 334.333007812 c 0
 321.327148438 247.818359375 390.96875 180.455078125 476.487304688 180.455078125 c 0
EndSplineSet
LCarets2: 2 0 0
EndChar

